  0
SECTION
  2
HEADER
  9
$ACADVER
  1
AC1032
  9
$ACADMAINTVER
 90
4
  9
$DWGCODEPAGE
  3
ANSI_936
  9
$LASTSAVEDBY
  1
19758
  9
$REQUIREDVERSIONS
160
0
  9
$INSBASE
 10
0.0
 20
0.0
 30
0.0
  9
$EXTMIN
 10
1e+20
 20
1e+20
 30
1e+20
  9
$EXTMAX
 10
-1e+20
 20
-1e+20
 30
-1e+20
  9
$LIMMIN
 10
0.0
 20
0.0
  9
$LIMMAX
 10
420.0
 20
297.0
  9
$ORTHOMODE
 70
0
  9
$REGENMODE
 70
1
  9
$FILLMODE
 70
1
  9
$QTEXTMODE
 70
0
  9
$MIRRTEXT
 70
0
  9
$LTSCALE
 40
1.0
  9
$ATTMODE
 70
1
  9
$TEXTSIZE
 40
2.5
  9
$TRACEWID
 40
1.0
  9
$TEXTSTYLE
  7
Standard
  9
$CLAYER
  8
0
  9
$CELTYPE
  6
ByLayer
  9
$CECOLOR
 62
256
  9
$CELTSCALE
 40
1.0
  9
$DISPSILH
 70
0
  9
$DIMSCALE
 40
1.0
  9
$DIMASZ
 40
2.5
  9
$DIMEXO
 40
0.625
  9
$DIMDLI
 40
3.75
  9
$DIMRND
 40
0.0
  9
$DIMDLE
 40
0.0
  9
$DIMEXE
 40
1.25
  9
$DIMTP
 40
0.0
  9
$DIMTM
 40
0.0
  9
$DIMTXT
 40
2.5
  9
$DIMCEN
 40
2.5
  9
$DIMTSZ
 40
0.0
  9
$DIMTOL
 70
0
  9
$DIMLIM
 70
0
  9
$DIMTIH
 70
0
  9
$DIMTOH
 70
0
  9
$DIMSE1
 70
0
  9
$DIMSE2
 70
0
  9
$DIMTAD
 70
1
  9
$DIMZIN
 70
8
  9
$DIMBLK
  1

  9
$DIMASO
 70
1
  9
$DIMSHO
 70
1
  9
$DIMPOST
  1

  9
$DIMAPOST
  1

  9
$DIMALT
 70
0
  9
$DIMALTD
 70
3
  9
$DIMALTF
 40
0.03937007874016
  9
$DIMLFAC
 40
1.0
  9
$DIMTOFL
 70
1
  9
$DIMTVP
 40
0.0
  9
$DIMTIX
 70
0
  9
$DIMSOXD
 70
0
  9
$DIMSAH
 70
0
  9
$DIMBLK1
  1

  9
$DIMBLK2
  1

  9
$DIMSTYLE
  2
ISO-25
  9
$DIMCLRD
 70
0
  9
$DIMCLRE
 70
0
  9
$DIMCLRT
 70
0
  9
$DIMTFAC
 40
1.0
  9
$DIMGAP
 40
0.625
  9
$DIMJUST
 70
0
  9
$DIMSD1
 70
0
  9
$DIMSD2
 70
0
  9
$DIMTOLJ
 70
0
  9
$DIMTZIN
 70
8
  9
$DIMALTZ
 70
0
  9
$DIMALTTZ
 70
0
  9
$DIMUPT
 70
0
  9
$DIMDEC
 70
2
  9
$DIMTDEC
 70
2
  9
$DIMALTU
 70
2
  9
$DIMALTTD
 70
3
  9
$DIMTXSTY
  7
Standard
  9
$DIMAUNIT
 70
0
  9
$DIMADEC
 70
0
  9
$DIMALTRND
 40
0.0
  9
$DIMAZIN
 70
0
  9
$DIMDSEP
 70
44
  9
$DIMATFIT
 70
3
  9
$DIMFRAC
 70
0
  9
$DIMLDRBLK
  1

  9
$DIMLUNIT
 70
2
  9
$DIMLWD
 70
-2
  9
$DIMLWE
 70
-2
  9
$DIMTMOVE
 70
0
  9
$DIMFXL
 40
1.0
  9
$DIMFXLON
 70
0
  9
$DIMJOGANG
 40
0.7853981633974483
  9
$DIMTFILL
 70
0
  9
$DIMTFILLCLR
 70
0
  9
$DIMARCSYM
 70
0
  9
$DIMLTYPE
  6

  9
$DIMLTEX1
  6

  9
$DIMLTEX2
  6

  9
$DIMTXTDIRECTION
 70
0
  9
$LUNITS
 70
2
  9
$LUPREC
 70
4
  9
$SKETCHINC
 40
1.0
  9
$FILLETRAD
 40
0.0
  9
$AUNITS
 70
0
  9
$AUPREC
 70
0
  9
$MENU
  1
.
  9
$ELEVATION
 40
0.0
  9
$PELEVATION
 40
0.0
  9
$THICKNESS
 40
0.0
  9
$LIMCHECK
 70
0
  9
$CHAMFERA
 40
0.0
  9
$CHAMFERB
 40
0.0
  9
$CHAMFERC
 40
0.0
  9
$CHAMFERD
 40
0.0
  9
$SKPOLY
 70
0
  9
$TDCREATE
 40
2460794.6190046296
  9
$TDUCREATE
 40
2460783.319549467
  9
$TDUPDATE
 40
2460794.6190046296
  9
$TDUUPDATE
 40
2460783.326626389
  9
$TDINDWG
 40
0.007077222
  9
$TDUSRTIMER
 40
0.007077049
  9
$USRTIMER
 70
1
  9
$ANGBASE
 50
0.0
  9
$ANGDIR
 70
0
  9
$PDMODE
 70
0
  9
$PDSIZE
 40
0.0
  9
$PLINEWID
 40
0.0
  9
$SPLFRAME
 70
0
  9
$SPLINETYPE
 70
6
  9
$SPLINESEGS
 70
8
  9
$HANDSEED
  5
921
  9
$SURFTAB1
 70
6
  9
$SURFTAB2
 70
6
  9
$SURFTYPE
 70
6
  9
$SURFU
 70
6
  9
$SURFV
 70
6
  9
$UCSBASE
  2

  9
$UCSNAME
  2

  9
$UCSORG
 10
0.0
 20
0.0
 30
0.0
  9
$UCSXDIR
 10
1.0
 20
0.0
 30
0.0
  9
$UCSYDIR
 10
0.0
 20
1.0
 30
0.0
  9
$UCSORTHOREF
  2

  9
$UCSORTHOVIEW
 70
0
  9
$UCSORGTOP
 10
0.0
 20
0.0
 30
0.0
  9
$UCSORGBOTTOM
 10
0.0
 20
0.0
 30
0.0
  9
$UCSORGLEFT
 10
0.0
 20
0.0
 30
0.0
  9
$UCSORGRIGHT
 10
0.0
 20
0.0
 30
0.0
  9
$UCSORGFRONT
 10
0.0
 20
0.0
 30
0.0
  9
$UCSORGBACK
 10
0.0
 20
0.0
 30
0.0
  9
$PUCSBASE
  2

  9
$PUCSNAME
  2

  9
$PUCSORG
 10
0.0
 20
0.0
 30
0.0
  9
$PUCSXDIR
 10
1.0
 20
0.0
 30
0.0
  9
$PUCSYDIR
 10
0.0
 20
1.0
 30
0.0
  9
$PUCSORTHOREF
  2

  9
$PUCSORTHOVIEW
 70
0
  9
$PUCSORGTOP
 10
0.0
 20
0.0
 30
0.0
  9
$PUCSORGBOTTOM
 10
0.0
 20
0.0
 30
0.0
  9
$PUCSORGLEFT
 10
0.0
 20
0.0
 30
0.0
  9
$PUCSORGRIGHT
 10
0.0
 20
0.0
 30
0.0
  9
$PUCSORGFRONT
 10
0.0
 20
0.0
 30
0.0
  9
$PUCSORGBACK
 10
0.0
 20
0.0
 30
0.0
  9
$USERI1
 70
0
  9
$USERI2
 70
0
  9
$USERI3
 70
0
  9
$USERI4
 70
0
  9
$USERI5
 70
0
  9
$USERR1
 40
0.0
  9
$USERR2
 40
0.0
  9
$USERR3
 40
0.0
  9
$USERR4
 40
0.0
  9
$USERR5
 40
0.0
  9
$WORLDVIEW
 70
1
  9
$SHADEDGE
 70
3
  9
$SHADEDIF
 70
70
  9
$TILEMODE
 70
1
  9
$MAXACTVP
 70
64
  9
$PINSBASE
 10
0.0
 20
0.0
 30
0.0
  9
$PLIMCHECK
 70
0
  9
$PEXTMIN
 10
0.0
 20
0.0
 30
0.0
  9
$PEXTMAX
 10
0.0
 20
0.0
 30
0.0
  9
$PLIMMIN
 10
0.0
 20
0.0
  9
$PLIMMAX
 10
12.0
 20
9.0
  9
$UNITMODE
 70
0
  9
$VISRETAIN
 70
1
  9
$PLINEGEN
 70
0
  9
$PSLTSCALE
 70
1
  9
$TREEDEPTH
 70
3020
  9
$CMLSTYLE
  2
Standard
  9
$CMLJUST
 70
0
  9
$CMLSCALE
 40
20.0
  9
$PROXYGRAPHICS
 70
1
  9
$MEASUREMENT
 70
1
  9
$CELWEIGHT
370
-1
  9
$ENDCAPS
280
0
  9
$JOINSTYLE
280
0
  9
$LWDISPLAY
290
0
  9
$INSUNITS
 70
4
  9
$HYPERLINKBASE
  1

  9
$STYLESHEET
  1

  9
$XEDIT
290
1
  9
$CEPSNTYPE
380
0
  9
$PSTYLEMODE
290
1
  9
$FINGERPRINTGUID
  2
{7A9F8AD9-665E-435F-A8D6-3618E7CCD7FC}
  9
$VERSIONGUID
  2
{FE9BBB29-070A-476F-841B-808727211DAA}
  9
$EXTNAMES
290
1
  9
$PSVPSCALE
 40
0.0
  9
$OLESTARTUP
290
0
  9
$SORTENTS
280
127
  9
$INDEXCTL
280
0
  9
$HIDETEXT
280
1
  9
$XCLIPFRAME
280
2
  9
$HALOGAP
280
0
  9
$OBSCOLOR
 70
257
  9
$OBSLTYPE
280
0
  9
$INTERSECTIONDISPLAY
280
0
  9
$INTERSECTIONCOLOR
 70
257
  9
$DIMASSOC
280
2
  9
$PROJECTNAME
  1

  9
$CAMERADISPLAY
290
0
  9
$LENSLENGTH
 40
50.0
  9
$CAMERAHEIGHT
 40
0.0
  9
$STEPSPERSEC
 40
2.0
  9
$STEPSIZE
 40
6.0
  9
$3DDWFPREC
 40
2.0
  9
$PSOLWIDTH
 40
0.25
  9
$PSOLHEIGHT
 40
4.0
  9
$LOFTANG1
 40
1.570796326794896
  9
$LOFTANG2
 40
1.570796326794896
  9
$LOFTMAG1
 40
0.0
  9
$LOFTMAG2
 40
0.0
  9
$LOFTPARAM
 70
7
  9
$LOFTNORMALS
280
1
  9
$LATITUDE
 40
37.795
  9
$LONGITUDE
 40
-122.394
  9
$NORTHDIRECTION
 40
0.0
  9
$TIMEZONE
 70
-8000
  9
$LIGHTGLYPHDISPLAY
280
1
  9
$TILEMODELIGHTSYNCH
280
1
  9
$CMATERIAL
347
12D
  9
$SOLIDHIST
280
0
  9
$SHOWHIST
280
1
  9
$DWFFRAME
280
2
  9
$DGNFRAME
280
2
  9
$REALWORLDSCALE
290
1
  9
$INTERFERECOLOR
 62
256
  9
$CSHADOW
280
0
  9
$SHADOWPLANELOCATION
 40
0.0
  0
ENDSEC
  0
SECTION
  2
CLASSES
  0
CLASS
  1
ACDBDICTIONARYWDFLT
  2
AcDbDictionaryWithDefault
  3
ObjectDBX Classes
 90
0
 91
1
280
0
281
0
  0
CLASS
  1
ACDBPLACEHOLDER
  2
AcDbPlaceHolder
  3
ObjectDBX Classes
 90
0
 91
0
280
0
281
0
  0
CLASS
  1
LAYOUT
  2
AcDbLayout
  3
ObjectDBX Classes
 90
0
 91
0
280
0
281
0
  0
CLASS
  1
DICTIONARYVAR
  2
AcDbDictionaryVar
  3
ObjectDBX Classes
 90
0
 91
9
280
0
281
0
  0
CLASS
  1
TABLESTYLE
  2
AcDbTableStyle
  3
ObjectDBX Classes
 90
4095
 91
8
280
0
281
0
  0
CLASS
  1
WIPEOUTVARIABLES
  2
AcDbWipeoutVariables
  3
"WipeOut|Product Desc:     WipeOut Dbx Application|Company:          Autodesk, Inc.|WEB Address:      www.autodesk.com"
 90
0
 91
0
280
0
281
0
  0
CLASS
  1
SCALE
  2
AcDbScale
  3
ObjectDBX Classes
 90
1153
 91
17
280
0
281
0
  0
CLASS
  1
MLEADERSTYLE
  2
AcDbMLeaderStyle
  3
ACDB_MLEADERSTYLE_CLASS
 90
4095
 91
15
280
0
281
0
  0
CLASS
  1
MATERIAL
  2
AcDbMaterial
  3
ObjectDBX Classes
 90
1153
 91
24
280
0
281
0
  0
CLASS
  1
VISUALSTYLE
  2
AcDbVisualStyle
  3
ObjectDBX Classes
 90
4095
 91
192
280
0
281
0
  0
CLASS
  1
ACDBSECTIONVIEWSTYLE
  2
AcDbSectionViewStyle
  3
ObjectDBX Classes
 90
1025
 91
1
280
0
281
0
  0
CLASS
  1
ACDBDETAILVIEWSTYLE
  2
AcDbDetailViewStyle
  3
ObjectDBX Classes
 90
1025
 91
1
280
0
281
0
  0
CLASS
  1
CELLSTYLEMAP
  2
AcDbCellStyleMap
  3
ObjectDBX Classes
 90
1152
 91
10
280
0
281
0
  0
CLASS
  1
DIMASSOC
  2
AcDbDimAssoc
  3
ZcDbDimAssoc ObjectDBX Classes
 90
0
 91
42
280
0
281
0
  0
CLASS
  1
SUN
  2
AcDbSun
  3
SCENEOE
 90
1153
 91
0
280
0
281
0
  0
CLASS
  1
MENTALRAYRENDERSETTINGS
  2
AcDbMentalRayRenderSettings
  3
SCENEOE
 90
1024
 91
0
280
0
281
0
  0
CLASS
  1
RASTERVARIABLES
  2
AcDbRasterVariables
  3
ISM
 90
0
 91
0
280
0
281
0
  0
ENDSEC
  0
SECTION
  2
TABLES
  0
TABLE
  2
VPORT
  5
8
330
0
100
AcDbSymbolTable
 70
1
  0
VPORT
  5
1BA
330
8
100
AcDbSymbolTableRecord
100
AcDbViewportTableRecord
  2
*Active
 70
0
 10
0.0
 20
0.0
 11
1.0
 21
1.0
 12
6713.833359550669
 22
110.3192262464143
 13
0.0
 23
0.0
 14
10.0
 24
10.0
 15
10.0
 25
10.0
 16
0.0
 26
0.0
 36
1.0
 17
0.0
 27
0.0
 37
0.0
 40
1280.905759154874
 41
1.878281622911694
 42
50.0
 43
0.0
 44
0.0
 50
0.0
 51
0.0
 71
16
 72
1000
 73
1
 74
3
 75
0
 76
0
 77
0
 78
0
281
0
 65
1
110
0.0
120
0.0
130
0.0
111
1.0
121
0.0
131
0.0
112
0.0
122
1.0
132
0.0
 79
0
146
0.0
 60
3
 61
5
348
14B
292
1
282
1
141
0.0
142
0.0
 63
256
1001
ACAD_NAV_VCDISPLAY
1070
3
  0
ENDTAB
  0
TABLE
  2
LTYPE
  5
5
330
0
100
AcDbSymbolTable
 70
3
  0
LTYPE
  5
14
330
5
100
AcDbSymbolTableRecord
100
AcDbLinetypeTableRecord
  2
ByBlock
 70
0
  3

 72
65
 73
0
 40
0.0
  0
LTYPE
  5
15
330
5
100
AcDbSymbolTableRecord
100
AcDbLinetypeTableRecord
  2
ByLayer
 70
0
  3

 72
65
 73
0
 40
0.0
  0
LTYPE
  5
16
330
5
100
AcDbSymbolTableRecord
100
AcDbLinetypeTableRecord
  2
Continuous
 70
0
  3
Solid line
 72
65
 73
0
 40
0.0
  0
ENDTAB
  0
TABLE
  2
LAYER
  5
2
102
{ACAD_XDICTIONARY
360
FA
102
}
330
0
100
AcDbSymbolTable
 70
6
  0
LAYER
  5
10
330
2
100
AcDbSymbolTableRecord
100
AcDbLayerTableRecord
  2
0
 70
0
 62
7
  6
Continuous
370
-3
390
F
347
13D
348
0
  0
LAYER
  5
22D
330
2
100
AcDbSymbolTableRecord
100
AcDbLayerTableRecord
  2
Defpoints
 70
0
 62
7
  6
Continuous
290
0
370
-3
390
F
347
13D
348
0
  0
LAYER
  5
234
330
2
100
AcDbSymbolTableRecord
100
AcDbLayerTableRecord
  2
待检测
 70
0
 62
7
  6
Continuous
370
-3
390
F
347
13D
348
0
1001
AcCmTransparency
1071
33554687
1001
AcAecLayerStandard
1000

1000

  0
LAYER
  5
22E
102
{ACAD_XDICTIONARY
360
22F
102
}
330
2
100
AcDbSymbolTableRecord
100
AcDbLayerTableRecord
  2
100-TX1
 70
0
 62
7
  6
Continuous
370
-3
390
F
347
13D
348
0
1001
AcAecLayerStandard
1000

1000

  0
LAYER
  5
237
330
2
100
AcDbSymbolTableRecord
100
AcDbLayerTableRecord
  2
Free_Edge
 70
0
 62
7
  6
Continuous
370
-3
390
F
347
13D
348
0
  0
LAYER
  5
236
330
2
100
AcDbSymbolTableRecord
100
AcDbLayerTableRecord
  2
Braket
 70
0
 62
30
  6
Continuous
370
-3
390
F
347
13D
348
0
  0
ENDTAB
  0
TABLE
  2
STYLE
  5
3
330
0
100
AcDbSymbolTable
 70
3
  0
STYLE
  5
11
330
3
100
AcDbSymbolTableRecord
100
AcDbTextStyleTableRecord
  2
Standard
 70
0
 40
0.0
 41
1.0
 50
0.0
 71
0
 42
2.5
  3

  4

1001
ACAD
1000
SimSun
1071
34306
  0
STYLE
  5
21D
330
3
100
AcDbSymbolTableRecord
100
AcDbTextStyleTableRecord
  2
Annotative
 70
0
 40
0.0
 41
1.0
 50
0.0
 71
0
 42
2.5
  3

  4

1001
AcadAnnotative
1000
AnnotativeData
1002
{
1070
1
1070
1
1002
}
1001
ACAD
1000
SimSun
1071
34306
  0
STYLE
  5
23C
330
3
100
AcDbSymbolTableRecord
100
AcDbTextStyleTableRecord
  2
JNRD_E1
 70
0
 40
0.0
 41
0.8
 50
0.0
 71
0
 42
1336.121365852654
  3
romans.shx
  4

  0
ENDTAB
  0
TABLE
  2
VIEW
  5
6
330
0
100
AcDbSymbolTable
 70
0
  0
ENDTAB
  0
TABLE
  2
UCS
  5
7
330
0
100
AcDbSymbolTable
 70
0
  0
ENDTAB
  0
TABLE
  2
APPID
  5
9
330
0
100
AcDbSymbolTable
 70
12
  0
APPID
  5
12
330
9
100
AcDbSymbolTableRecord
100
AcDbRegAppTableRecord
  2
ACAD
 70
0
  0
APPID
  5
F4
330
9
100
AcDbSymbolTableRecord
100
AcDbRegAppTableRecord
  2
ACAD_PSEXT
 70
0
  0
APPID
  5
16E
330
9
100
AcDbSymbolTableRecord
100
AcDbRegAppTableRecord
  2
ACAD_NAV_VCDISPLAY
 70
0
  0
APPID
  5
21E
330
9
100
AcDbSymbolTableRecord
100
AcDbRegAppTableRecord
  2
AcadAnnoPO
 70
0
  0
APPID
  5
21F
330
9
100
AcDbSymbolTableRecord
100
AcDbRegAppTableRecord
  2
AcadAnnotative
 70
0
  0
APPID
  5
224
330
9
100
AcDbSymbolTableRecord
100
AcDbRegAppTableRecord
  2
ACAD_DSTYLE_DIMJAG
 70
0
  0
APPID
  5
225
330
9
100
AcDbSymbolTableRecord
100
AcDbRegAppTableRecord
  2
ACAD_DSTYLE_DIMBREAK
 70
0
  0
APPID
  5
226
330
9
100
AcDbSymbolTableRecord
100
AcDbRegAppTableRecord
  2
ACAD_DSTYLE_DIMTALN
 70
0
  0
APPID
  5
235
330
9
100
AcDbSymbolTableRecord
100
AcDbRegAppTableRecord
  2
AcCmTransparency
 70
0
  0
APPID
  5
233
330
9
100
AcDbSymbolTableRecord
100
AcDbRegAppTableRecord
  2
AcAecLayerStandard
 70
0
  0
APPID
  5
91D
330
9
100
AcDbSymbolTableRecord
100
AcDbRegAppTableRecord
  2
HATCHBACKGROUNDCOLOR
 70
0
  0
APPID
  5
91E
330
9
100
AcDbSymbolTableRecord
100
AcDbRegAppTableRecord
  2
EZDXF
 70
0
  0
ENDTAB
  0
TABLE
  2
DIMSTYLE
  5
A
330
0
100
AcDbSymbolTable
 70
3
100
AcDbDimStyleTable
  0
DIMSTYLE
105
27
330
A
100
AcDbSymbolTableRecord
100
AcDbDimStyleTableRecord
  2
Standard
 70
0
 40
1.0
 41
2.5
 42
0.625
 43
3.75
 44
1.25
 45
0.0
 46
0.0
 47
0.0
 48
0.0
 49
2.5
140
2.5
141
2.5
142
0.0
143
0.03937007874
144
1.0
145
0.0
146
1.0
147
0.625
148
0.0
 69
0
 70
0
 71
0
 72
0
 73
0
 74
0
 75
0
 76
0
 77
1
 78
8
 79
3
170
0
171
3
172
1
173
0
174
0
175
0
176
0
177
0
178
0
179
2
271
2
272
2
273
2
274
3
275
0
276
0
277
2
278
44
279
0
280
0
281
0
282
0
283
0
284
8
285
0
286
0
288
0
289
3
290
0
340
11
371
-2
372
-2
  0
DIMSTYLE
105
9C
102
{ACAD_REACTORS
330
266
330
273
330
282
330
291
330
2A2
330
2B1
330
2D1
330
2D2
330
2D5
330
2D8
330
2DD
330
2E0
330
3B4
330
3C1
330
3D0
330
3DF
330
3F0
330
3FF
330
461
330
46E
330
47D
330
48C
330
49D
330
4AC
330
50E
330
51B
330
52A
330
539
330
54A
330
559
330
5BB
330
5C8
330
5D7
330
5E6
330
5F7
330
606
330
712
330
721
330
742
330
745
330
779
330
7DA
330
853
330
862
330
872
330
882
330
8A0
330
8A3
330
8A7
330
8AB
102
}
330
A
100
AcDbSymbolTableRecord
100
AcDbDimStyleTableRecord
  2
ISO-25
 70
0
 40
1.0
 41
2.5
 42
0.625
 43
3.75
 44
1.25
 45
0.0
 46
0.0
 47
0.0
 48
0.0
 49
2.5
140
2.5
141
2.5
142
0.0
143
0.03937007874016
144
1.0
145
0.0
146
1.0
147
0.625
148
0.0
 69
0
 70
0
 71
0
 72
0
 73
0
 74
0
 75
0
 76
0
 77
1
 78
8
 79
3
170
0
171
3
172
1
173
0
174
0
175
0
176
0
177
0
178
0
179
2
271
2
272
2
273
2
274
3
275
0
276
0
277
2
278
44
279
0
280
0
281
0
282
0
283
0
284
8
285
0
286
0
288
0
289
3
290
0
340
11
371
-2
372
-2
  0
DIMSTYLE
105
227
330
A
100
AcDbSymbolTableRecord
100
AcDbDimStyleTableRecord
  2
Annotative
 70
0
 40
1.0
 41
2.5
 42
0.625
 43
3.75
 44
1.25
 45
0.0
 46
0.0
 47
0.0
 48
0.0
 49
2.5
140
2.5
141
2.5
142
0.0
143
0.03937007874016
144
1.0
145
0.0
146
1.0
147
0.625
148
0.0
 69
0
 70
0
 71
0
 72
0
 73
0
 74
0
 75
0
 76
0
 77
1
 78
8
 79
3
170
0
171
3
172
1
173
0
174
0
175
0
176
0
177
0
178
0
179
2
271
2
272
2
273
2
274
3
275
0
276
0
277
2
278
44
279
0
280
0
281
0
282
0
283
0
284
8
285
0
286
0
288
0
289
3
290
0
340
11
371
-2
372
-2
1001
ACAD_DSTYLE_DIMBREAK
1070
391
1040
3.75
1001
AcadAnnotative
1000
AnnotativeData
1002
{
1070
1
1070
1
1002
}
1001
ACAD_DSTYLE_DIMJAG
1070
388
1040
1.5
1001
ACAD_DSTYLE_DIMTALN
1070
392
1070
0
  0
ENDTAB
  0
TABLE
  2
BLOCK_RECORD
  5
1
330
0
100
AcDbSymbolTable
 70
59
  0
BLOCK_RECORD
  5
1F
330
1
100
AcDbSymbolTableRecord
100
AcDbBlockTableRecord
  2
*Model_Space
340
22
 70
0
280
1
281
0
  0
BLOCK_RECORD
  5
1C7
330
1
100
AcDbSymbolTableRecord
100
AcDbBlockTableRecord
  2
*Paper_Space
340
1C8
 70
0
280
1
281
0
  0
BLOCK_RECORD
  5
1CC
330
1
100
AcDbSymbolTableRecord
100
AcDbBlockTableRecord
  2
*Paper_Space0
340
1CD
 70
0
280
1
281
0
  0
BLOCK_RECORD
  5
267
330
1
100
AcDbSymbolTableRecord
100
AcDbBlockTableRecord
  2
*D2
340
0
 70
0
280
1
281
0
  0
BLOCK_RECORD
  5
276
330
1
100
AcDbSymbolTableRecord
100
AcDbBlockTableRecord
  2
*D3
340
0
 70
0
280
1
281
0
  0
BLOCK_RECORD
  5
285
330
1
100
AcDbSymbolTableRecord
100
AcDbBlockTableRecord
  2
*D4
340
0
 70
0
280
1
281
0
  0
BLOCK_RECORD
  5
294
330
1
100
AcDbSymbolTableRecord
100
AcDbBlockTableRecord
  2
*D5
340
0
 70
0
280
1
281
0
  0
BLOCK_RECORD
  5
2A5
330
1
100
AcDbSymbolTableRecord
100
AcDbBlockTableRecord
  2
*D6
340
0
 70
0
280
1
281
0
  0
BLOCK_RECORD
  5
2B2
330
1
100
AcDbSymbolTableRecord
100
AcDbBlockTableRecord
  2
*D7
340
0
 70
0
280
1
281
0
  0
BLOCK_RECORD
  5
2EA
330
1
100
AcDbSymbolTableRecord
100
AcDbBlockTableRecord
  2
*D8
340
0
 70
0
280
1
281
0
  0
BLOCK_RECORD
  5
2F6
330
1
100
AcDbSymbolTableRecord
100
AcDbBlockTableRecord
  2
*D9
340
0
 70
0
280
1
281
0
  0
BLOCK_RECORD
  5
302
330
1
100
AcDbSymbolTableRecord
100
AcDbBlockTableRecord
  2
*D10
340
0
 70
0
280
1
281
0
  0
BLOCK_RECORD
  5
30E
330
1
100
AcDbSymbolTableRecord
100
AcDbBlockTableRecord
  2
*D11
340
0
 70
0
280
1
281
0
  0
BLOCK_RECORD
  5
31A
330
1
100
AcDbSymbolTableRecord
100
AcDbBlockTableRecord
  2
*D12
340
0
 70
0
280
1
281
0
  0
BLOCK_RECORD
  5
326
330
1
100
AcDbSymbolTableRecord
100
AcDbBlockTableRecord
  2
*D13
340
0
 70
0
280
1
281
0
  0
BLOCK_RECORD
  5
3B5
330
1
100
AcDbSymbolTableRecord
100
AcDbBlockTableRecord
  2
*D15
340
0
 70
0
280
1
281
0
  0
BLOCK_RECORD
  5
3C4
330
1
100
AcDbSymbolTableRecord
100
AcDbBlockTableRecord
  2
*D16
340
0
 70
0
280
1
281
0
  0
BLOCK_RECORD
  5
3D3
330
1
100
AcDbSymbolTableRecord
100
AcDbBlockTableRecord
  2
*D17
340
0
 70
0
280
1
281
0
  0
BLOCK_RECORD
  5
3E2
330
1
100
AcDbSymbolTableRecord
100
AcDbBlockTableRecord
  2
*D18
340
0
 70
0
280
1
281
0
  0
BLOCK_RECORD
  5
3F3
330
1
100
AcDbSymbolTableRecord
100
AcDbBlockTableRecord
  2
*D19
340
0
 70
0
280
1
281
0
  0
BLOCK_RECORD
  5
400
330
1
100
AcDbSymbolTableRecord
100
AcDbBlockTableRecord
  2
*D20
340
0
 70
0
280
1
281
0
  0
BLOCK_RECORD
  5
462
330
1
100
AcDbSymbolTableRecord
100
AcDbBlockTableRecord
  2
*D22
340
0
 70
0
280
1
281
0
  0
BLOCK_RECORD
  5
471
330
1
100
AcDbSymbolTableRecord
100
AcDbBlockTableRecord
  2
*D23
340
0
 70
0
280
1
281
0
  0
BLOCK_RECORD
  5
480
330
1
100
AcDbSymbolTableRecord
100
AcDbBlockTableRecord
  2
*D24
340
0
 70
0
280
1
281
0
  0
BLOCK_RECORD
  5
48F
330
1
100
AcDbSymbolTableRecord
100
AcDbBlockTableRecord
  2
*D25
340
0
 70
0
280
1
281
0
  0
BLOCK_RECORD
  5
4A0
330
1
100
AcDbSymbolTableRecord
100
AcDbBlockTableRecord
  2
*D26
340
0
 70
0
280
1
281
0
  0
BLOCK_RECORD
  5
4AD
330
1
100
AcDbSymbolTableRecord
100
AcDbBlockTableRecord
  2
*D27
340
0
 70
0
280
1
281
0
  0
BLOCK_RECORD
  5
50F
330
1
100
AcDbSymbolTableRecord
100
AcDbBlockTableRecord
  2
*D29
340
0
 70
0
280
1
281
0
  0
BLOCK_RECORD
  5
51E
330
1
100
AcDbSymbolTableRecord
100
AcDbBlockTableRecord
  2
*D30
340
0
 70
0
280
1
281
0
  0
BLOCK_RECORD
  5
52D
330
1
100
AcDbSymbolTableRecord
100
AcDbBlockTableRecord
  2
*D31
340
0
 70
0
280
1
281
0
  0
BLOCK_RECORD
  5
53C
330
1
100
AcDbSymbolTableRecord
100
AcDbBlockTableRecord
  2
*D32
340
0
 70
0
280
1
281
0
  0
BLOCK_RECORD
  5
54D
330
1
100
AcDbSymbolTableRecord
100
AcDbBlockTableRecord
  2
*D33
340
0
 70
0
280
1
281
0
  0
BLOCK_RECORD
  5
55A
330
1
100
AcDbSymbolTableRecord
100
AcDbBlockTableRecord
  2
*D34
340
0
 70
0
280
1
281
0
  0
BLOCK_RECORD
  5
5BC
330
1
100
AcDbSymbolTableRecord
100
AcDbBlockTableRecord
  2
*D36
340
0
 70
0
280
1
281
0
  0
BLOCK_RECORD
  5
5CB
330
1
100
AcDbSymbolTableRecord
100
AcDbBlockTableRecord
  2
*D37
340
0
 70
0
280
1
281
0
  0
BLOCK_RECORD
  5
5DA
330
1
100
AcDbSymbolTableRecord
100
AcDbBlockTableRecord
  2
*D38
340
0
 70
0
280
1
281
0
  0
BLOCK_RECORD
  5
5E9
330
1
100
AcDbSymbolTableRecord
100
AcDbBlockTableRecord
  2
*D39
340
0
 70
0
280
1
281
0
  0
BLOCK_RECORD
  5
5FA
330
1
100
AcDbSymbolTableRecord
100
AcDbBlockTableRecord
  2
*D40
340
0
 70
0
280
1
281
0
  0
BLOCK_RECORD
  5
607
330
1
100
AcDbSymbolTableRecord
100
AcDbBlockTableRecord
  2
*D41
340
0
 70
0
280
1
281
0
  0
BLOCK_RECORD
  5
650
330
1
100
AcDbSymbolTableRecord
100
AcDbBlockTableRecord
  2
*D42
340
0
 70
0
280
1
281
0
  0
BLOCK_RECORD
  5
65C
330
1
100
AcDbSymbolTableRecord
100
AcDbBlockTableRecord
  2
*D43
340
0
 70
0
280
1
281
0
  0
BLOCK_RECORD
  5
668
330
1
100
AcDbSymbolTableRecord
100
AcDbBlockTableRecord
  2
*D44
340
0
 70
0
280
1
281
0
  0
BLOCK_RECORD
  5
674
330
1
100
AcDbSymbolTableRecord
100
AcDbBlockTableRecord
  2
*D45
340
0
 70
0
280
1
281
0
  0
BLOCK_RECORD
  5
680
330
1
100
AcDbSymbolTableRecord
100
AcDbBlockTableRecord
  2
*D46
340
0
 70
0
280
1
281
0
  0
BLOCK_RECORD
  5
68C
330
1
100
AcDbSymbolTableRecord
100
AcDbBlockTableRecord
  2
*D47
340
0
 70
0
280
1
281
0
  0
BLOCK_RECORD
  5
715
330
1
100
AcDbSymbolTableRecord
100
AcDbBlockTableRecord
  2
*D49
340
0
 70
0
280
1
281
0
  0
BLOCK_RECORD
  5
724
330
1
100
AcDbSymbolTableRecord
100
AcDbBlockTableRecord
  2
*D50
340
0
 70
0
280
1
281
0
  0
BLOCK_RECORD
  5
74B
330
1
100
AcDbSymbolTableRecord
100
AcDbBlockTableRecord
  2
*D51
340
0
 70
0
280
1
281
0
  0
BLOCK_RECORD
  5
757
330
1
100
AcDbSymbolTableRecord
100
AcDbBlockTableRecord
  2
*D52
340
0
 70
0
280
1
281
0
  0
BLOCK_RECORD
  5
77A
330
1
100
AcDbSymbolTableRecord
100
AcDbBlockTableRecord
  2
*D53
340
0
 70
0
280
1
281
0
  0
BLOCK_RECORD
  5
7DB
330
1
100
AcDbSymbolTableRecord
100
AcDbBlockTableRecord
  2
*D54
340
0
 70
0
280
1
281
0
  0
BLOCK_RECORD
  5
856
330
1
100
AcDbSymbolTableRecord
100
AcDbBlockTableRecord
  2
*D56
340
0
 70
0
280
1
281
0
  0
BLOCK_RECORD
  5
865
330
1
100
AcDbSymbolTableRecord
100
AcDbBlockTableRecord
  2
*D57
340
0
 70
0
280
1
281
0
  0
BLOCK_RECORD
  5
875
330
1
100
AcDbSymbolTableRecord
100
AcDbBlockTableRecord
  2
*D58
340
0
 70
0
280
1
281
0
  0
BLOCK_RECORD
  5
885
330
1
100
AcDbSymbolTableRecord
100
AcDbBlockTableRecord
  2
*D59
340
0
 70
0
280
1
281
0
  0
BLOCK_RECORD
  5
8AE
330
1
100
AcDbSymbolTableRecord
100
AcDbBlockTableRecord
  2
*D60
340
0
 70
0
280
1
281
0
  0
BLOCK_RECORD
  5
8BA
330
1
100
AcDbSymbolTableRecord
100
AcDbBlockTableRecord
  2
*D61
340
0
 70
0
280
1
281
0
  0
BLOCK_RECORD
  5
8C6
330
1
100
AcDbSymbolTableRecord
100
AcDbBlockTableRecord
  2
*D62
340
0
 70
0
280
1
281
0
  0
BLOCK_RECORD
  5
8D2
330
1
100
AcDbSymbolTableRecord
100
AcDbBlockTableRecord
  2
*D63
340
0
 70
0
280
1
281
0
  0
ENDTAB
  0
ENDSEC
  0
SECTION
  2
BLOCKS
  0
BLOCK
  5
20
330
1F
100
AcDbEntity
  8
0
100
AcDbBlockBegin
  2
*Model_Space
 70
0
 10
0.0
 20
0.0
 30
0.0
  3
*Model_Space
  1

  0
ENDBLK
  5
21
330
1F
100
AcDbEntity
  8
0
100
AcDbBlockEnd
  0
BLOCK
  5
1C9
330
1C7
100
AcDbEntity
 67
1
  8
0
100
AcDbBlockBegin
  2
*Paper_Space
 70
0
 10
0.0
 20
0.0
 30
0.0
  3
*Paper_Space
  1

  0
ENDBLK
  5
1CA
330
1C7
100
AcDbEntity
 67
1
  8
0
100
AcDbBlockEnd
  0
BLOCK
  5
1CE
330
1CC
100
AcDbEntity
  8
0
100
AcDbBlockBegin
  2
*Paper_Space0
 70
0
 10
0.0
 20
0.0
 30
0.0
  3
*Paper_Space0
  1

  0
ENDBLK
  5
1CF
330
1CC
100
AcDbEntity
  8
0
100
AcDbBlockEnd
  0
BLOCK
  5
268
330
267
100
AcDbEntity
  8
0
100
AcDbBlockBegin
  2
*D2
 70
1
 10
0.0
 20
0.0
 30
0.0
  3
*D2
  1

  0
LINE
  5
269
330
267
100
AcDbEntity
  8
0
 62
0
370
-2
100
AcDbLine
 10
-7523.91272453601
 20
6209.109907772704
 30
0.0
 11
-7523.91272453601
 21
6240.720424488725
 31
0.0
  0
LINE
  5
26A
330
267
100
AcDbEntity
  8
0
 62
0
370
-2
100
AcDbLine
 10
-7613.764916230014
 20
6209.109907772704
 30
0.0
 11
-7613.764916230014
 21
6240.720424488725
 31
0.0
  0
LINE
  5
26B
330
267
100
AcDbEntity
  8
0
 62
0
370
-2
100
AcDbLine
 10
-7526.412724536008
 20
6239.470424488725
 30
0.0
 11
-7611.264916230013
 21
6239.470424488725
 31
0.0
  0
SOLID
  5
26C
330
267
100
AcDbEntity
  8
0
 62
0
100
AcDbTrace
 10
-7526.412724536008
 20
6239.053757822058
 30
0.0
 11
-7526.412724536008
 21
6239.887091155392
 31
0.0
 12
-7523.91272453601
 22
6239.470424488725
 32
0.0
 13
-7523.91272453601
 23
6239.470424488725
 33
0.0
  0
SOLID
  5
26D
330
267
100
AcDbEntity
  8
0
 62
0
100
AcDbTrace
 10
-7611.264916230013
 20
6239.887091155392
 30
0.0
 11
-7611.264916230013
 21
6239.053757822058
 31
0.0
 12
-7613.764916230014
 22
6239.470424488725
 32
0.0
 13
-7613.764916230014
 23
6239.470424488725
 33
0.0
  0
MTEXT
  5
26E
330
267
100
AcDbEntity
  8
0
 62
0
100
AcDbMText
 10
-7568.838820383011
 20
6241.55492169543
 30
0.0
 40
2.5
 41
0.0
 46
0.0
 71
5
  1
89,85
  0
POINT
  5
26F
330
267
100
AcDbEntity
  8
Defpoints
 62
0
100
AcDbPoint
 10
-7523.91272453601
 20
6208.484907772704
 30
0.0
  0
POINT
  5
270
330
267
100
AcDbEntity
  8
Defpoints
 62
0
100
AcDbPoint
 10
-7613.764916230014
 20
6208.484907772704
 30
0.0
  0
POINT
  5
271
330
267
100
AcDbEntity
  8
Defpoints
 62
0
100
AcDbPoint
 10
-7613.764916230014
 20
6239.470424488725
 30
0.0
  0
ENDBLK
  5
272
330
267
100
AcDbEntity
  8
0
100
AcDbBlockEnd
  0
BLOCK
  5
277
330
276
100
AcDbEntity
  8
0
100
AcDbBlockBegin
  2
*D3
 70
1
 10
0.0
 20
0.0
 30
0.0
  3
*D3
  1

  0
ARC
  5
278
330
276
100
AcDbEntity
  8
0
 62
0
370
-2
100
AcDbCircle
 10
-7597.830364255418
 20
6053.969213612231
 30
0.0
 40
8.187454007627194
100
AcDbArc
 50
81.9980333533515
 51
162.4363193624675
  0
SOLID
  5
279
330
276
100
AcDbEntity
  8
0
 62
0
100
AcDbTrace
 10
-7596.810929775442
 20
6061.678031619536
 30
0.0
 11
-7596.570295420381
 21
6062.475865907848
 31
0.0
 12
-7594.297109732973
 22
6061.355045698505
 32
0.0
 13
-7594.297109732973
 23
6061.355045698505
 33
0.0
  0
SOLID
  5
27A
330
276
100
AcDbEntity
  8
0
 62
0
100
AcDbTrace
 10
-7606.047918738049
 20
6056.503519251359
 30
0.0
 11
-7605.224354721305
 21
6056.376292073569
 31
0.0
 12
-7606.017818263045
 22
6053.969213612231
 32
0.0
 13
-7606.017818263045
 23
6053.969213612231
 33
0.0
  0
MTEXT
  5
27B
330
276
100
AcDbEntity
  8
0
 62
0
100
AcDbMText
 10
-7603.194959628897
 20
6062.482385590669
 30
0.0
 40
2.5
 41
0.0
 46
0.0
 71
5
  1
116%%d
 11
0.8460333803250598
 21
0.5331299272932938
 31
0.0
  0
POINT
  5
27C
330
276
100
AcDbEntity
  8
Defpoints
 62
0
100
AcDbPoint
 10
-7599.66604650576
 20
6061.948228200686
 30
0.0
  0
POINT
  5
27D
330
276
100
AcDbEntity
  8
Defpoints
 62
0
100
AcDbPoint
 10
-7597.830364255418
 20
6053.969213612231
 30
0.0
  0
POINT
  5
27E
330
276
100
AcDbEntity
  8
Defpoints
 62
0
100
AcDbPoint
 10
-7613.764916230014
 20
6053.969213612231
 30
0.0
  0
POINT
  5
27F
330
276
100
AcDbEntity
  8
Defpoints
 62
0
100
AcDbPoint
 10
-7597.830364255418
 20
6053.969213612231
 30
0.0
  0
POINT
  5
280
330
276
100
AcDbEntity
  8
Defpoints
 62
0
100
AcDbPoint
 10
-7523.91272453601
 20
6208.484907772704
 30
0.0
  0
ENDBLK
  5
281
330
276
100
AcDbEntity
  8
0
100
AcDbBlockEnd
  0
BLOCK
  5
286
330
285
100
AcDbEntity
  8
0
100
AcDbBlockBegin
  2
*D4
 70
1
 10
0.0
 20
0.0
 30
0.0
  3
*D4
  1

  0
ARC
  5
287
330
285
100
AcDbEntity
  8
0
 62
0
370
-2
100
AcDbCircle
 10
-7167.330034240578
 20
5998.493315686292
 30
0.0
 40
154.7203021801809
100
AcDbArc
 50
90.92580614863623
 51
108.4078261670679
  0
SOLID
  5
288
330
285
100
AcDbEntity
  8
0
 62
0
100
AcDbTrace
 10
-7169.826586360001
 20
6152.776767061133
 30
0.0
 11
-7169.833318939061
 21
6153.610073197452
 31
0.0
 12
-7167.330034240578
 22
6153.213617866475
 32
0.0
 13
-7167.330034240578
 23
6153.213617866475
 33
0.0
  0
SOLID
  5
289
330
285
100
AcDbEntity
  8
0
 62
0
100
AcDbTrace
 10
-7216.322165531163
 20
6145.691297896185
 30
0.0
 11
-7216.052637157607
 21
6144.902755633339
 31
0.0
 12
-7218.553028132918
 22
6144.488441644087
 32
0.0
 13
-7218.553028132918
 23
6144.488441644087
 33
0.0
  0
MTEXT
  5
28A
330
285
100
AcDbEntity
  8
0
 62
0
100
AcDbMText
 10
-7193.625276870713
 20
6152.865103523075
 30
0.0
 40
2.5
 41
0.0
 46
0.0
 71
5
  1
19%%d
 11
0.9858008873035023
 21
0.1679184641176413
 31
0.0
  0
POINT
  5
28B
330
285
100
AcDbEntity
  8
Defpoints
 62
0
100
AcDbPoint
 10
-7199.499818056224
 20
6149.832262808246
 30
0.0
  0
POINT
  5
28C
330
285
100
AcDbEntity
  8
Defpoints
 62
0
100
AcDbPoint
 10
-7167.330034240578
 20
6337.097034559792
 30
0.0
  0
POINT
  5
28D
330
285
100
AcDbEntity
  8
Defpoints
 62
0
100
AcDbPoint
 10
-7183.284983166927
 20
6043.967908269621
 30
0.0
  0
POINT
  5
28E
330
285
100
AcDbEntity
  8
Defpoints
 62
0
100
AcDbPoint
 10
-7235.985167047471
 20
6194.173302351238
 30
0.0
  0
POINT
  5
28F
330
285
100
AcDbEntity
  8
Defpoints
 62
0
100
AcDbPoint
 10
-7167.330034240578
 20
6043.967908269621
 30
0.0
  0
ENDBLK
  5
290
330
285
100
AcDbEntity
  8
0
100
AcDbBlockEnd
  0
BLOCK
  5
295
330
294
100
AcDbEntity
  8
0
100
AcDbBlockBegin
  2
*D5
 70
1
 10
0.0
 20
0.0
 30
0.0
  3
*D5
  1

  0
LINE
  5
296
330
294
100
AcDbEntity
  8
0
 62
0
370
-2
100
AcDbLine
 10
-7613.764916230014
 20
6337.722034559789
 30
0.0
 11
-7613.764916230014
 21
6432.997106129983
 31
0.0
  0
LINE
  5
297
330
294
100
AcDbEntity
  8
0
 62
0
370
-2
100
AcDbLine
 10
-7167.330034240578
 20
6337.722034559789
 30
0.0
 11
-7167.330034240578
 21
6432.997106129983
 31
0.0
  0
LINE
  5
298
330
294
100
AcDbEntity
  8
0
 62
0
370
-2
100
AcDbLine
 10
-7611.264916230013
 20
6431.747106129982
 30
0.0
 11
-7169.83003424058
 21
6431.747106129982
 31
0.0
  0
SOLID
  5
299
330
294
100
AcDbEntity
  8
0
 62
0
100
AcDbTrace
 10
-7611.264916230013
 20
6432.16377279665
 30
0.0
 11
-7611.264916230013
 21
6431.330439463315
 31
0.0
 12
-7613.764916230014
 22
6431.747106129982
 32
0.0
 13
-7613.764916230014
 23
6431.747106129982
 33
0.0
  0
SOLID
  5
29A
330
294
100
AcDbEntity
  8
0
 62
0
100
AcDbTrace
 10
-7169.83003424058
 20
6431.330439463315
 30
0.0
 11
-7169.83003424058
 21
6432.16377279665
 31
0.0
 12
-7167.330034240578
 22
6431.747106129982
 32
0.0
 13
-7167.330034240578
 23
6431.747106129982
 33
0.0
  0
MTEXT
  5
29B
330
294
100
AcDbEntity
  8
0
 62
0
100
AcDbMText
 10
-7390.547475235297
 20
6433.831603336688
 30
0.0
 40
2.5
 41
0.0
 46
0.0
 71
5
  1
446,43
  0
POINT
  5
29C
330
294
100
AcDbEntity
  8
Defpoints
 62
0
100
AcDbPoint
 10
-7613.764916230014
 20
6337.097034559792
 30
0.0
  0
POINT
  5
29D
330
294
100
AcDbEntity
  8
Defpoints
 62
0
100
AcDbPoint
 10
-7167.330034240578
 20
6337.097034559792
 30
0.0
  0
POINT
  5
29E
330
294
100
AcDbEntity
  8
Defpoints
 62
0
100
AcDbPoint
 10
-7167.330034240578
 20
6431.747106129982
 30
0.0
  0
ENDBLK
  5
29F
330
294
100
AcDbEntity
  8
0
100
AcDbBlockEnd
  0
BLOCK
  5
2A6
330
2A5
100
AcDbEntity
  8
0
100
AcDbBlockBegin
  2
*D6
 70
1
 10
0.0
 20
0.0
 30
0.0
  3
*D6
  1

  0
LINE
  5
2A7
330
2A5
100
AcDbEntity
  8
0
 62
0
370
-2
100
AcDbLine
 10
-7166.70503424058
 20
6337.097034559792
 30
0.0
 11
-7119.445670647284
 21
6337.097034559792
 31
0.0
  0
LINE
  5
2A8
330
2A5
100
AcDbEntity
  8
0
 62
0
370
-2
100
AcDbLine
 10
-7166.70503424058
 20
6232.818012566355
 30
0.0
 11
-7119.445670647284
 21
6232.818012566355
 31
0.0
  0
LINE
  5
2A9
330
2A5
100
AcDbEntity
  8
0
 62
0
370
-2
100
AcDbLine
 10
-7120.695670647283
 20
6334.597034559791
 30
0.0
 11
-7120.695670647283
 21
6235.318012566355
 31
0.0
  0
SOLID
  5
2AA
330
2A5
100
AcDbEntity
  8
0
 62
0
100
AcDbTrace
 10
-7120.279003980617
 20
6334.597034559791
 30
0.0
 11
-7121.112337313951
 21
6334.597034559791
 31
0.0
 12
-7120.695670647283
 22
6337.097034559792
 32
0.0
 13
-7120.695670647283
 23
6337.097034559792
 33
0.0
  0
SOLID
  5
2AB
330
2A5
100
AcDbEntity
  8
0
 62
0
100
AcDbTrace
 10
-7121.112337313951
 20
6235.318012566355
 30
0.0
 11
-7120.279003980617
 21
6235.318012566355
 31
0.0
 12
-7120.695670647283
 22
6232.818012566355
 32
0.0
 13
-7120.695670647283
 23
6232.818012566355
 33
0.0
  0
MTEXT
  5
2AC
330
2A5
100
AcDbEntity
  8
0
 62
0
100
AcDbMText
 10
-7122.780167853988
 20
6284.957523563073
 30
0.0
 40
2.5
 41
0.0
 46
0.0
 71
5
  1
104,28
 11
0.0
 21
1.0
 31
0.0
  0
POINT
  5
2AD
330
2A5
100
AcDbEntity
  8
Defpoints
 62
0
100
AcDbPoint
 10
-7167.330034240578
 20
6337.097034559792
 30
0.0
  0
POINT
  5
2AE
330
2A5
100
AcDbEntity
  8
Defpoints
 62
0
100
AcDbPoint
 10
-7167.330034240578
 20
6232.818012566355
 30
0.0
  0
POINT
  5
2AF
330
2A5
100
AcDbEntity
  8
Defpoints
 62
0
100
AcDbPoint
 10
-7120.695670647283
 20
6232.818012566355
 30
0.0
  0
ENDBLK
  5
2B0
330
2A5
100
AcDbEntity
  8
0
100
AcDbBlockEnd
  0
BLOCK
  5
2B3
330
2B2
100
AcDbEntity
  8
0
100
AcDbBlockBegin
  2
*D7
 70
1
 10
0.0
 20
0.0
 30
0.0
  3
*D7
  1

  0
LINE
  5
2B4
330
2B2
100
AcDbEntity
  8
0
 62
0
370
-2
100
AcDbLine
 10
-7183.284983166927
 20
6043.342908269622
 30
0.0
 11
-7183.284983166927
 21
6016.700290404294
 31
0.0
  0
LINE
  5
2B5
330
2B2
100
AcDbEntity
  8
0
 62
0
370
-2
100
AcDbLine
 10
-7167.330034240578
 20
6043.342908269622
 30
0.0
 11
-7167.330034240578
 21
6016.700290404294
 31
0.0
  0
LINE
  5
2B6
330
2B2
100
AcDbEntity
  8
0
 62
0
370
-2
100
AcDbLine
 10
-7180.784983166929
 20
6017.950290404295
 30
0.0
 11
-7169.83003424058
 21
6017.950290404295
 31
0.0
  0
SOLID
  5
2B7
330
2B2
100
AcDbEntity
  8
0
 62
0
100
AcDbTrace
 10
-7180.784983166929
 20
6018.366957070961
 30
0.0
 11
-7180.784983166929
 21
6017.533623737627
 31
0.0
 12
-7183.284983166927
 22
6017.950290404295
 32
0.0
 13
-7183.284983166927
 23
6017.950290404295
 33
0.0
  0
SOLID
  5
2B8
330
2B2
100
AcDbEntity
  8
0
 62
0
100
AcDbTrace
 10
-7169.83003424058
 20
6017.533623737627
 30
0.0
 11
-7169.83003424058
 21
6018.366957070961
 31
0.0
 12
-7167.330034240578
 22
6017.950290404295
 32
0.0
 13
-7167.330034240578
 23
6017.950290404295
 33
0.0
  0
MTEXT
  5
2B9
330
2B2
100
AcDbEntity
  8
0
 62
0
100
AcDbMText
 10
-7175.307508703753
 20
6020.034787610998
 30
0.0
 40
2.5
 41
0.0
 46
0.0
 71
5
  1
15,95
  0
POINT
  5
2BA
330
2B2
100
AcDbEntity
  8
Defpoints
 62
0
100
AcDbPoint
 10
-7183.284983166927
 20
6043.967908269621
 30
0.0
  0
POINT
  5
2BB
330
2B2
100
AcDbEntity
  8
Defpoints
 62
0
100
AcDbPoint
 10
-7167.330034240578
 20
6043.967908269621
 30
0.0
  0
POINT
  5
2BC
330
2B2
100
AcDbEntity
  8
Defpoints
 62
0
100
AcDbPoint
 10
-7167.330034240578
 20
6017.950290404295
 30
0.0
  0
ENDBLK
  5
2BD
330
2B2
100
AcDbEntity
  8
0
100
AcDbBlockEnd
  0
BLOCK
  5
2F4
330
2EA
100
AcDbEntity
  8
0
100
AcDbBlockBegin
  2
*D8
 70
1
 10
0.0
 20
0.0
 30
0.0
  3
*D8
  1

  0
LINE
  5
332
330
2EA
100
AcDbEntity
  8
0
 62
0
370
-2
100
AcDbLine
 10
701.560771821817
 20
558.8920808423345
 30
0.0
 11
701.560771821817
 21
590.5025975583558
 31
0.0
  0
LINE
  5
333
330
2EA
100
AcDbEntity
  8
0
 62
0
370
-2
100
AcDbLine
 10
611.7085801278126
 20
558.8920808423345
 30
0.0
 11
611.7085801278126
 21
590.5025975583558
 31
0.0
  0
LINE
  5
334
330
2EA
100
AcDbEntity
  8
0
 62
0
370
-2
100
AcDbLine
 10
699.060771821817
 20
589.2525975583557
 30
0.0
 11
614.2085801278126
 21
589.2525975583557
 31
0.0
  0
SOLID
  5
335
330
2EA
100
AcDbEntity
  8
0
 62
0
100
AcDbTrace
 10
699.060771821817
 20
588.8359308916891
 30
0.0
 11
699.060771821817
 21
589.6692642250224
 31
0.0
 12
701.560771821817
 22
589.2525975583557
 32
0.0
 13
701.560771821817
 23
589.2525975583557
 33
0.0
  0
SOLID
  5
336
330
2EA
100
AcDbEntity
  8
0
 62
0
100
AcDbTrace
 10
614.2085801278126
 20
589.6692642250224
 30
0.0
 11
614.2085801278126
 21
588.8359308916891
 31
0.0
 12
611.7085801278126
 22
589.2525975583557
 32
0.0
 13
611.7085801278126
 23
589.2525975583557
 33
0.0
  0
MTEXT
  5
337
330
2EA
100
AcDbEntity
  8
0
 62
0
100
AcDbMText
 10
656.6346759748149
 20
591.3370947650596
 30
0.0
 40
2.5
 41
0.0
 46
0.0
 71
5
  1
89,85
  0
POINT
  5
338
330
2EA
100
AcDbEntity
  8
Defpoints
 62
0
100
AcDbPoint
 10
701.560771821817
 20
558.2670808423345
 30
0.0
  0
POINT
  5
339
330
2EA
100
AcDbEntity
  8
Defpoints
 62
0
100
AcDbPoint
 10
611.7085801278126
 20
558.2670808423345
 30
0.0
  0
POINT
  5
33A
330
2EA
100
AcDbEntity
  8
Defpoints
 62
0
100
AcDbPoint
 10
611.7085801278126
 20
589.2525975583557
 30
0.0
  0
ENDBLK
  5
2F5
330
2EA
100
AcDbEntity
  8
0
100
AcDbBlockEnd
  0
BLOCK
  5
300
330
2F6
100
AcDbEntity
  8
0
100
AcDbBlockBegin
  2
*D9
 70
1
 10
0.0
 20
0.0
 30
0.0
  3
*D9
  1

  0
ARC
  5
33B
330
2F6
100
AcDbEntity
  8
0
 62
0
370
-2
100
AcDbCircle
 10
627.6431321024083
 20
403.7513866818617
 30
0.0
 40
8.187454007626105
100
AcDbArc
 50
81.99803335335412
 51
162.4363193624651
  0
SOLID
  5
33C
330
2F6
100
AcDbEntity
  8
0
 62
0
100
AcDbTrace
 10
628.662566582382
 20
411.4602046891643
 30
0.0
 11
628.9032009374444
 21
412.2580389774775
 31
0.0
 12
631.1763866248529
 22
411.1372187681345
 32
0.0
 13
631.1763866248529
 23
411.1372187681345
 33
0.0
  0
SOLID
  5
33D
330
2F6
100
AcDbEntity
  8
0
 62
0
100
AcDbTrace
 10
619.4255776197766
 20
406.2856923209896
 30
0.0
 11
620.2491416365211
 21
406.1584651432007
 31
0.0
 12
619.4556780947822
 22
403.7513866818617
 32
0.0
 13
619.4556780947822
 23
403.7513866818617
 33
0.0
  0
MTEXT
  5
33E
330
2F6
100
AcDbEntity
  8
0
 62
0
100
AcDbMText
 10
622.2785367289304
 20
412.264558660299
 30
0.0
 40
2.5
 41
0.0
 46
0.0
 71
5
  1
116%%d
 11
0.8460333803250536
 21
0.5331299272933036
 31
0.0
  0
POINT
  5
33F
330
2F6
100
AcDbEntity
  8
Defpoints
 62
0
100
AcDbPoint
 10
625.8074498520654
 20
411.7304012703161
 30
0.0
  0
POINT
  5
340
330
2F6
100
AcDbEntity
  8
Defpoints
 62
0
100
AcDbPoint
 10
627.6431321024083
 20
403.7513866818617
 30
0.0
  0
POINT
  5
341
330
2F6
100
AcDbEntity
  8
Defpoints
 62
0
100
AcDbPoint
 10
611.7085801278126
 20
403.7513866818617
 30
0.0
  0
POINT
  5
342
330
2F6
100
AcDbEntity
  8
Defpoints
 62
0
100
AcDbPoint
 10
627.6431321024083
 20
403.7513866818617
 30
0.0
  0
POINT
  5
343
330
2F6
100
AcDbEntity
  8
Defpoints
 62
0
100
AcDbPoint
 10
701.560771821817
 20
558.2670808423345
 30
0.0
  0
ENDBLK
  5
301
330
2F6
100
AcDbEntity
  8
0
100
AcDbBlockEnd
  0
BLOCK
  5
30C
330
302
100
AcDbEntity
  8
0
100
AcDbBlockBegin
  2
*D10
 70
1
 10
0.0
 20
0.0
 30
0.0
  3
*D10
  1

  0
ARC
  5
344
330
302
100
AcDbEntity
  8
0
 62
0
370
-2
100
AcDbCircle
 10
1058.143462117247
 20
348.275488755921
 30
0.0
 40
154.720302180184
100
AcDbArc
 50
90.92580614863625
 51
108.4078261670681
  0
SOLID
  5
345
330
302
100
AcDbEntity
  8
0
 62
0
100
AcDbTrace
 10
1055.646909997826
 20
502.5589401307654
 30
0.0
 11
1055.640177418766
 21
503.3922462670824
 31
0.0
 12
1058.143462117247
 22
502.995790936105
 32
0.0
 13
1058.143462117247
 23
502.995790936105
 33
0.0
  0
SOLID
  5
346
330
302
100
AcDbEntity
  8
0
 62
0
100
AcDbTrace
 10
1009.151330826662
 20
495.4734709658146
 30
0.0
 11
1009.42085920022
 21
494.6849287029705
 31
0.0
 12
1006.920468224909
 22
494.2706147137175
 32
0.0
 13
1006.920468224909
 23
494.2706147137175
 33
0.0
  0
MTEXT
  5
347
330
302
100
AcDbEntity
  8
0
 62
0
100
AcDbMText
 10
1031.848219487113
 20
502.6472765927064
 30
0.0
 40
2.5
 41
0.0
 46
0.0
 71
5
  1
19%%d
 11
0.9858008873035021
 21
0.1679184641176433
 31
0.0
  0
POINT
  5
348
330
302
100
AcDbEntity
  8
Defpoints
 62
0
100
AcDbPoint
 10
1025.973678301601
 20
499.6144358778765
 30
0.0
  0
POINT
  5
349
330
302
100
AcDbEntity
  8
Defpoints
 62
0
100
AcDbPoint
 10
1058.143462117247
 20
686.8792076294221
 30
0.0
  0
POINT
  5
34A
330
302
100
AcDbEntity
  8
Defpoints
 62
0
100
AcDbPoint
 10
1042.188513190898
 20
393.7500813392517
 30
0.0
  0
POINT
  5
34B
330
302
100
AcDbEntity
  8
Defpoints
 62
0
100
AcDbPoint
 10
989.4883293103549
 20
543.9554754208684
 30
0.0
  0
POINT
  5
34C
330
302
100
AcDbEntity
  8
Defpoints
 62
0
100
AcDbPoint
 10
1058.143462117247
 20
393.7500813392517
 30
0.0
  0
ENDBLK
  5
30D
330
302
100
AcDbEntity
  8
0
100
AcDbBlockEnd
  0
BLOCK
  5
318
330
30E
100
AcDbEntity
  8
0
100
AcDbBlockBegin
  2
*D11
 70
1
 10
0.0
 20
0.0
 30
0.0
  3
*D11
  1

  0
LINE
  5
34D
330
30E
100
AcDbEntity
  8
0
 62
0
370
-2
100
AcDbLine
 10
611.7085801278126
 20
687.5042076294221
 30
0.0
 11
611.7085801278126
 21
782.7792791996126
 31
0.0
  0
LINE
  5
34E
330
30E
100
AcDbEntity
  8
0
 62
0
370
-2
100
AcDbLine
 10
1058.143462117247
 20
687.5042076294221
 30
0.0
 11
1058.143462117247
 21
782.7792791996126
 31
0.0
  0
LINE
  5
34F
330
30E
100
AcDbEntity
  8
0
 62
0
370
-2
100
AcDbLine
 10
614.2085801278126
 20
781.5292791996125
 30
0.0
 11
1055.643462117247
 21
781.5292791996125
 31
0.0
  0
SOLID
  5
350
330
30E
100
AcDbEntity
  8
0
 62
0
100
AcDbTrace
 10
614.2085801278126
 20
781.9459458662792
 30
0.0
 11
614.2085801278126
 21
781.112612532946
 31
0.0
 12
611.7085801278126
 22
781.5292791996125
 32
0.0
 13
611.7085801278126
 23
781.5292791996125
 33
0.0
  0
SOLID
  5
351
330
30E
100
AcDbEntity
  8
0
 62
0
100
AcDbTrace
 10
1055.643462117247
 20
781.112612532946
 30
0.0
 11
1055.643462117247
 21
781.9459458662792
 31
0.0
 12
1058.143462117247
 22
781.5292791996125
 32
0.0
 13
1058.143462117247
 23
781.5292791996125
 33
0.0
  0
MTEXT
  5
352
330
30E
100
AcDbEntity
  8
0
 62
0
100
AcDbMText
 10
834.9260211225301
 20
783.6137764063164
 30
0.0
 40
2.5
 41
0.0
 46
0.0
 71
5
  1
446,43
  0
POINT
  5
353
330
30E
100
AcDbEntity
  8
Defpoints
 62
0
100
AcDbPoint
 10
611.7085801278126
 20
686.8792076294221
 30
0.0
  0
POINT
  5
354
330
30E
100
AcDbEntity
  8
Defpoints
 62
0
100
AcDbPoint
 10
1058.143462117247
 20
686.8792076294221
 30
0.0
  0
POINT
  5
355
330
30E
100
AcDbEntity
  8
Defpoints
 62
0
100
AcDbPoint
 10
1058.143462117247
 20
781.5292791996125
 30
0.0
  0
ENDBLK
  5
319
330
30E
100
AcDbEntity
  8
0
100
AcDbBlockEnd
  0
BLOCK
  5
324
330
31A
100
AcDbEntity
  8
0
100
AcDbBlockBegin
  2
*D12
 70
1
 10
0.0
 20
0.0
 30
0.0
  3
*D12
  1

  0
LINE
  5
356
330
31A
100
AcDbEntity
  8
0
 62
0
370
-2
100
AcDbLine
 10
1058.768462117247
 20
686.8792076294221
 30
0.0
 11
1106.027825710543
 21
686.8792076294221
 31
0.0
  0
LINE
  5
357
330
31A
100
AcDbEntity
  8
0
 62
0
370
-2
100
AcDbLine
 10
1058.768462117247
 20
582.6001856359853
 30
0.0
 11
1106.027825710543
 21
582.6001856359853
 31
0.0
  0
LINE
  5
358
330
31A
100
AcDbEntity
  8
0
 62
0
370
-2
100
AcDbLine
 10
1104.777825710543
 20
684.3792076294221
 30
0.0
 11
1104.777825710543
 21
585.1001856359853
 31
0.0
  0
SOLID
  5
359
330
31A
100
AcDbEntity
  8
0
 62
0
100
AcDbTrace
 10
1105.194492377209
 20
684.3792076294221
 30
0.0
 11
1104.361159043876
 21
684.3792076294221
 31
0.0
 12
1104.777825710543
 22
686.8792076294221
 32
0.0
 13
1104.777825710543
 23
686.8792076294221
 33
0.0
  0
SOLID
  5
35A
330
31A
100
AcDbEntity
  8
0
 62
0
100
AcDbTrace
 10
1104.361159043876
 20
585.1001856359853
 30
0.0
 11
1105.194492377209
 21
585.1001856359853
 31
0.0
 12
1104.777825710543
 22
582.6001856359853
 32
0.0
 13
1104.777825710543
 23
582.6001856359853
 33
0.0
  0
MTEXT
  5
35B
330
31A
100
AcDbEntity
  8
0
 62
0
100
AcDbMText
 10
1102.693328503839
 20
634.7396966327037
 30
0.0
 40
2.5
 41
0.0
 46
0.0
 71
5
  1
104,28
 11
0.0
 21
1.0
 31
0.0
  0
POINT
  5
35C
330
31A
100
AcDbEntity
  8
Defpoints
 62
0
100
AcDbPoint
 10
1058.143462117247
 20
686.8792076294221
 30
0.0
  0
POINT
  5
35D
330
31A
100
AcDbEntity
  8
Defpoints
 62
0
100
AcDbPoint
 10
1058.143462117247
 20
582.6001856359853
 30
0.0
  0
POINT
  5
35E
330
31A
100
AcDbEntity
  8
Defpoints
 62
0
100
AcDbPoint
 10
1104.777825710543
 20
582.6001856359853
 30
0.0
  0
ENDBLK
  5
325
330
31A
100
AcDbEntity
  8
0
100
AcDbBlockEnd
  0
BLOCK
  5
330
330
326
100
AcDbEntity
  8
0
100
AcDbBlockBegin
  2
*D13
 70
1
 10
0.0
 20
0.0
 30
0.0
  3
*D13
  1

  0
LINE
  5
35F
330
326
100
AcDbEntity
  8
0
 62
0
370
-2
100
AcDbLine
 10
1042.188513190898
 20
393.1250813392517
 30
0.0
 11
1042.188513190898
 21
366.4824634739253
 31
0.0
  0
LINE
  5
360
330
326
100
AcDbEntity
  8
0
 62
0
370
-2
100
AcDbLine
 10
1058.143462117247
 20
393.1250813392517
 30
0.0
 11
1058.143462117247
 21
366.4824634739253
 31
0.0
  0
LINE
  5
361
330
326
100
AcDbEntity
  8
0
 62
0
370
-2
100
AcDbLine
 10
1044.688513190898
 20
367.7324634739252
 30
0.0
 11
1055.643462117247
 21
367.7324634739252
 31
0.0
  0
SOLID
  5
362
330
326
100
AcDbEntity
  8
0
 62
0
100
AcDbTrace
 10
1044.688513190898
 20
368.1491301405919
 30
0.0
 11
1044.688513190898
 21
367.3157968072585
 31
0.0
 12
1042.188513190898
 22
367.7324634739252
 32
0.0
 13
1042.188513190898
 23
367.7324634739252
 33
0.0
  0
SOLID
  5
363
330
326
100
AcDbEntity
  8
0
 62
0
100
AcDbTrace
 10
1055.643462117247
 20
367.3157968072585
 30
0.0
 11
1055.643462117247
 21
368.1491301405919
 31
0.0
 12
1058.143462117247
 22
367.7324634739252
 32
0.0
 13
1058.143462117247
 23
367.7324634739252
 33
0.0
  0
MTEXT
  5
364
330
326
100
AcDbEntity
  8
0
 62
0
100
AcDbMText
 10
1050.165987654073
 20
369.8169606806292
 30
0.0
 40
2.5
 41
0.0
 46
0.0
 71
5
  1
15,95
  0
POINT
  5
365
330
326
100
AcDbEntity
  8
Defpoints
 62
0
100
AcDbPoint
 10
1042.188513190898
 20
393.7500813392517
 30
0.0
  0
POINT
  5
366
330
326
100
AcDbEntity
  8
Defpoints
 62
0
100
AcDbPoint
 10
1058.143462117247
 20
393.7500813392517
 30
0.0
  0
POINT
  5
367
330
326
100
AcDbEntity
  8
Defpoints
 62
0
100
AcDbPoint
 10
1058.143462117247
 20
367.7324634739252
 30
0.0
  0
ENDBLK
  5
331
330
326
100
AcDbEntity
  8
0
100
AcDbBlockEnd
  0
BLOCK
  5
3B6
330
3B5
100
AcDbEntity
  8
0
100
AcDbBlockBegin
  2
*D15
 70
1
 10
0.0
 20
0.0
 30
0.0
  3
*D15
  1

  0
LINE
  5
3B7
330
3B5
100
AcDbEntity
  8
0
 62
0
370
-2
100
AcDbLine
 10
-7523.91272453601
 20
6209.109907772704
 30
0.0
 11
-7523.91272453601
 21
6240.720424488725
 31
0.0
  0
LINE
  5
3B8
330
3B5
100
AcDbEntity
  8
0
 62
0
370
-2
100
AcDbLine
 10
-7613.764916230014
 20
6209.109907772704
 30
0.0
 11
-7613.764916230014
 21
6240.720424488725
 31
0.0
  0
LINE
  5
3B9
330
3B5
100
AcDbEntity
  8
0
 62
0
370
-2
100
AcDbLine
 10
-7526.412724536008
 20
6239.470424488725
 30
0.0
 11
-7611.264916230013
 21
6239.470424488725
 31
0.0
  0
SOLID
  5
3BA
330
3B5
100
AcDbEntity
  8
0
 62
0
100
AcDbTrace
 10
-7526.412724536008
 20
6239.053757822058
 30
0.0
 11
-7526.412724536008
 21
6239.887091155392
 31
0.0
 12
-7523.91272453601
 22
6239.470424488725
 32
0.0
 13
-7523.91272453601
 23
6239.470424488725
 33
0.0
  0
SOLID
  5
3BB
330
3B5
100
AcDbEntity
  8
0
 62
0
100
AcDbTrace
 10
-7611.264916230013
 20
6239.887091155392
 30
0.0
 11
-7611.264916230013
 21
6239.053757822058
 31
0.0
 12
-7613.764916230014
 22
6239.470424488725
 32
0.0
 13
-7613.764916230014
 23
6239.470424488725
 33
0.0
  0
MTEXT
  5
3BC
330
3B5
100
AcDbEntity
  8
0
 62
0
100
AcDbMText
 10
-7568.838820383011
 20
6241.55492169543
 30
0.0
 40
2.5
 41
0.0
 46
0.0
 71
5
  1
89,85
  0
POINT
  5
3BD
330
3B5
100
AcDbEntity
  8
Defpoints
 62
0
100
AcDbPoint
 10
-7523.91272453601
 20
6208.484907772704
 30
0.0
  0
POINT
  5
3BE
330
3B5
100
AcDbEntity
  8
Defpoints
 62
0
100
AcDbPoint
 10
-7613.764916230014
 20
6208.484907772704
 30
0.0
  0
POINT
  5
3BF
330
3B5
100
AcDbEntity
  8
Defpoints
 62
0
100
AcDbPoint
 10
-7613.764916230014
 20
6239.470424488725
 30
0.0
  0
ENDBLK
  5
3C0
330
3B5
100
AcDbEntity
  8
0
100
AcDbBlockEnd
  0
BLOCK
  5
3C5
330
3C4
100
AcDbEntity
  8
0
100
AcDbBlockBegin
  2
*D16
 70
1
 10
0.0
 20
0.0
 30
0.0
  3
*D16
  1

  0
ARC
  5
3C6
330
3C4
100
AcDbEntity
  8
0
 62
0
370
-2
100
AcDbCircle
 10
-7597.830364255418
 20
6053.969213612231
 30
0.0
 40
8.187454007627194
100
AcDbArc
 50
81.9980333533515
 51
162.4363193624675
  0
SOLID
  5
3C7
330
3C4
100
AcDbEntity
  8
0
 62
0
100
AcDbTrace
 10
-7596.810929775442
 20
6061.678031619536
 30
0.0
 11
-7596.570295420381
 21
6062.475865907848
 31
0.0
 12
-7594.297109732973
 22
6061.355045698505
 32
0.0
 13
-7594.297109732973
 23
6061.355045698505
 33
0.0
  0
SOLID
  5
3C8
330
3C4
100
AcDbEntity
  8
0
 62
0
100
AcDbTrace
 10
-7606.047918738049
 20
6056.503519251359
 30
0.0
 11
-7605.224354721305
 21
6056.376292073569
 31
0.0
 12
-7606.017818263045
 22
6053.969213612231
 32
0.0
 13
-7606.017818263045
 23
6053.969213612231
 33
0.0
  0
MTEXT
  5
3C9
330
3C4
100
AcDbEntity
  8
0
 62
0
100
AcDbMText
 10
-7603.194959628897
 20
6062.482385590669
 30
0.0
 40
2.5
 41
0.0
 46
0.0
 71
5
  1
116%%d
 11
0.8460333803250598
 21
0.5331299272932938
 31
0.0
  0
POINT
  5
3CA
330
3C4
100
AcDbEntity
  8
Defpoints
 62
0
100
AcDbPoint
 10
-7599.66604650576
 20
6061.948228200686
 30
0.0
  0
POINT
  5
3CB
330
3C4
100
AcDbEntity
  8
Defpoints
 62
0
100
AcDbPoint
 10
-7597.830364255418
 20
6053.969213612231
 30
0.0
  0
POINT
  5
3CC
330
3C4
100
AcDbEntity
  8
Defpoints
 62
0
100
AcDbPoint
 10
-7613.764916230014
 20
6053.969213612231
 30
0.0
  0
POINT
  5
3CD
330
3C4
100
AcDbEntity
  8
Defpoints
 62
0
100
AcDbPoint
 10
-7597.830364255418
 20
6053.969213612231
 30
0.0
  0
POINT
  5
3CE
330
3C4
100
AcDbEntity
  8
Defpoints
 62
0
100
AcDbPoint
 10
-7523.91272453601
 20
6208.484907772704
 30
0.0
  0
ENDBLK
  5
3CF
330
3C4
100
AcDbEntity
  8
0
100
AcDbBlockEnd
  0
BLOCK
  5
3D4
330
3D3
100
AcDbEntity
  8
0
100
AcDbBlockBegin
  2
*D17
 70
1
 10
0.0
 20
0.0
 30
0.0
  3
*D17
  1

  0
ARC
  5
3D5
330
3D3
100
AcDbEntity
  8
0
 62
0
370
-2
100
AcDbCircle
 10
-7167.330034240578
 20
5998.493315686292
 30
0.0
 40
154.7203021801809
100
AcDbArc
 50
90.92580614863623
 51
108.4078261670679
  0
SOLID
  5
3D6
330
3D3
100
AcDbEntity
  8
0
 62
0
100
AcDbTrace
 10
-7169.826586360001
 20
6152.776767061133
 30
0.0
 11
-7169.833318939061
 21
6153.610073197452
 31
0.0
 12
-7167.330034240578
 22
6153.213617866475
 32
0.0
 13
-7167.330034240578
 23
6153.213617866475
 33
0.0
  0
SOLID
  5
3D7
330
3D3
100
AcDbEntity
  8
0
 62
0
100
AcDbTrace
 10
-7216.322165531163
 20
6145.691297896185
 30
0.0
 11
-7216.052637157607
 21
6144.902755633339
 31
0.0
 12
-7218.553028132918
 22
6144.488441644087
 32
0.0
 13
-7218.553028132918
 23
6144.488441644087
 33
0.0
  0
MTEXT
  5
3D8
330
3D3
100
AcDbEntity
  8
0
 62
0
100
AcDbMText
 10
-7193.625276870713
 20
6152.865103523075
 30
0.0
 40
2.5
 41
0.0
 46
0.0
 71
5
  1
19%%d
 11
0.9858008873035023
 21
0.1679184641176413
 31
0.0
  0
POINT
  5
3D9
330
3D3
100
AcDbEntity
  8
Defpoints
 62
0
100
AcDbPoint
 10
-7199.499818056224
 20
6149.832262808246
 30
0.0
  0
POINT
  5
3DA
330
3D3
100
AcDbEntity
  8
Defpoints
 62
0
100
AcDbPoint
 10
-7167.330034240578
 20
6337.097034559792
 30
0.0
  0
POINT
  5
3DB
330
3D3
100
AcDbEntity
  8
Defpoints
 62
0
100
AcDbPoint
 10
-7183.284983166927
 20
6043.967908269621
 30
0.0
  0
POINT
  5
3DC
330
3D3
100
AcDbEntity
  8
Defpoints
 62
0
100
AcDbPoint
 10
-7235.985167047471
 20
6194.173302351238
 30
0.0
  0
POINT
  5
3DD
330
3D3
100
AcDbEntity
  8
Defpoints
 62
0
100
AcDbPoint
 10
-7167.330034240578
 20
6043.967908269621
 30
0.0
  0
ENDBLK
  5
3DE
330
3D3
100
AcDbEntity
  8
0
100
AcDbBlockEnd
  0
BLOCK
  5
3E3
330
3E2
100
AcDbEntity
  8
0
100
AcDbBlockBegin
  2
*D18
 70
1
 10
0.0
 20
0.0
 30
0.0
  3
*D18
  1

  0
LINE
  5
3E4
330
3E2
100
AcDbEntity
  8
0
 62
0
370
-2
100
AcDbLine
 10
-7613.764916230014
 20
6337.722034559789
 30
0.0
 11
-7613.764916230014
 21
6432.997106129983
 31
0.0
  0
LINE
  5
3E5
330
3E2
100
AcDbEntity
  8
0
 62
0
370
-2
100
AcDbLine
 10
-7167.330034240578
 20
6337.722034559789
 30
0.0
 11
-7167.330034240578
 21
6432.997106129983
 31
0.0
  0
LINE
  5
3E6
330
3E2
100
AcDbEntity
  8
0
 62
0
370
-2
100
AcDbLine
 10
-7611.264916230013
 20
6431.747106129982
 30
0.0
 11
-7169.83003424058
 21
6431.747106129982
 31
0.0
  0
SOLID
  5
3E7
330
3E2
100
AcDbEntity
  8
0
 62
0
100
AcDbTrace
 10
-7611.264916230013
 20
6432.16377279665
 30
0.0
 11
-7611.264916230013
 21
6431.330439463315
 31
0.0
 12
-7613.764916230014
 22
6431.747106129982
 32
0.0
 13
-7613.764916230014
 23
6431.747106129982
 33
0.0
  0
SOLID
  5
3E8
330
3E2
100
AcDbEntity
  8
0
 62
0
100
AcDbTrace
 10
-7169.83003424058
 20
6431.330439463315
 30
0.0
 11
-7169.83003424058
 21
6432.16377279665
 31
0.0
 12
-7167.330034240578
 22
6431.747106129982
 32
0.0
 13
-7167.330034240578
 23
6431.747106129982
 33
0.0
  0
MTEXT
  5
3E9
330
3E2
100
AcDbEntity
  8
0
 62
0
100
AcDbMText
 10
-7390.547475235297
 20
6433.831603336688
 30
0.0
 40
2.5
 41
0.0
 46
0.0
 71
5
  1
446,43
  0
POINT
  5
3EA
330
3E2
100
AcDbEntity
  8
Defpoints
 62
0
100
AcDbPoint
 10
-7613.764916230014
 20
6337.097034559792
 30
0.0
  0
POINT
  5
3EB
330
3E2
100
AcDbEntity
  8
Defpoints
 62
0
100
AcDbPoint
 10
-7167.330034240578
 20
6337.097034559792
 30
0.0
  0
POINT
  5
3EC
330
3E2
100
AcDbEntity
  8
Defpoints
 62
0
100
AcDbPoint
 10
-7167.330034240578
 20
6431.747106129982
 30
0.0
  0
ENDBLK
  5
3ED
330
3E2
100
AcDbEntity
  8
0
100
AcDbBlockEnd
  0
BLOCK
  5
3F4
330
3F3
100
AcDbEntity
  8
0
100
AcDbBlockBegin
  2
*D19
 70
1
 10
0.0
 20
0.0
 30
0.0
  3
*D19
  1

  0
LINE
  5
3F5
330
3F3
100
AcDbEntity
  8
0
 62
0
370
-2
100
AcDbLine
 10
-7166.70503424058
 20
6337.097034559792
 30
0.0
 11
-7119.445670647284
 21
6337.097034559792
 31
0.0
  0
LINE
  5
3F6
330
3F3
100
AcDbEntity
  8
0
 62
0
370
-2
100
AcDbLine
 10
-7166.70503424058
 20
6232.818012566355
 30
0.0
 11
-7119.445670647284
 21
6232.818012566355
 31
0.0
  0
LINE
  5
3F7
330
3F3
100
AcDbEntity
  8
0
 62
0
370
-2
100
AcDbLine
 10
-7120.695670647283
 20
6334.597034559791
 30
0.0
 11
-7120.695670647283
 21
6235.318012566355
 31
0.0
  0
SOLID
  5
3F8
330
3F3
100
AcDbEntity
  8
0
 62
0
100
AcDbTrace
 10
-7120.279003980617
 20
6334.597034559791
 30
0.0
 11
-7121.112337313951
 21
6334.597034559791
 31
0.0
 12
-7120.695670647283
 22
6337.097034559792
 32
0.0
 13
-7120.695670647283
 23
6337.097034559792
 33
0.0
  0
SOLID
  5
3F9
330
3F3
100
AcDbEntity
  8
0
 62
0
100
AcDbTrace
 10
-7121.112337313951
 20
6235.318012566355
 30
0.0
 11
-7120.279003980617
 21
6235.318012566355
 31
0.0
 12
-7120.695670647283
 22
6232.818012566355
 32
0.0
 13
-7120.695670647283
 23
6232.818012566355
 33
0.0
  0
MTEXT
  5
3FA
330
3F3
100
AcDbEntity
  8
0
 62
0
100
AcDbMText
 10
-7122.780167853988
 20
6284.957523563073
 30
0.0
 40
2.5
 41
0.0
 46
0.0
 71
5
  1
104,28
 11
0.0
 21
1.0
 31
0.0
  0
POINT
  5
3FB
330
3F3
100
AcDbEntity
  8
Defpoints
 62
0
100
AcDbPoint
 10
-7167.330034240578
 20
6337.097034559792
 30
0.0
  0
POINT
  5
3FC
330
3F3
100
AcDbEntity
  8
Defpoints
 62
0
100
AcDbPoint
 10
-7167.330034240578
 20
6232.818012566355
 30
0.0
  0
POINT
  5
3FD
330
3F3
100
AcDbEntity
  8
Defpoints
 62
0
100
AcDbPoint
 10
-7120.695670647283
 20
6232.818012566355
 30
0.0
  0
ENDBLK
  5
3FE
330
3F3
100
AcDbEntity
  8
0
100
AcDbBlockEnd
  0
BLOCK
  5
401
330
400
100
AcDbEntity
  8
0
100
AcDbBlockBegin
  2
*D20
 70
1
 10
0.0
 20
0.0
 30
0.0
  3
*D20
  1

  0
LINE
  5
402
330
400
100
AcDbEntity
  8
0
 62
0
370
-2
100
AcDbLine
 10
-7183.284983166927
 20
6043.342908269622
 30
0.0
 11
-7183.284983166927
 21
6016.700290404294
 31
0.0
  0
LINE
  5
403
330
400
100
AcDbEntity
  8
0
 62
0
370
-2
100
AcDbLine
 10
-7167.330034240578
 20
6043.342908269622
 30
0.0
 11
-7167.330034240578
 21
6016.700290404294
 31
0.0
  0
LINE
  5
404
330
400
100
AcDbEntity
  8
0
 62
0
370
-2
100
AcDbLine
 10
-7180.784983166929
 20
6017.950290404295
 30
0.0
 11
-7169.83003424058
 21
6017.950290404295
 31
0.0
  0
SOLID
  5
405
330
400
100
AcDbEntity
  8
0
 62
0
100
AcDbTrace
 10
-7180.784983166929
 20
6018.366957070961
 30
0.0
 11
-7180.784983166929
 21
6017.533623737627
 31
0.0
 12
-7183.284983166927
 22
6017.950290404295
 32
0.0
 13
-7183.284983166927
 23
6017.950290404295
 33
0.0
  0
SOLID
  5
406
330
400
100
AcDbEntity
  8
0
 62
0
100
AcDbTrace
 10
-7169.83003424058
 20
6017.533623737627
 30
0.0
 11
-7169.83003424058
 21
6018.366957070961
 31
0.0
 12
-7167.330034240578
 22
6017.950290404295
 32
0.0
 13
-7167.330034240578
 23
6017.950290404295
 33
0.0
  0
MTEXT
  5
407
330
400
100
AcDbEntity
  8
0
 62
0
100
AcDbMText
 10
-7175.307508703753
 20
6020.034787610998
 30
0.0
 40
2.5
 41
0.0
 46
0.0
 71
5
  1
15,95
  0
POINT
  5
408
330
400
100
AcDbEntity
  8
Defpoints
 62
0
100
AcDbPoint
 10
-7183.284983166927
 20
6043.967908269621
 30
0.0
  0
POINT
  5
409
330
400
100
AcDbEntity
  8
Defpoints
 62
0
100
AcDbPoint
 10
-7167.330034240578
 20
6043.967908269621
 30
0.0
  0
POINT
  5
40A
330
400
100
AcDbEntity
  8
Defpoints
 62
0
100
AcDbPoint
 10
-7167.330034240578
 20
6017.950290404295
 30
0.0
  0
ENDBLK
  5
40B
330
400
100
AcDbEntity
  8
0
100
AcDbBlockEnd
  0
BLOCK
  5
463
330
462
100
AcDbEntity
  8
0
100
AcDbBlockBegin
  2
*D22
 70
1
 10
0.0
 20
0.0
 30
0.0
  3
*D22
  1

  0
LINE
  5
464
330
462
100
AcDbEntity
  8
0
 62
0
370
-2
100
AcDbLine
 10
-7523.91272453601
 20
6209.109907772704
 30
0.0
 11
-7523.91272453601
 21
6240.720424488725
 31
0.0
  0
LINE
  5
465
330
462
100
AcDbEntity
  8
0
 62
0
370
-2
100
AcDbLine
 10
-7613.764916230014
 20
6209.109907772704
 30
0.0
 11
-7613.764916230014
 21
6240.720424488725
 31
0.0
  0
LINE
  5
466
330
462
100
AcDbEntity
  8
0
 62
0
370
-2
100
AcDbLine
 10
-7526.412724536008
 20
6239.470424488725
 30
0.0
 11
-7611.264916230013
 21
6239.470424488725
 31
0.0
  0
SOLID
  5
467
330
462
100
AcDbEntity
  8
0
 62
0
100
AcDbTrace
 10
-7526.412724536008
 20
6239.053757822058
 30
0.0
 11
-7526.412724536008
 21
6239.887091155392
 31
0.0
 12
-7523.91272453601
 22
6239.470424488725
 32
0.0
 13
-7523.91272453601
 23
6239.470424488725
 33
0.0
  0
SOLID
  5
468
330
462
100
AcDbEntity
  8
0
 62
0
100
AcDbTrace
 10
-7611.264916230013
 20
6239.887091155392
 30
0.0
 11
-7611.264916230013
 21
6239.053757822058
 31
0.0
 12
-7613.764916230014
 22
6239.470424488725
 32
0.0
 13
-7613.764916230014
 23
6239.470424488725
 33
0.0
  0
MTEXT
  5
469
330
462
100
AcDbEntity
  8
0
 62
0
100
AcDbMText
 10
-7568.838820383011
 20
6241.55492169543
 30
0.0
 40
2.5
 41
0.0
 46
0.0
 71
5
  1
89,85
  0
POINT
  5
46A
330
462
100
AcDbEntity
  8
Defpoints
 62
0
100
AcDbPoint
 10
-7523.91272453601
 20
6208.484907772704
 30
0.0
  0
POINT
  5
46B
330
462
100
AcDbEntity
  8
Defpoints
 62
0
100
AcDbPoint
 10
-7613.764916230014
 20
6208.484907772704
 30
0.0
  0
POINT
  5
46C
330
462
100
AcDbEntity
  8
Defpoints
 62
0
100
AcDbPoint
 10
-7613.764916230014
 20
6239.470424488725
 30
0.0
  0
ENDBLK
  5
46D
330
462
100
AcDbEntity
  8
0
100
AcDbBlockEnd
  0
BLOCK
  5
472
330
471
100
AcDbEntity
  8
0
100
AcDbBlockBegin
  2
*D23
 70
1
 10
0.0
 20
0.0
 30
0.0
  3
*D23
  1

  0
ARC
  5
473
330
471
100
AcDbEntity
  8
0
 62
0
370
-2
100
AcDbCircle
 10
-7597.830364255418
 20
6053.969213612231
 30
0.0
 40
8.187454007627194
100
AcDbArc
 50
81.9980333533515
 51
162.4363193624675
  0
SOLID
  5
474
330
471
100
AcDbEntity
  8
0
 62
0
100
AcDbTrace
 10
-7596.810929775442
 20
6061.678031619536
 30
0.0
 11
-7596.570295420381
 21
6062.475865907848
 31
0.0
 12
-7594.297109732973
 22
6061.355045698505
 32
0.0
 13
-7594.297109732973
 23
6061.355045698505
 33
0.0
  0
SOLID
  5
475
330
471
100
AcDbEntity
  8
0
 62
0
100
AcDbTrace
 10
-7606.047918738049
 20
6056.503519251359
 30
0.0
 11
-7605.224354721305
 21
6056.376292073569
 31
0.0
 12
-7606.017818263045
 22
6053.969213612231
 32
0.0
 13
-7606.017818263045
 23
6053.969213612231
 33
0.0
  0
MTEXT
  5
476
330
471
100
AcDbEntity
  8
0
 62
0
100
AcDbMText
 10
-7603.194959628897
 20
6062.482385590669
 30
0.0
 40
2.5
 41
0.0
 46
0.0
 71
5
  1
116%%d
 11
0.8460333803250598
 21
0.5331299272932938
 31
0.0
  0
POINT
  5
477
330
471
100
AcDbEntity
  8
Defpoints
 62
0
100
AcDbPoint
 10
-7599.66604650576
 20
6061.948228200686
 30
0.0
  0
POINT
  5
478
330
471
100
AcDbEntity
  8
Defpoints
 62
0
100
AcDbPoint
 10
-7597.830364255418
 20
6053.969213612231
 30
0.0
  0
POINT
  5
479
330
471
100
AcDbEntity
  8
Defpoints
 62
0
100
AcDbPoint
 10
-7613.764916230014
 20
6053.969213612231
 30
0.0
  0
POINT
  5
47A
330
471
100
AcDbEntity
  8
Defpoints
 62
0
100
AcDbPoint
 10
-7597.830364255418
 20
6053.969213612231
 30
0.0
  0
POINT
  5
47B
330
471
100
AcDbEntity
  8
Defpoints
 62
0
100
AcDbPoint
 10
-7523.91272453601
 20
6208.484907772704
 30
0.0
  0
ENDBLK
  5
47C
330
471
100
AcDbEntity
  8
0
100
AcDbBlockEnd
  0
BLOCK
  5
481
330
480
100
AcDbEntity
  8
0
100
AcDbBlockBegin
  2
*D24
 70
1
 10
0.0
 20
0.0
 30
0.0
  3
*D24
  1

  0
ARC
  5
482
330
480
100
AcDbEntity
  8
0
 62
0
370
-2
100
AcDbCircle
 10
-7167.330034240578
 20
5998.493315686292
 30
0.0
 40
154.7203021801809
100
AcDbArc
 50
90.92580614863623
 51
108.4078261670679
  0
SOLID
  5
483
330
480
100
AcDbEntity
  8
0
 62
0
100
AcDbTrace
 10
-7169.826586360001
 20
6152.776767061133
 30
0.0
 11
-7169.833318939061
 21
6153.610073197452
 31
0.0
 12
-7167.330034240578
 22
6153.213617866475
 32
0.0
 13
-7167.330034240578
 23
6153.213617866475
 33
0.0
  0
SOLID
  5
484
330
480
100
AcDbEntity
  8
0
 62
0
100
AcDbTrace
 10
-7216.322165531163
 20
6145.691297896185
 30
0.0
 11
-7216.052637157607
 21
6144.902755633339
 31
0.0
 12
-7218.553028132918
 22
6144.488441644087
 32
0.0
 13
-7218.553028132918
 23
6144.488441644087
 33
0.0
  0
MTEXT
  5
485
330
480
100
AcDbEntity
  8
0
 62
0
100
AcDbMText
 10
-7193.625276870713
 20
6152.865103523075
 30
0.0
 40
2.5
 41
0.0
 46
0.0
 71
5
  1
19%%d
 11
0.9858008873035023
 21
0.1679184641176413
 31
0.0
  0
POINT
  5
486
330
480
100
AcDbEntity
  8
Defpoints
 62
0
100
AcDbPoint
 10
-7199.499818056224
 20
6149.832262808246
 30
0.0
  0
POINT
  5
487
330
480
100
AcDbEntity
  8
Defpoints
 62
0
100
AcDbPoint
 10
-7167.330034240578
 20
6337.097034559792
 30
0.0
  0
POINT
  5
488
330
480
100
AcDbEntity
  8
Defpoints
 62
0
100
AcDbPoint
 10
-7183.284983166927
 20
6043.967908269621
 30
0.0
  0
POINT
  5
489
330
480
100
AcDbEntity
  8
Defpoints
 62
0
100
AcDbPoint
 10
-7235.985167047471
 20
6194.173302351238
 30
0.0
  0
POINT
  5
48A
330
480
100
AcDbEntity
  8
Defpoints
 62
0
100
AcDbPoint
 10
-7167.330034240578
 20
6043.967908269621
 30
0.0
  0
ENDBLK
  5
48B
330
480
100
AcDbEntity
  8
0
100
AcDbBlockEnd
  0
BLOCK
  5
490
330
48F
100
AcDbEntity
  8
0
100
AcDbBlockBegin
  2
*D25
 70
1
 10
0.0
 20
0.0
 30
0.0
  3
*D25
  1

  0
LINE
  5
491
330
48F
100
AcDbEntity
  8
0
 62
0
370
-2
100
AcDbLine
 10
-7613.764916230014
 20
6337.722034559789
 30
0.0
 11
-7613.764916230014
 21
6432.997106129983
 31
0.0
  0
LINE
  5
492
330
48F
100
AcDbEntity
  8
0
 62
0
370
-2
100
AcDbLine
 10
-7167.330034240578
 20
6337.722034559789
 30
0.0
 11
-7167.330034240578
 21
6432.997106129983
 31
0.0
  0
LINE
  5
493
330
48F
100
AcDbEntity
  8
0
 62
0
370
-2
100
AcDbLine
 10
-7611.264916230013
 20
6431.747106129982
 30
0.0
 11
-7169.83003424058
 21
6431.747106129982
 31
0.0
  0
SOLID
  5
494
330
48F
100
AcDbEntity
  8
0
 62
0
100
AcDbTrace
 10
-7611.264916230013
 20
6432.16377279665
 30
0.0
 11
-7611.264916230013
 21
6431.330439463315
 31
0.0
 12
-7613.764916230014
 22
6431.747106129982
 32
0.0
 13
-7613.764916230014
 23
6431.747106129982
 33
0.0
  0
SOLID
  5
495
330
48F
100
AcDbEntity
  8
0
 62
0
100
AcDbTrace
 10
-7169.83003424058
 20
6431.330439463315
 30
0.0
 11
-7169.83003424058
 21
6432.16377279665
 31
0.0
 12
-7167.330034240578
 22
6431.747106129982
 32
0.0
 13
-7167.330034240578
 23
6431.747106129982
 33
0.0
  0
MTEXT
  5
496
330
48F
100
AcDbEntity
  8
0
 62
0
100
AcDbMText
 10
-7390.547475235297
 20
6433.831603336688
 30
0.0
 40
2.5
 41
0.0
 46
0.0
 71
5
  1
446,43
  0
POINT
  5
497
330
48F
100
AcDbEntity
  8
Defpoints
 62
0
100
AcDbPoint
 10
-7613.764916230014
 20
6337.097034559792
 30
0.0
  0
POINT
  5
498
330
48F
100
AcDbEntity
  8
Defpoints
 62
0
100
AcDbPoint
 10
-7167.330034240578
 20
6337.097034559792
 30
0.0
  0
POINT
  5
499
330
48F
100
AcDbEntity
  8
Defpoints
 62
0
100
AcDbPoint
 10
-7167.330034240578
 20
6431.747106129982
 30
0.0
  0
ENDBLK
  5
49A
330
48F
100
AcDbEntity
  8
0
100
AcDbBlockEnd
  0
BLOCK
  5
4A1
330
4A0
100
AcDbEntity
  8
0
100
AcDbBlockBegin
  2
*D26
 70
1
 10
0.0
 20
0.0
 30
0.0
  3
*D26
  1

  0
LINE
  5
4A2
330
4A0
100
AcDbEntity
  8
0
 62
0
370
-2
100
AcDbLine
 10
-7166.70503424058
 20
6337.097034559792
 30
0.0
 11
-7119.445670647284
 21
6337.097034559792
 31
0.0
  0
LINE
  5
4A3
330
4A0
100
AcDbEntity
  8
0
 62
0
370
-2
100
AcDbLine
 10
-7166.70503424058
 20
6232.818012566355
 30
0.0
 11
-7119.445670647284
 21
6232.818012566355
 31
0.0
  0
LINE
  5
4A4
330
4A0
100
AcDbEntity
  8
0
 62
0
370
-2
100
AcDbLine
 10
-7120.695670647283
 20
6334.597034559791
 30
0.0
 11
-7120.695670647283
 21
6235.318012566355
 31
0.0
  0
SOLID
  5
4A5
330
4A0
100
AcDbEntity
  8
0
 62
0
100
AcDbTrace
 10
-7120.279003980617
 20
6334.597034559791
 30
0.0
 11
-7121.112337313951
 21
6334.597034559791
 31
0.0
 12
-7120.695670647283
 22
6337.097034559792
 32
0.0
 13
-7120.695670647283
 23
6337.097034559792
 33
0.0
  0
SOLID
  5
4A6
330
4A0
100
AcDbEntity
  8
0
 62
0
100
AcDbTrace
 10
-7121.112337313951
 20
6235.318012566355
 30
0.0
 11
-7120.279003980617
 21
6235.318012566355
 31
0.0
 12
-7120.695670647283
 22
6232.818012566355
 32
0.0
 13
-7120.695670647283
 23
6232.818012566355
 33
0.0
  0
MTEXT
  5
4A7
330
4A0
100
AcDbEntity
  8
0
 62
0
100
AcDbMText
 10
-7122.780167853988
 20
6284.957523563073
 30
0.0
 40
2.5
 41
0.0
 46
0.0
 71
5
  1
104,28
 11
0.0
 21
1.0
 31
0.0
  0
POINT
  5
4A8
330
4A0
100
AcDbEntity
  8
Defpoints
 62
0
100
AcDbPoint
 10
-7167.330034240578
 20
6337.097034559792
 30
0.0
  0
POINT
  5
4A9
330
4A0
100
AcDbEntity
  8
Defpoints
 62
0
100
AcDbPoint
 10
-7167.330034240578
 20
6232.818012566355
 30
0.0
  0
POINT
  5
4AA
330
4A0
100
AcDbEntity
  8
Defpoints
 62
0
100
AcDbPoint
 10
-7120.695670647283
 20
6232.818012566355
 30
0.0
  0
ENDBLK
  5
4AB
330
4A0
100
AcDbEntity
  8
0
100
AcDbBlockEnd
  0
BLOCK
  5
4AE
330
4AD
100
AcDbEntity
  8
0
100
AcDbBlockBegin
  2
*D27
 70
1
 10
0.0
 20
0.0
 30
0.0
  3
*D27
  1

  0
LINE
  5
4AF
330
4AD
100
AcDbEntity
  8
0
 62
0
370
-2
100
AcDbLine
 10
-7183.284983166927
 20
6043.342908269622
 30
0.0
 11
-7183.284983166927
 21
6016.700290404294
 31
0.0
  0
LINE
  5
4B0
330
4AD
100
AcDbEntity
  8
0
 62
0
370
-2
100
AcDbLine
 10
-7167.330034240578
 20
6043.342908269622
 30
0.0
 11
-7167.330034240578
 21
6016.700290404294
 31
0.0
  0
LINE
  5
4B1
330
4AD
100
AcDbEntity
  8
0
 62
0
370
-2
100
AcDbLine
 10
-7180.784983166929
 20
6017.950290404295
 30
0.0
 11
-7169.83003424058
 21
6017.950290404295
 31
0.0
  0
SOLID
  5
4B2
330
4AD
100
AcDbEntity
  8
0
 62
0
100
AcDbTrace
 10
-7180.784983166929
 20
6018.366957070961
 30
0.0
 11
-7180.784983166929
 21
6017.533623737627
 31
0.0
 12
-7183.284983166927
 22
6017.950290404295
 32
0.0
 13
-7183.284983166927
 23
6017.950290404295
 33
0.0
  0
SOLID
  5
4B3
330
4AD
100
AcDbEntity
  8
0
 62
0
100
AcDbTrace
 10
-7169.83003424058
 20
6017.533623737627
 30
0.0
 11
-7169.83003424058
 21
6018.366957070961
 31
0.0
 12
-7167.330034240578
 22
6017.950290404295
 32
0.0
 13
-7167.330034240578
 23
6017.950290404295
 33
0.0
  0
MTEXT
  5
4B4
330
4AD
100
AcDbEntity
  8
0
 62
0
100
AcDbMText
 10
-7175.307508703753
 20
6020.034787610998
 30
0.0
 40
2.5
 41
0.0
 46
0.0
 71
5
  1
15,95
  0
POINT
  5
4B5
330
4AD
100
AcDbEntity
  8
Defpoints
 62
0
100
AcDbPoint
 10
-7183.284983166927
 20
6043.967908269621
 30
0.0
  0
POINT
  5
4B6
330
4AD
100
AcDbEntity
  8
Defpoints
 62
0
100
AcDbPoint
 10
-7167.330034240578
 20
6043.967908269621
 30
0.0
  0
POINT
  5
4B7
330
4AD
100
AcDbEntity
  8
Defpoints
 62
0
100
AcDbPoint
 10
-7167.330034240578
 20
6017.950290404295
 30
0.0
  0
ENDBLK
  5
4B8
330
4AD
100
AcDbEntity
  8
0
100
AcDbBlockEnd
  0
BLOCK
  5
510
330
50F
100
AcDbEntity
  8
0
100
AcDbBlockBegin
  2
*D29
 70
1
 10
0.0
 20
0.0
 30
0.0
  3
*D29
  1

  0
LINE
  5
511
330
50F
100
AcDbEntity
  8
0
 62
0
370
-2
100
AcDbLine
 10
-7523.91272453601
 20
6209.109907772704
 30
0.0
 11
-7523.91272453601
 21
6240.720424488725
 31
0.0
  0
LINE
  5
512
330
50F
100
AcDbEntity
  8
0
 62
0
370
-2
100
AcDbLine
 10
-7613.764916230014
 20
6209.109907772704
 30
0.0
 11
-7613.764916230014
 21
6240.720424488725
 31
0.0
  0
LINE
  5
513
330
50F
100
AcDbEntity
  8
0
 62
0
370
-2
100
AcDbLine
 10
-7526.412724536008
 20
6239.470424488725
 30
0.0
 11
-7611.264916230013
 21
6239.470424488725
 31
0.0
  0
SOLID
  5
514
330
50F
100
AcDbEntity
  8
0
 62
0
100
AcDbTrace
 10
-7526.412724536008
 20
6239.053757822058
 30
0.0
 11
-7526.412724536008
 21
6239.887091155392
 31
0.0
 12
-7523.91272453601
 22
6239.470424488725
 32
0.0
 13
-7523.91272453601
 23
6239.470424488725
 33
0.0
  0
SOLID
  5
515
330
50F
100
AcDbEntity
  8
0
 62
0
100
AcDbTrace
 10
-7611.264916230013
 20
6239.887091155392
 30
0.0
 11
-7611.264916230013
 21
6239.053757822058
 31
0.0
 12
-7613.764916230014
 22
6239.470424488725
 32
0.0
 13
-7613.764916230014
 23
6239.470424488725
 33
0.0
  0
MTEXT
  5
516
330
50F
100
AcDbEntity
  8
0
 62
0
100
AcDbMText
 10
-7568.838820383011
 20
6241.55492169543
 30
0.0
 40
2.5
 41
0.0
 46
0.0
 71
5
  1
89,85
  0
POINT
  5
517
330
50F
100
AcDbEntity
  8
Defpoints
 62
0
100
AcDbPoint
 10
-7523.91272453601
 20
6208.484907772704
 30
0.0
  0
POINT
  5
518
330
50F
100
AcDbEntity
  8
Defpoints
 62
0
100
AcDbPoint
 10
-7613.764916230014
 20
6208.484907772704
 30
0.0
  0
POINT
  5
519
330
50F
100
AcDbEntity
  8
Defpoints
 62
0
100
AcDbPoint
 10
-7613.764916230014
 20
6239.470424488725
 30
0.0
  0
ENDBLK
  5
51A
330
50F
100
AcDbEntity
  8
0
100
AcDbBlockEnd
  0
BLOCK
  5
51F
330
51E
100
AcDbEntity
  8
0
100
AcDbBlockBegin
  2
*D30
 70
1
 10
0.0
 20
0.0
 30
0.0
  3
*D30
  1

  0
ARC
  5
520
330
51E
100
AcDbEntity
  8
0
 62
0
370
-2
100
AcDbCircle
 10
-7597.830364255418
 20
6053.969213612231
 30
0.0
 40
8.187454007627194
100
AcDbArc
 50
81.9980333533515
 51
162.4363193624675
  0
SOLID
  5
521
330
51E
100
AcDbEntity
  8
0
 62
0
100
AcDbTrace
 10
-7596.810929775442
 20
6061.678031619536
 30
0.0
 11
-7596.570295420381
 21
6062.475865907848
 31
0.0
 12
-7594.297109732973
 22
6061.355045698505
 32
0.0
 13
-7594.297109732973
 23
6061.355045698505
 33
0.0
  0
SOLID
  5
522
330
51E
100
AcDbEntity
  8
0
 62
0
100
AcDbTrace
 10
-7606.047918738049
 20
6056.503519251359
 30
0.0
 11
-7605.224354721305
 21
6056.376292073569
 31
0.0
 12
-7606.017818263045
 22
6053.969213612231
 32
0.0
 13
-7606.017818263045
 23
6053.969213612231
 33
0.0
  0
MTEXT
  5
523
330
51E
100
AcDbEntity
  8
0
 62
0
100
AcDbMText
 10
-7603.194959628897
 20
6062.482385590669
 30
0.0
 40
2.5
 41
0.0
 46
0.0
 71
5
  1
116%%d
 11
0.8460333803250598
 21
0.5331299272932938
 31
0.0
  0
POINT
  5
524
330
51E
100
AcDbEntity
  8
Defpoints
 62
0
100
AcDbPoint
 10
-7599.66604650576
 20
6061.948228200686
 30
0.0
  0
POINT
  5
525
330
51E
100
AcDbEntity
  8
Defpoints
 62
0
100
AcDbPoint
 10
-7597.830364255418
 20
6053.969213612231
 30
0.0
  0
POINT
  5
526
330
51E
100
AcDbEntity
  8
Defpoints
 62
0
100
AcDbPoint
 10
-7613.764916230014
 20
6053.969213612231
 30
0.0
  0
POINT
  5
527
330
51E
100
AcDbEntity
  8
Defpoints
 62
0
100
AcDbPoint
 10
-7597.830364255418
 20
6053.969213612231
 30
0.0
  0
POINT
  5
528
330
51E
100
AcDbEntity
  8
Defpoints
 62
0
100
AcDbPoint
 10
-7523.91272453601
 20
6208.484907772704
 30
0.0
  0
ENDBLK
  5
529
330
51E
100
AcDbEntity
  8
0
100
AcDbBlockEnd
  0
BLOCK
  5
52E
330
52D
100
AcDbEntity
  8
0
100
AcDbBlockBegin
  2
*D31
 70
1
 10
0.0
 20
0.0
 30
0.0
  3
*D31
  1

  0
ARC
  5
52F
330
52D
100
AcDbEntity
  8
0
 62
0
370
-2
100
AcDbCircle
 10
-7167.330034240578
 20
5998.493315686292
 30
0.0
 40
154.7203021801809
100
AcDbArc
 50
90.92580614863623
 51
108.4078261670679
  0
SOLID
  5
530
330
52D
100
AcDbEntity
  8
0
 62
0
100
AcDbTrace
 10
-7169.826586360001
 20
6152.776767061133
 30
0.0
 11
-7169.833318939061
 21
6153.610073197452
 31
0.0
 12
-7167.330034240578
 22
6153.213617866475
 32
0.0
 13
-7167.330034240578
 23
6153.213617866475
 33
0.0
  0
SOLID
  5
531
330
52D
100
AcDbEntity
  8
0
 62
0
100
AcDbTrace
 10
-7216.322165531163
 20
6145.691297896185
 30
0.0
 11
-7216.052637157607
 21
6144.902755633339
 31
0.0
 12
-7218.553028132918
 22
6144.488441644087
 32
0.0
 13
-7218.553028132918
 23
6144.488441644087
 33
0.0
  0
MTEXT
  5
532
330
52D
100
AcDbEntity
  8
0
 62
0
100
AcDbMText
 10
-7193.625276870713
 20
6152.865103523075
 30
0.0
 40
2.5
 41
0.0
 46
0.0
 71
5
  1
19%%d
 11
0.9858008873035023
 21
0.1679184641176413
 31
0.0
  0
POINT
  5
533
330
52D
100
AcDbEntity
  8
Defpoints
 62
0
100
AcDbPoint
 10
-7199.499818056224
 20
6149.832262808246
 30
0.0
  0
POINT
  5
534
330
52D
100
AcDbEntity
  8
Defpoints
 62
0
100
AcDbPoint
 10
-7167.330034240578
 20
6337.097034559792
 30
0.0
  0
POINT
  5
535
330
52D
100
AcDbEntity
  8
Defpoints
 62
0
100
AcDbPoint
 10
-7183.284983166927
 20
6043.967908269621
 30
0.0
  0
POINT
  5
536
330
52D
100
AcDbEntity
  8
Defpoints
 62
0
100
AcDbPoint
 10
-7235.985167047471
 20
6194.173302351238
 30
0.0
  0
POINT
  5
537
330
52D
100
AcDbEntity
  8
Defpoints
 62
0
100
AcDbPoint
 10
-7167.330034240578
 20
6043.967908269621
 30
0.0
  0
ENDBLK
  5
538
330
52D
100
AcDbEntity
  8
0
100
AcDbBlockEnd
  0
BLOCK
  5
53D
330
53C
100
AcDbEntity
  8
0
100
AcDbBlockBegin
  2
*D32
 70
1
 10
0.0
 20
0.0
 30
0.0
  3
*D32
  1

  0
LINE
  5
53E
330
53C
100
AcDbEntity
  8
0
 62
0
370
-2
100
AcDbLine
 10
-7613.764916230014
 20
6337.722034559789
 30
0.0
 11
-7613.764916230014
 21
6432.997106129983
 31
0.0
  0
LINE
  5
53F
330
53C
100
AcDbEntity
  8
0
 62
0
370
-2
100
AcDbLine
 10
-7167.330034240578
 20
6337.722034559789
 30
0.0
 11
-7167.330034240578
 21
6432.997106129983
 31
0.0
  0
LINE
  5
540
330
53C
100
AcDbEntity
  8
0
 62
0
370
-2
100
AcDbLine
 10
-7611.264916230013
 20
6431.747106129982
 30
0.0
 11
-7169.83003424058
 21
6431.747106129982
 31
0.0
  0
SOLID
  5
541
330
53C
100
AcDbEntity
  8
0
 62
0
100
AcDbTrace
 10
-7611.264916230013
 20
6432.16377279665
 30
0.0
 11
-7611.264916230013
 21
6431.330439463315
 31
0.0
 12
-7613.764916230014
 22
6431.747106129982
 32
0.0
 13
-7613.764916230014
 23
6431.747106129982
 33
0.0
  0
SOLID
  5
542
330
53C
100
AcDbEntity
  8
0
 62
0
100
AcDbTrace
 10
-7169.83003424058
 20
6431.330439463315
 30
0.0
 11
-7169.83003424058
 21
6432.16377279665
 31
0.0
 12
-7167.330034240578
 22
6431.747106129982
 32
0.0
 13
-7167.330034240578
 23
6431.747106129982
 33
0.0
  0
MTEXT
  5
543
330
53C
100
AcDbEntity
  8
0
 62
0
100
AcDbMText
 10
-7390.547475235297
 20
6433.831603336688
 30
0.0
 40
2.5
 41
0.0
 46
0.0
 71
5
  1
446,43
  0
POINT
  5
544
330
53C
100
AcDbEntity
  8
Defpoints
 62
0
100
AcDbPoint
 10
-7613.764916230014
 20
6337.097034559792
 30
0.0
  0
POINT
  5
545
330
53C
100
AcDbEntity
  8
Defpoints
 62
0
100
AcDbPoint
 10
-7167.330034240578
 20
6337.097034559792
 30
0.0
  0
POINT
  5
546
330
53C
100
AcDbEntity
  8
Defpoints
 62
0
100
AcDbPoint
 10
-7167.330034240578
 20
6431.747106129982
 30
0.0
  0
ENDBLK
  5
547
330
53C
100
AcDbEntity
  8
0
100
AcDbBlockEnd
  0
BLOCK
  5
54E
330
54D
100
AcDbEntity
  8
0
100
AcDbBlockBegin
  2
*D33
 70
1
 10
0.0
 20
0.0
 30
0.0
  3
*D33
  1

  0
LINE
  5
54F
330
54D
100
AcDbEntity
  8
0
 62
0
370
-2
100
AcDbLine
 10
-7166.70503424058
 20
6337.097034559792
 30
0.0
 11
-7119.445670647284
 21
6337.097034559792
 31
0.0
  0
LINE
  5
550
330
54D
100
AcDbEntity
  8
0
 62
0
370
-2
100
AcDbLine
 10
-7166.70503424058
 20
6232.818012566355
 30
0.0
 11
-7119.445670647284
 21
6232.818012566355
 31
0.0
  0
LINE
  5
551
330
54D
100
AcDbEntity
  8
0
 62
0
370
-2
100
AcDbLine
 10
-7120.695670647283
 20
6334.597034559791
 30
0.0
 11
-7120.695670647283
 21
6235.318012566355
 31
0.0
  0
SOLID
  5
552
330
54D
100
AcDbEntity
  8
0
 62
0
100
AcDbTrace
 10
-7120.279003980617
 20
6334.597034559791
 30
0.0
 11
-7121.112337313951
 21
6334.597034559791
 31
0.0
 12
-7120.695670647283
 22
6337.097034559792
 32
0.0
 13
-7120.695670647283
 23
6337.097034559792
 33
0.0
  0
SOLID
  5
553
330
54D
100
AcDbEntity
  8
0
 62
0
100
AcDbTrace
 10
-7121.112337313951
 20
6235.318012566355
 30
0.0
 11
-7120.279003980617
 21
6235.318012566355
 31
0.0
 12
-7120.695670647283
 22
6232.818012566355
 32
0.0
 13
-7120.695670647283
 23
6232.818012566355
 33
0.0
  0
MTEXT
  5
554
330
54D
100
AcDbEntity
  8
0
 62
0
100
AcDbMText
 10
-7122.780167853988
 20
6284.957523563073
 30
0.0
 40
2.5
 41
0.0
 46
0.0
 71
5
  1
104,28
 11
0.0
 21
1.0
 31
0.0
  0
POINT
  5
555
330
54D
100
AcDbEntity
  8
Defpoints
 62
0
100
AcDbPoint
 10
-7167.330034240578
 20
6337.097034559792
 30
0.0
  0
POINT
  5
556
330
54D
100
AcDbEntity
  8
Defpoints
 62
0
100
AcDbPoint
 10
-7167.330034240578
 20
6232.818012566355
 30
0.0
  0
POINT
  5
557
330
54D
100
AcDbEntity
  8
Defpoints
 62
0
100
AcDbPoint
 10
-7120.695670647283
 20
6232.818012566355
 30
0.0
  0
ENDBLK
  5
558
330
54D
100
AcDbEntity
  8
0
100
AcDbBlockEnd
  0
BLOCK
  5
55B
330
55A
100
AcDbEntity
  8
0
100
AcDbBlockBegin
  2
*D34
 70
1
 10
0.0
 20
0.0
 30
0.0
  3
*D34
  1

  0
LINE
  5
55C
330
55A
100
AcDbEntity
  8
0
 62
0
370
-2
100
AcDbLine
 10
-7183.284983166927
 20
6043.342908269622
 30
0.0
 11
-7183.284983166927
 21
6016.700290404294
 31
0.0
  0
LINE
  5
55D
330
55A
100
AcDbEntity
  8
0
 62
0
370
-2
100
AcDbLine
 10
-7167.330034240578
 20
6043.342908269622
 30
0.0
 11
-7167.330034240578
 21
6016.700290404294
 31
0.0
  0
LINE
  5
55E
330
55A
100
AcDbEntity
  8
0
 62
0
370
-2
100
AcDbLine
 10
-7180.784983166929
 20
6017.950290404295
 30
0.0
 11
-7169.83003424058
 21
6017.950290404295
 31
0.0
  0
SOLID
  5
55F
330
55A
100
AcDbEntity
  8
0
 62
0
100
AcDbTrace
 10
-7180.784983166929
 20
6018.366957070961
 30
0.0
 11
-7180.784983166929
 21
6017.533623737627
 31
0.0
 12
-7183.284983166927
 22
6017.950290404295
 32
0.0
 13
-7183.284983166927
 23
6017.950290404295
 33
0.0
  0
SOLID
  5
560
330
55A
100
AcDbEntity
  8
0
 62
0
100
AcDbTrace
 10
-7169.83003424058
 20
6017.533623737627
 30
0.0
 11
-7169.83003424058
 21
6018.366957070961
 31
0.0
 12
-7167.330034240578
 22
6017.950290404295
 32
0.0
 13
-7167.330034240578
 23
6017.950290404295
 33
0.0
  0
MTEXT
  5
561
330
55A
100
AcDbEntity
  8
0
 62
0
100
AcDbMText
 10
-7175.307508703753
 20
6020.034787610998
 30
0.0
 40
2.5
 41
0.0
 46
0.0
 71
5
  1
15,95
  0
POINT
  5
562
330
55A
100
AcDbEntity
  8
Defpoints
 62
0
100
AcDbPoint
 10
-7183.284983166927
 20
6043.967908269621
 30
0.0
  0
POINT
  5
563
330
55A
100
AcDbEntity
  8
Defpoints
 62
0
100
AcDbPoint
 10
-7167.330034240578
 20
6043.967908269621
 30
0.0
  0
POINT
  5
564
330
55A
100
AcDbEntity
  8
Defpoints
 62
0
100
AcDbPoint
 10
-7167.330034240578
 20
6017.950290404295
 30
0.0
  0
ENDBLK
  5
565
330
55A
100
AcDbEntity
  8
0
100
AcDbBlockEnd
  0
BLOCK
  5
5BD
330
5BC
100
AcDbEntity
  8
0
100
AcDbBlockBegin
  2
*D36
 70
1
 10
0.0
 20
0.0
 30
0.0
  3
*D36
  1

  0
LINE
  5
5BE
330
5BC
100
AcDbEntity
  8
0
 62
0
370
-2
100
AcDbLine
 10
-7523.91272453601
 20
6209.109907772704
 30
0.0
 11
-7523.91272453601
 21
6240.720424488725
 31
0.0
  0
LINE
  5
5BF
330
5BC
100
AcDbEntity
  8
0
 62
0
370
-2
100
AcDbLine
 10
-7613.764916230014
 20
6209.109907772704
 30
0.0
 11
-7613.764916230014
 21
6240.720424488725
 31
0.0
  0
LINE
  5
5C0
330
5BC
100
AcDbEntity
  8
0
 62
0
370
-2
100
AcDbLine
 10
-7526.412724536008
 20
6239.470424488725
 30
0.0
 11
-7611.264916230013
 21
6239.470424488725
 31
0.0
  0
SOLID
  5
5C1
330
5BC
100
AcDbEntity
  8
0
 62
0
100
AcDbTrace
 10
-7526.412724536008
 20
6239.053757822058
 30
0.0
 11
-7526.412724536008
 21
6239.887091155392
 31
0.0
 12
-7523.91272453601
 22
6239.470424488725
 32
0.0
 13
-7523.91272453601
 23
6239.470424488725
 33
0.0
  0
SOLID
  5
5C2
330
5BC
100
AcDbEntity
  8
0
 62
0
100
AcDbTrace
 10
-7611.264916230013
 20
6239.887091155392
 30
0.0
 11
-7611.264916230013
 21
6239.053757822058
 31
0.0
 12
-7613.764916230014
 22
6239.470424488725
 32
0.0
 13
-7613.764916230014
 23
6239.470424488725
 33
0.0
  0
MTEXT
  5
5C3
330
5BC
100
AcDbEntity
  8
0
 62
0
100
AcDbMText
 10
-7568.838820383011
 20
6241.55492169543
 30
0.0
 40
2.5
 41
0.0
 46
0.0
 71
5
  1
89,85
  0
POINT
  5
5C4
330
5BC
100
AcDbEntity
  8
Defpoints
 62
0
100
AcDbPoint
 10
-7523.91272453601
 20
6208.484907772704
 30
0.0
  0
POINT
  5
5C5
330
5BC
100
AcDbEntity
  8
Defpoints
 62
0
100
AcDbPoint
 10
-7613.764916230014
 20
6208.484907772704
 30
0.0
  0
POINT
  5
5C6
330
5BC
100
AcDbEntity
  8
Defpoints
 62
0
100
AcDbPoint
 10
-7613.764916230014
 20
6239.470424488725
 30
0.0
  0
ENDBLK
  5
5C7
330
5BC
100
AcDbEntity
  8
0
100
AcDbBlockEnd
  0
BLOCK
  5
5CC
330
5CB
100
AcDbEntity
  8
0
100
AcDbBlockBegin
  2
*D37
 70
1
 10
0.0
 20
0.0
 30
0.0
  3
*D37
  1

  0
ARC
  5
5CD
330
5CB
100
AcDbEntity
  8
0
 62
0
370
-2
100
AcDbCircle
 10
-7597.830364255418
 20
6053.969213612231
 30
0.0
 40
8.187454007627194
100
AcDbArc
 50
81.9980333533515
 51
162.4363193624675
  0
SOLID
  5
5CE
330
5CB
100
AcDbEntity
  8
0
 62
0
100
AcDbTrace
 10
-7596.810929775442
 20
6061.678031619536
 30
0.0
 11
-7596.570295420381
 21
6062.475865907848
 31
0.0
 12
-7594.297109732973
 22
6061.355045698505
 32
0.0
 13
-7594.297109732973
 23
6061.355045698505
 33
0.0
  0
SOLID
  5
5CF
330
5CB
100
AcDbEntity
  8
0
 62
0
100
AcDbTrace
 10
-7606.047918738049
 20
6056.503519251359
 30
0.0
 11
-7605.224354721305
 21
6056.376292073569
 31
0.0
 12
-7606.017818263045
 22
6053.969213612231
 32
0.0
 13
-7606.017818263045
 23
6053.969213612231
 33
0.0
  0
MTEXT
  5
5D0
330
5CB
100
AcDbEntity
  8
0
 62
0
100
AcDbMText
 10
-7603.194959628897
 20
6062.482385590669
 30
0.0
 40
2.5
 41
0.0
 46
0.0
 71
5
  1
116%%d
 11
0.8460333803250598
 21
0.5331299272932938
 31
0.0
  0
POINT
  5
5D1
330
5CB
100
AcDbEntity
  8
Defpoints
 62
0
100
AcDbPoint
 10
-7599.66604650576
 20
6061.948228200686
 30
0.0
  0
POINT
  5
5D2
330
5CB
100
AcDbEntity
  8
Defpoints
 62
0
100
AcDbPoint
 10
-7597.830364255418
 20
6053.969213612231
 30
0.0
  0
POINT
  5
5D3
330
5CB
100
AcDbEntity
  8
Defpoints
 62
0
100
AcDbPoint
 10
-7613.764916230014
 20
6053.969213612231
 30
0.0
  0
POINT
  5
5D4
330
5CB
100
AcDbEntity
  8
Defpoints
 62
0
100
AcDbPoint
 10
-7597.830364255418
 20
6053.969213612231
 30
0.0
  0
POINT
  5
5D5
330
5CB
100
AcDbEntity
  8
Defpoints
 62
0
100
AcDbPoint
 10
-7523.91272453601
 20
6208.484907772704
 30
0.0
  0
ENDBLK
  5
5D6
330
5CB
100
AcDbEntity
  8
0
100
AcDbBlockEnd
  0
BLOCK
  5
5DB
330
5DA
100
AcDbEntity
  8
0
100
AcDbBlockBegin
  2
*D38
 70
1
 10
0.0
 20
0.0
 30
0.0
  3
*D38
  1

  0
ARC
  5
5DC
330
5DA
100
AcDbEntity
  8
0
 62
0
370
-2
100
AcDbCircle
 10
-7167.330034240578
 20
5998.493315686292
 30
0.0
 40
154.7203021801809
100
AcDbArc
 50
90.92580614863623
 51
108.4078261670679
  0
SOLID
  5
5DD
330
5DA
100
AcDbEntity
  8
0
 62
0
100
AcDbTrace
 10
-7169.826586360001
 20
6152.776767061133
 30
0.0
 11
-7169.833318939061
 21
6153.610073197452
 31
0.0
 12
-7167.330034240578
 22
6153.213617866475
 32
0.0
 13
-7167.330034240578
 23
6153.213617866475
 33
0.0
  0
SOLID
  5
5DE
330
5DA
100
AcDbEntity
  8
0
 62
0
100
AcDbTrace
 10
-7216.322165531163
 20
6145.691297896185
 30
0.0
 11
-7216.052637157607
 21
6144.902755633339
 31
0.0
 12
-7218.553028132918
 22
6144.488441644087
 32
0.0
 13
-7218.553028132918
 23
6144.488441644087
 33
0.0
  0
MTEXT
  5
5DF
330
5DA
100
AcDbEntity
  8
0
 62
0
100
AcDbMText
 10
-7193.625276870713
 20
6152.865103523075
 30
0.0
 40
2.5
 41
0.0
 46
0.0
 71
5
  1
19%%d
 11
0.9858008873035023
 21
0.1679184641176413
 31
0.0
  0
POINT
  5
5E0
330
5DA
100
AcDbEntity
  8
Defpoints
 62
0
100
AcDbPoint
 10
-7199.499818056224
 20
6149.832262808246
 30
0.0
  0
POINT
  5
5E1
330
5DA
100
AcDbEntity
  8
Defpoints
 62
0
100
AcDbPoint
 10
-7167.330034240578
 20
6337.097034559792
 30
0.0
  0
POINT
  5
5E2
330
5DA
100
AcDbEntity
  8
Defpoints
 62
0
100
AcDbPoint
 10
-7183.284983166927
 20
6043.967908269621
 30
0.0
  0
POINT
  5
5E3
330
5DA
100
AcDbEntity
  8
Defpoints
 62
0
100
AcDbPoint
 10
-7235.985167047471
 20
6194.173302351238
 30
0.0
  0
POINT
  5
5E4
330
5DA
100
AcDbEntity
  8
Defpoints
 62
0
100
AcDbPoint
 10
-7167.330034240578
 20
6043.967908269621
 30
0.0
  0
ENDBLK
  5
5E5
330
5DA
100
AcDbEntity
  8
0
100
AcDbBlockEnd
  0
BLOCK
  5
5EA
330
5E9
100
AcDbEntity
  8
0
100
AcDbBlockBegin
  2
*D39
 70
1
 10
0.0
 20
0.0
 30
0.0
  3
*D39
  1

  0
LINE
  5
5EB
330
5E9
100
AcDbEntity
  8
0
 62
0
370
-2
100
AcDbLine
 10
-7613.764916230014
 20
6337.722034559789
 30
0.0
 11
-7613.764916230014
 21
6432.997106129983
 31
0.0
  0
LINE
  5
5EC
330
5E9
100
AcDbEntity
  8
0
 62
0
370
-2
100
AcDbLine
 10
-7167.330034240578
 20
6337.722034559789
 30
0.0
 11
-7167.330034240578
 21
6432.997106129983
 31
0.0
  0
LINE
  5
5ED
330
5E9
100
AcDbEntity
  8
0
 62
0
370
-2
100
AcDbLine
 10
-7611.264916230013
 20
6431.747106129982
 30
0.0
 11
-7169.83003424058
 21
6431.747106129982
 31
0.0
  0
SOLID
  5
5EE
330
5E9
100
AcDbEntity
  8
0
 62
0
100
AcDbTrace
 10
-7611.264916230013
 20
6432.16377279665
 30
0.0
 11
-7611.264916230013
 21
6431.330439463315
 31
0.0
 12
-7613.764916230014
 22
6431.747106129982
 32
0.0
 13
-7613.764916230014
 23
6431.747106129982
 33
0.0
  0
SOLID
  5
5EF
330
5E9
100
AcDbEntity
  8
0
 62
0
100
AcDbTrace
 10
-7169.83003424058
 20
6431.330439463315
 30
0.0
 11
-7169.83003424058
 21
6432.16377279665
 31
0.0
 12
-7167.330034240578
 22
6431.747106129982
 32
0.0
 13
-7167.330034240578
 23
6431.747106129982
 33
0.0
  0
MTEXT
  5
5F0
330
5E9
100
AcDbEntity
  8
0
 62
0
100
AcDbMText
 10
-7390.547475235297
 20
6433.831603336688
 30
0.0
 40
2.5
 41
0.0
 46
0.0
 71
5
  1
446,43
  0
POINT
  5
5F1
330
5E9
100
AcDbEntity
  8
Defpoints
 62
0
100
AcDbPoint
 10
-7613.764916230014
 20
6337.097034559792
 30
0.0
  0
POINT
  5
5F2
330
5E9
100
AcDbEntity
  8
Defpoints
 62
0
100
AcDbPoint
 10
-7167.330034240578
 20
6337.097034559792
 30
0.0
  0
POINT
  5
5F3
330
5E9
100
AcDbEntity
  8
Defpoints
 62
0
100
AcDbPoint
 10
-7167.330034240578
 20
6431.747106129982
 30
0.0
  0
ENDBLK
  5
5F4
330
5E9
100
AcDbEntity
  8
0
100
AcDbBlockEnd
  0
BLOCK
  5
5FB
330
5FA
100
AcDbEntity
  8
0
100
AcDbBlockBegin
  2
*D40
 70
1
 10
0.0
 20
0.0
 30
0.0
  3
*D40
  1

  0
LINE
  5
5FC
330
5FA
100
AcDbEntity
  8
0
 62
0
370
-2
100
AcDbLine
 10
-7166.70503424058
 20
6337.097034559792
 30
0.0
 11
-7119.445670647284
 21
6337.097034559792
 31
0.0
  0
LINE
  5
5FD
330
5FA
100
AcDbEntity
  8
0
 62
0
370
-2
100
AcDbLine
 10
-7166.70503424058
 20
6232.818012566355
 30
0.0
 11
-7119.445670647284
 21
6232.818012566355
 31
0.0
  0
LINE
  5
5FE
330
5FA
100
AcDbEntity
  8
0
 62
0
370
-2
100
AcDbLine
 10
-7120.695670647283
 20
6334.597034559791
 30
0.0
 11
-7120.695670647283
 21
6235.318012566355
 31
0.0
  0
SOLID
  5
5FF
330
5FA
100
AcDbEntity
  8
0
 62
0
100
AcDbTrace
 10
-7120.279003980617
 20
6334.597034559791
 30
0.0
 11
-7121.112337313951
 21
6334.597034559791
 31
0.0
 12
-7120.695670647283
 22
6337.097034559792
 32
0.0
 13
-7120.695670647283
 23
6337.097034559792
 33
0.0
  0
SOLID
  5
600
330
5FA
100
AcDbEntity
  8
0
 62
0
100
AcDbTrace
 10
-7121.112337313951
 20
6235.318012566355
 30
0.0
 11
-7120.279003980617
 21
6235.318012566355
 31
0.0
 12
-7120.695670647283
 22
6232.818012566355
 32
0.0
 13
-7120.695670647283
 23
6232.818012566355
 33
0.0
  0
MTEXT
  5
601
330
5FA
100
AcDbEntity
  8
0
 62
0
100
AcDbMText
 10
-7122.780167853988
 20
6284.957523563073
 30
0.0
 40
2.5
 41
0.0
 46
0.0
 71
5
  1
104,28
 11
0.0
 21
1.0
 31
0.0
  0
POINT
  5
602
330
5FA
100
AcDbEntity
  8
Defpoints
 62
0
100
AcDbPoint
 10
-7167.330034240578
 20
6337.097034559792
 30
0.0
  0
POINT
  5
603
330
5FA
100
AcDbEntity
  8
Defpoints
 62
0
100
AcDbPoint
 10
-7167.330034240578
 20
6232.818012566355
 30
0.0
  0
POINT
  5
604
330
5FA
100
AcDbEntity
  8
Defpoints
 62
0
100
AcDbPoint
 10
-7120.695670647283
 20
6232.818012566355
 30
0.0
  0
ENDBLK
  5
605
330
5FA
100
AcDbEntity
  8
0
100
AcDbBlockEnd
  0
BLOCK
  5
608
330
607
100
AcDbEntity
  8
0
100
AcDbBlockBegin
  2
*D41
 70
1
 10
0.0
 20
0.0
 30
0.0
  3
*D41
  1

  0
LINE
  5
609
330
607
100
AcDbEntity
  8
0
 62
0
370
-2
100
AcDbLine
 10
-7183.284983166927
 20
6043.342908269622
 30
0.0
 11
-7183.284983166927
 21
6016.700290404294
 31
0.0
  0
LINE
  5
60A
330
607
100
AcDbEntity
  8
0
 62
0
370
-2
100
AcDbLine
 10
-7167.330034240578
 20
6043.342908269622
 30
0.0
 11
-7167.330034240578
 21
6016.700290404294
 31
0.0
  0
LINE
  5
60B
330
607
100
AcDbEntity
  8
0
 62
0
370
-2
100
AcDbLine
 10
-7180.784983166929
 20
6017.950290404295
 30
0.0
 11
-7169.83003424058
 21
6017.950290404295
 31
0.0
  0
SOLID
  5
60C
330
607
100
AcDbEntity
  8
0
 62
0
100
AcDbTrace
 10
-7180.784983166929
 20
6018.366957070961
 30
0.0
 11
-7180.784983166929
 21
6017.533623737627
 31
0.0
 12
-7183.284983166927
 22
6017.950290404295
 32
0.0
 13
-7183.284983166927
 23
6017.950290404295
 33
0.0
  0
SOLID
  5
60D
330
607
100
AcDbEntity
  8
0
 62
0
100
AcDbTrace
 10
-7169.83003424058
 20
6017.533623737627
 30
0.0
 11
-7169.83003424058
 21
6018.366957070961
 31
0.0
 12
-7167.330034240578
 22
6017.950290404295
 32
0.0
 13
-7167.330034240578
 23
6017.950290404295
 33
0.0
  0
MTEXT
  5
60E
330
607
100
AcDbEntity
  8
0
 62
0
100
AcDbMText
 10
-7175.307508703753
 20
6020.034787610998
 30
0.0
 40
2.5
 41
0.0
 46
0.0
 71
5
  1
15,95
  0
POINT
  5
60F
330
607
100
AcDbEntity
  8
Defpoints
 62
0
100
AcDbPoint
 10
-7183.284983166927
 20
6043.967908269621
 30
0.0
  0
POINT
  5
610
330
607
100
AcDbEntity
  8
Defpoints
 62
0
100
AcDbPoint
 10
-7167.330034240578
 20
6043.967908269621
 30
0.0
  0
POINT
  5
611
330
607
100
AcDbEntity
  8
Defpoints
 62
0
100
AcDbPoint
 10
-7167.330034240578
 20
6017.950290404295
 30
0.0
  0
ENDBLK
  5
612
330
607
100
AcDbEntity
  8
0
100
AcDbBlockEnd
  0
BLOCK
  5
65A
330
650
100
AcDbEntity
  8
0
100
AcDbBlockBegin
  2
*D42
 70
1
 10
0.0
 20
0.0
 30
0.0
  3
*D42
  1

  0
LINE
  5
698
330
650
100
AcDbEntity
  8
0
 62
0
370
-2
100
AcDbLine
 10
-3974.855877041389
 20
3026.692748085599
 30
0.0
 11
-3974.855877041389
 21
3058.303264801621
 31
0.0
  0
LINE
  5
699
330
650
100
AcDbEntity
  8
0
 62
0
370
-2
100
AcDbLine
 10
-4064.708068735392
 20
3026.692748085599
 30
0.0
 11
-4064.708068735392
 21
3058.303264801621
 31
0.0
  0
LINE
  5
69A
330
650
100
AcDbEntity
  8
0
 62
0
370
-2
100
AcDbLine
 10
-3977.355877041389
 20
3057.053264801621
 30
0.0
 11
-4062.208068735393
 21
3057.053264801621
 31
0.0
  0
SOLID
  5
69B
330
650
100
AcDbEntity
  8
0
 62
0
100
AcDbTrace
 10
-3977.355877041389
 20
3056.636598134954
 30
0.0
 11
-3977.355877041389
 21
3057.469931468287
 31
0.0
 12
-3974.855877041389
 22
3057.053264801621
 32
0.0
 13
-3974.855877041389
 23
3057.053264801621
 33
0.0
  0
SOLID
  5
69C
330
650
100
AcDbEntity
  8
0
 62
0
100
AcDbTrace
 10
-4062.208068735393
 20
3057.469931468287
 30
0.0
 11
-4062.208068735393
 21
3056.636598134954
 31
0.0
 12
-4064.708068735392
 22
3057.053264801621
 32
0.0
 13
-4064.708068735392
 23
3057.053264801621
 33
0.0
  0
MTEXT
  5
69D
330
650
100
AcDbEntity
  8
0
 62
0
100
AcDbMText
 10
-4019.781972888391
 20
3059.137762008325
 30
0.0
 40
2.5
 41
0.0
 46
0.0
 71
5
  1
89,85
  0
POINT
  5
69E
330
650
100
AcDbEntity
  8
Defpoints
 62
0
100
AcDbPoint
 10
-3974.855877041389
 20
3026.067748085599
 30
0.0
  0
POINT
  5
69F
330
650
100
AcDbEntity
  8
Defpoints
 62
0
100
AcDbPoint
 10
-4064.708068735392
 20
3026.067748085599
 30
0.0
  0
POINT
  5
6A0
330
650
100
AcDbEntity
  8
Defpoints
 62
0
100
AcDbPoint
 10
-4064.708068735392
 20
3057.053264801621
 30
0.0
  0
ENDBLK
  5
65B
330
650
100
AcDbEntity
  8
0
100
AcDbBlockEnd
  0
BLOCK
  5
666
330
65C
100
AcDbEntity
  8
0
100
AcDbBlockBegin
  2
*D43
 70
1
 10
0.0
 20
0.0
 30
0.0
  3
*D43
  1

  0
ARC
  5
6A1
330
65C
100
AcDbEntity
  8
0
 62
0
370
-2
100
AcDbCircle
 10
-4048.773516760797
 20
2871.552053925127
 30
0.0
 40
8.187454007626105
100
AcDbArc
 50
81.99803335335412
 51
162.4363193624651
  0
SOLID
  5
6A2
330
65C
100
AcDbEntity
  8
0
 62
0
100
AcDbTrace
 10
-4047.754082280823
 20
2879.260871932429
 30
0.0
 11
-4047.513447925761
 21
2880.058706220742
 31
0.0
 12
-4045.240262238352
 22
2878.9378860114
 32
0.0
 13
-4045.240262238352
 23
2878.9378860114
 33
0.0
  0
SOLID
  5
6A3
330
65C
100
AcDbEntity
  8
0
 62
0
100
AcDbTrace
 10
-4056.991071243428
 20
2874.086359564254
 30
0.0
 11
-4056.167507226684
 21
2873.959132386466
 31
0.0
 12
-4056.960970768423
 22
2871.552053925127
 32
0.0
 13
-4056.960970768423
 23
2871.552053925127
 33
0.0
  0
MTEXT
  5
6A4
330
65C
100
AcDbEntity
  8
0
 62
0
100
AcDbMText
 10
-4054.138112134275
 20
2880.065225903564
 30
0.0
 40
2.5
 41
0.0
 46
0.0
 71
5
  1
116%%d
 11
0.8460333803250534
 21
0.5331299272933041
 31
0.0
  0
POINT
  5
6A5
330
65C
100
AcDbEntity
  8
Defpoints
 62
0
100
AcDbPoint
 10
-4050.60919901114
 20
2879.531068513581
 30
0.0
  0
POINT
  5
6A6
330
65C
100
AcDbEntity
  8
Defpoints
 62
0
100
AcDbPoint
 10
-4048.773516760797
 20
2871.552053925127
 30
0.0
  0
POINT
  5
6A7
330
65C
100
AcDbEntity
  8
Defpoints
 62
0
100
AcDbPoint
 10
-4064.708068735392
 20
2871.552053925127
 30
0.0
  0
POINT
  5
6A8
330
65C
100
AcDbEntity
  8
Defpoints
 62
0
100
AcDbPoint
 10
-4048.773516760797
 20
2871.552053925127
 30
0.0
  0
POINT
  5
6A9
330
65C
100
AcDbEntity
  8
Defpoints
 62
0
100
AcDbPoint
 10
-3974.855877041389
 20
3026.067748085599
 30
0.0
  0
ENDBLK
  5
667
330
65C
100
AcDbEntity
  8
0
100
AcDbBlockEnd
  0
BLOCK
  5
672
330
668
100
AcDbEntity
  8
0
100
AcDbBlockBegin
  2
*D44
 70
1
 10
0.0
 20
0.0
 30
0.0
  3
*D44
  1

  0
ARC
  5
6AA
330
668
100
AcDbEntity
  8
0
 62
0
370
-2
100
AcDbCircle
 10
-3618.273186745958
 20
2816.076155999186
 30
0.0
 40
154.7203021801841
100
AcDbArc
 50
90.92580614863625
 51
108.4078261670681
  0
SOLID
  5
6AB
330
668
100
AcDbEntity
  8
0
 62
0
100
AcDbTrace
 10
-3620.769738865379
 20
2970.35960737403
 30
0.0
 11
-3620.77647144444
 21
2971.192913510348
 31
0.0
 12
-3618.273186745958
 22
2970.79645817937
 32
0.0
 13
-3618.273186745958
 23
2970.79645817937
 33
0.0
  0
SOLID
  5
6AC
330
668
100
AcDbEntity
  8
0
 62
0
100
AcDbTrace
 10
-3667.265318036544
 20
2963.27413820908
 30
0.0
 11
-3666.995789662985
 21
2962.485595946235
 31
0.0
 12
-3669.496180638297
 22
2962.071281956982
 32
0.0
 13
-3669.496180638297
 23
2962.071281956982
 33
0.0
  0
MTEXT
  5
6AD
330
668
100
AcDbEntity
  8
0
 62
0
100
AcDbMText
 10
-3644.568429376093
 20
2970.447943835971
 30
0.0
 40
2.5
 41
0.0
 46
0.0
 71
5
  1
19%%d
 11
0.985800887303502
 21
0.1679184641176431
 31
0.0
  0
POINT
  5
6AE
330
668
100
AcDbEntity
  8
Defpoints
 62
0
100
AcDbPoint
 10
-3650.442970561604
 20
2967.415103121141
 30
0.0
  0
POINT
  5
6AF
330
668
100
AcDbEntity
  8
Defpoints
 62
0
100
AcDbPoint
 10
-3618.273186745958
 20
3154.679874872687
 30
0.0
  0
POINT
  5
6B0
330
668
100
AcDbEntity
  8
Defpoints
 62
0
100
AcDbPoint
 10
-3634.228135672307
 20
2861.550748582517
 30
0.0
  0
POINT
  5
6B1
330
668
100
AcDbEntity
  8
Defpoints
 62
0
100
AcDbPoint
 10
-3686.92831955285
 20
3011.756142664133
 30
0.0
  0
POINT
  5
6B2
330
668
100
AcDbEntity
  8
Defpoints
 62
0
100
AcDbPoint
 10
-3618.273186745958
 20
2861.550748582517
 30
0.0
  0
ENDBLK
  5
673
330
668
100
AcDbEntity
  8
0
100
AcDbBlockEnd
  0
BLOCK
  5
67E
330
674
100
AcDbEntity
  8
0
100
AcDbBlockBegin
  2
*D45
 70
1
 10
0.0
 20
0.0
 30
0.0
  3
*D45
  1

  0
LINE
  5
6B3
330
674
100
AcDbEntity
  8
0
 62
0
370
-2
100
AcDbLine
 10
-4064.708068735392
 20
3155.304874872687
 30
0.0
 11
-4064.708068735392
 21
3250.579946442878
 31
0.0
  0
LINE
  5
6B4
330
674
100
AcDbEntity
  8
0
 62
0
370
-2
100
AcDbLine
 10
-3618.273186745958
 20
3155.304874872687
 30
0.0
 11
-3618.273186745958
 21
3250.579946442878
 31
0.0
  0
LINE
  5
6B5
330
674
100
AcDbEntity
  8
0
 62
0
370
-2
100
AcDbLine
 10
-4062.208068735393
 20
3249.329946442877
 30
0.0
 11
-3620.773186745958
 21
3249.329946442877
 31
0.0
  0
SOLID
  5
6B6
330
674
100
AcDbEntity
  8
0
 62
0
100
AcDbTrace
 10
-4062.208068735393
 20
3249.746613109544
 30
0.0
 11
-4062.208068735393
 21
3248.913279776211
 31
0.0
 12
-4064.708068735392
 22
3249.329946442877
 32
0.0
 13
-4064.708068735392
 23
3249.329946442877
 33
0.0
  0
SOLID
  5
6B7
330
674
100
AcDbEntity
  8
0
 62
0
100
AcDbTrace
 10
-3620.773186745958
 20
3248.913279776211
 30
0.0
 11
-3620.773186745958
 21
3249.746613109544
 31
0.0
 12
-3618.273186745958
 22
3249.329946442877
 32
0.0
 13
-3618.273186745958
 23
3249.329946442877
 33
0.0
  0
MTEXT
  5
6B8
330
674
100
AcDbEntity
  8
0
 62
0
100
AcDbMText
 10
-3841.490627740676
 20
3251.414443649581
 30
0.0
 40
2.5
 41
0.0
 46
0.0
 71
5
  1
446,43
  0
POINT
  5
6B9
330
674
100
AcDbEntity
  8
Defpoints
 62
0
100
AcDbPoint
 10
-4064.708068735392
 20
3154.679874872687
 30
0.0
  0
POINT
  5
6BA
330
674
100
AcDbEntity
  8
Defpoints
 62
0
100
AcDbPoint
 10
-3618.273186745958
 20
3154.679874872687
 30
0.0
  0
POINT
  5
6BB
330
674
100
AcDbEntity
  8
Defpoints
 62
0
100
AcDbPoint
 10
-3618.273186745958
 20
3249.329946442877
 30
0.0
  0
ENDBLK
  5
67F
330
674
100
AcDbEntity
  8
0
100
AcDbBlockEnd
  0
BLOCK
  5
68A
330
680
100
AcDbEntity
  8
0
100
AcDbBlockBegin
  2
*D46
 70
1
 10
0.0
 20
0.0
 30
0.0
  3
*D46
  1

  0
LINE
  5
6BC
330
680
100
AcDbEntity
  8
0
 62
0
370
-2
100
AcDbLine
 10
-3617.648186745958
 20
3154.679874872687
 30
0.0
 11
-3570.388823152663
 21
3154.679874872687
 31
0.0
  0
LINE
  5
6BD
330
680
100
AcDbEntity
  8
0
 62
0
370
-2
100
AcDbLine
 10
-3617.648186745958
 20
3050.40085287925
 30
0.0
 11
-3570.388823152663
 21
3050.40085287925
 31
0.0
  0
LINE
  5
6BE
330
680
100
AcDbEntity
  8
0
 62
0
370
-2
100
AcDbLine
 10
-3571.638823152663
 20
3152.179874872687
 30
0.0
 11
-3571.638823152663
 21
3052.90085287925
 31
0.0
  0
SOLID
  5
6BF
330
680
100
AcDbEntity
  8
0
 62
0
100
AcDbTrace
 10
-3571.222156485996
 20
3152.179874872687
 30
0.0
 11
-3572.055489819329
 21
3152.179874872687
 31
0.0
 12
-3571.638823152663
 22
3154.679874872687
 32
0.0
 13
-3571.638823152663
 23
3154.679874872687
 33
0.0
  0
SOLID
  5
6C0
330
680
100
AcDbEntity
  8
0
 62
0
100
AcDbTrace
 10
-3572.055489819329
 20
3052.90085287925
 30
0.0
 11
-3571.222156485996
 21
3052.90085287925
 31
0.0
 12
-3571.638823152663
 22
3050.40085287925
 32
0.0
 13
-3571.638823152663
 23
3050.40085287925
 33
0.0
  0
MTEXT
  5
6C1
330
680
100
AcDbEntity
  8
0
 62
0
100
AcDbMText
 10
-3573.723320359367
 20
3102.540363875969
 30
0.0
 40
2.5
 41
0.0
 46
0.0
 71
5
  1
104,28
 11
0.0
 21
1.0
 31
0.0
  0
POINT
  5
6C2
330
680
100
AcDbEntity
  8
Defpoints
 62
0
100
AcDbPoint
 10
-3618.273186745958
 20
3154.679874872687
 30
0.0
  0
POINT
  5
6C3
330
680
100
AcDbEntity
  8
Defpoints
 62
0
100
AcDbPoint
 10
-3618.273186745958
 20
3050.40085287925
 30
0.0
  0
POINT
  5
6C4
330
680
100
AcDbEntity
  8
Defpoints
 62
0
100
AcDbPoint
 10
-3571.638823152663
 20
3050.40085287925
 30
0.0
  0
ENDBLK
  5
68B
330
680
100
AcDbEntity
  8
0
100
AcDbBlockEnd
  0
BLOCK
  5
696
330
68C
100
AcDbEntity
  8
0
100
AcDbBlockBegin
  2
*D47
 70
1
 10
0.0
 20
0.0
 30
0.0
  3
*D47
  1

  0
LINE
  5
6C5
330
68C
100
AcDbEntity
  8
0
 62
0
370
-2
100
AcDbLine
 10
-3634.228135672307
 20
2860.925748582517
 30
0.0
 11
-3634.228135672307
 21
2834.28313071719
 31
0.0
  0
LINE
  5
6C6
330
68C
100
AcDbEntity
  8
0
 62
0
370
-2
100
AcDbLine
 10
-3618.273186745958
 20
2860.925748582517
 30
0.0
 11
-3618.273186745958
 21
2834.28313071719
 31
0.0
  0
LINE
  5
6C7
330
68C
100
AcDbEntity
  8
0
 62
0
370
-2
100
AcDbLine
 10
-3631.728135672307
 20
2835.53313071719
 30
0.0
 11
-3620.773186745958
 21
2835.53313071719
 31
0.0
  0
SOLID
  5
6C8
330
68C
100
AcDbEntity
  8
0
 62
0
100
AcDbTrace
 10
-3631.728135672307
 20
2835.949797383856
 30
0.0
 11
-3631.728135672307
 21
2835.116464050523
 31
0.0
 12
-3634.228135672307
 22
2835.53313071719
 32
0.0
 13
-3634.228135672307
 23
2835.53313071719
 33
0.0
  0
SOLID
  5
6C9
330
68C
100
AcDbEntity
  8
0
 62
0
100
AcDbTrace
 10
-3620.773186745958
 20
2835.116464050523
 30
0.0
 11
-3620.773186745958
 21
2835.949797383856
 31
0.0
 12
-3618.273186745958
 22
2835.53313071719
 32
0.0
 13
-3618.273186745958
 23
2835.53313071719
 33
0.0
  0
MTEXT
  5
6CA
330
68C
100
AcDbEntity
  8
0
 62
0
100
AcDbMText
 10
-3626.250661209132
 20
2837.617627923894
 30
0.0
 40
2.5
 41
0.0
 46
0.0
 71
5
  1
15,95
  0
POINT
  5
6CB
330
68C
100
AcDbEntity
  8
Defpoints
 62
0
100
AcDbPoint
 10
-3634.228135672307
 20
2861.550748582517
 30
0.0
  0
POINT
  5
6CC
330
68C
100
AcDbEntity
  8
Defpoints
 62
0
100
AcDbPoint
 10
-3618.273186745958
 20
2861.550748582517
 30
0.0
  0
POINT
  5
6CD
330
68C
100
AcDbEntity
  8
Defpoints
 62
0
100
AcDbPoint
 10
-3618.273186745958
 20
2835.53313071719
 30
0.0
  0
ENDBLK
  5
697
330
68C
100
AcDbEntity
  8
0
100
AcDbBlockEnd
  0
BLOCK
  5
716
330
715
100
AcDbEntity
  8
待检测
100
AcDbBlockBegin
  2
*D49
 70
1
 10
0.0
 20
0.0
 30
0.0
  3
*D49
  1

  0
LINE
  5
717
330
715
100
AcDbEntity
  8
待检测
 62
0
370
-2
100
AcDbLine
 10
-3578.924629140316
 20
6412.079562364175
 30
0.0
 11
-3652.099981303544
 21
6412.079562364175
 31
0.0
  0
LINE
  5
718
330
715
100
AcDbEntity
  8
待检测
 62
0
370
-2
100
AcDbLine
 10
-3578.924629140316
 20
6374.832198699693
 30
0.0
 11
-3652.099981303544
 21
6374.832198699693
 31
0.0
  0
LINE
  5
719
330
715
100
AcDbEntity
  8
待检测
 62
0
370
-2
100
AcDbLine
 10
-3650.849981303544
 20
6409.579562364175
 30
0.0
 11
-3650.849981303544
 21
6377.332198699694
 31
0.0
  0
SOLID
  5
71A
330
715
100
AcDbEntity
  8
待检测
 62
0
100
AcDbTrace
 10
-3650.433314636877
 20
6409.579562364175
 30
0.0
 11
-3651.26664797021
 21
6409.579562364175
 31
0.0
 12
-3650.849981303544
 22
6412.079562364175
 32
0.0
 13
-3650.849981303544
 23
6412.079562364175
 33
0.0
  0
SOLID
  5
71B
330
715
100
AcDbEntity
  8
待检测
 62
0
100
AcDbTrace
 10
-3651.26664797021
 20
6377.332198699694
 30
0.0
 11
-3650.433314636877
 21
6377.332198699694
 31
0.0
 12
-3650.849981303544
 22
6374.832198699693
 32
0.0
 13
-3650.849981303544
 23
6374.832198699693
 33
0.0
  0
MTEXT
  5
71C
330
715
100
AcDbEntity
  8
待检测
 62
0
100
AcDbMText
 10
-3652.934478510248
 20
6393.455880531934
 30
0.0
 40
2.5
 41
0.0
 46
0.0
 71
5
  1
37,25
 11
0.0
 21
1.0
 31
0.0
  0
POINT
  5
71D
330
715
100
AcDbEntity
  8
Defpoints
 62
0
100
AcDbPoint
 10
-3578.299629140314
 20
6412.079562364175
 30
0.0
  0
POINT
  5
71E
330
715
100
AcDbEntity
  8
Defpoints
 62
0
100
AcDbPoint
 10
-3578.299629140314
 20
6374.832198699693
 30
0.0
  0
POINT
  5
71F
330
715
100
AcDbEntity
  8
Defpoints
 62
0
100
AcDbPoint
 10
-3650.849981303544
 20
6374.832198699693
 30
0.0
  0
ENDBLK
  5
720
330
715
100
AcDbEntity
  8
待检测
100
AcDbBlockEnd
  0
BLOCK
  5
725
330
724
100
AcDbEntity
  8
待检测
100
AcDbBlockBegin
  2
*D50
 70
1
 10
0.0
 20
0.0
 30
0.0
  3
*D50
  1

  0
LINE
  5
726
330
724
100
AcDbEntity
  8
待检测
 62
0
370
-2
100
AcDbLine
 10
-3131.239747150881
 20
6383.315327737299
 30
0.0
 11
-2755.369919792074
 21
6383.315327737299
 31
0.0
  0
LINE
  5
727
330
724
100
AcDbEntity
  8
待检测
 62
0
370
-2
100
AcDbLine
 10
-3131.239747150881
 20
6669.239703526975
 30
0.0
 11
-2755.369919792074
 21
6669.239703526975
 31
0.0
  0
LINE
  5
728
330
724
100
AcDbEntity
  8
待检测
 62
0
370
-2
100
AcDbLine
 10
-2756.619919792074
 20
6385.815327737298
 30
0.0
 11
-2756.619919792074
 21
6666.739703526975
 31
0.0
  0
SOLID
  5
729
330
724
100
AcDbEntity
  8
待检测
 62
0
100
AcDbTrace
 10
-2757.03658645874
 20
6385.815327737298
 30
0.0
 11
-2756.203253125407
 21
6385.815327737298
 31
0.0
 12
-2756.619919792074
 22
6383.315327737299
 32
0.0
 13
-2756.619919792074
 23
6383.315327737299
 33
0.0
  0
SOLID
  5
72A
330
724
100
AcDbEntity
  8
待检测
 62
0
100
AcDbTrace
 10
-2756.203253125407
 20
6666.739703526975
 30
0.0
 11
-2757.03658645874
 21
6666.739703526975
 31
0.0
 12
-2756.619919792074
 22
6669.239703526975
 32
0.0
 13
-2756.619919792074
 23
6669.239703526975
 33
0.0
  0
MTEXT
  5
72B
330
724
100
AcDbEntity
  8
待检测
 62
0
100
AcDbMText
 10
-2758.704416998778
 20
6526.277515632138
 30
0.0
 40
2.5
 41
0.0
 46
0.0
 71
5
  1
285,92
 11
0.0
 21
1.0
 31
0.0
  0
POINT
  5
72C
330
724
100
AcDbEntity
  8
Defpoints
 62
0
100
AcDbPoint
 10
-3131.864747150881
 20
6383.315327737299
 30
0.0
  0
POINT
  5
72D
330
724
100
AcDbEntity
  8
Defpoints
 62
0
100
AcDbPoint
 10
-3131.864747150881
 20
6669.239703526975
 30
0.0
  0
POINT
  5
72E
330
724
100
AcDbEntity
  8
Defpoints
 62
0
100
AcDbPoint
 10
-2756.619919792074
 20
6669.239703526975
 30
0.0
  0
ENDBLK
  5
72F
330
724
100
AcDbEntity
  8
待检测
100
AcDbBlockEnd
  0
BLOCK
  5
755
330
74B
100
AcDbEntity
  8
0
100
AcDbBlockBegin
  2
*D51
 70
1
 10
0.0
 20
0.0
 30
0.0
  3
*D51
  1

  0
LINE
  5
763
330
74B
100
AcDbEntity
  8
待检测
 62
0
370
-2
100
AcDbLine
 10
5052.459360855771
 20
398.1477869678061
 30
0.0
 11
4979.284008692541
 21
398.1477869678061
 31
0.0
  0
LINE
  5
764
330
74B
100
AcDbEntity
  8
待检测
 62
0
370
-2
100
AcDbLine
 10
5052.459360855771
 20
360.9004233033243
 30
0.0
 11
4979.284008692541
 21
360.9004233033243
 31
0.0
  0
LINE
  5
765
330
74B
100
AcDbEntity
  8
待检测
 62
0
370
-2
100
AcDbLine
 10
4980.534008692542
 20
395.6477869678061
 30
0.0
 11
4980.534008692542
 21
363.4004233033242
 31
0.0
  0
SOLID
  5
766
330
74B
100
AcDbEntity
  8
待检测
 62
0
100
AcDbTrace
 10
4980.950675359209
 20
395.6477869678061
 30
0.0
 11
4980.117342025875
 21
395.6477869678061
 31
0.0
 12
4980.534008692542
 22
398.1477869678061
 32
0.0
 13
4980.534008692542
 23
398.1477869678061
 33
0.0
  0
SOLID
  5
767
330
74B
100
AcDbEntity
  8
待检测
 62
0
100
AcDbTrace
 10
4980.117342025875
 20
363.4004233033242
 30
0.0
 11
4980.950675359209
 21
363.4004233033242
 31
0.0
 12
4980.534008692542
 22
360.9004233033243
 32
0.0
 13
4980.534008692542
 23
360.9004233033243
 33
0.0
  0
MTEXT
  5
768
330
74B
100
AcDbEntity
  8
待检测
 62
0
100
AcDbMText
 10
4978.449511485838
 20
379.5241051355652
 30
0.0
 40
2.5
 41
0.0
 46
0.0
 71
5
  1
37,25
 11
0.0
 21
1.0
 31
0.0
  0
POINT
  5
769
330
74B
100
AcDbEntity
  8
Defpoints
 62
0
100
AcDbPoint
 10
5053.084360855772
 20
398.1477869678061
 30
0.0
  0
POINT
  5
76A
330
74B
100
AcDbEntity
  8
Defpoints
 62
0
100
AcDbPoint
 10
5053.084360855772
 20
360.9004233033243
 30
0.0
  0
POINT
  5
76B
330
74B
100
AcDbEntity
  8
Defpoints
 62
0
100
AcDbPoint
 10
4980.534008692542
 20
360.9004233033243
 30
0.0
  0
ENDBLK
  5
756
330
74B
100
AcDbEntity
  8
0
100
AcDbBlockEnd
  0
BLOCK
  5
761
330
757
100
AcDbEntity
  8
0
100
AcDbBlockBegin
  2
*D52
 70
1
 10
0.0
 20
0.0
 30
0.0
  3
*D52
  1

  0
LINE
  5
76C
330
757
100
AcDbEntity
  8
待检测
 62
0
370
-2
100
AcDbLine
 10
5500.144242845204
 20
369.3835523409293
 30
0.0
 11
5876.014070204012
 21
369.3835523409293
 31
0.0
  0
LINE
  5
76D
330
757
100
AcDbEntity
  8
待检测
 62
0
370
-2
100
AcDbLine
 10
5500.144242845204
 20
655.3079281306058
 30
0.0
 11
5876.014070204012
 21
655.3079281306058
 31
0.0
  0
LINE
  5
76E
330
757
100
AcDbEntity
  8
待检测
 62
0
370
-2
100
AcDbLine
 10
5874.764070204012
 20
371.8835523409293
 30
0.0
 11
5874.764070204012
 21
652.8079281306059
 31
0.0
  0
SOLID
  5
76F
330
757
100
AcDbEntity
  8
待检测
 62
0
100
AcDbTrace
 10
5874.347403537345
 20
371.8835523409293
 30
0.0
 11
5875.180736870678
 21
371.8835523409293
 31
0.0
 12
5874.764070204012
 22
369.3835523409293
 32
0.0
 13
5874.764070204012
 23
369.3835523409293
 33
0.0
  0
SOLID
  5
770
330
757
100
AcDbEntity
  8
待检测
 62
0
100
AcDbTrace
 10
5875.180736870678
 20
652.8079281306059
 30
0.0
 11
5874.347403537345
 21
652.8079281306059
 31
0.0
 12
5874.764070204012
 22
655.3079281306058
 32
0.0
 13
5874.764070204012
 23
655.3079281306058
 33
0.0
  0
MTEXT
  5
771
330
757
100
AcDbEntity
  8
待检测
 62
0
100
AcDbMText
 10
5872.679572997308
 20
512.3457402357676
 30
0.0
 40
2.5
 41
0.0
 46
0.0
 71
5
  1
285,92
 11
0.0
 21
1.0
 31
0.0
  0
POINT
  5
772
330
757
100
AcDbEntity
  8
Defpoints
 62
0
100
AcDbPoint
 10
5499.519242845205
 20
369.3835523409293
 30
0.0
  0
POINT
  5
773
330
757
100
AcDbEntity
  8
Defpoints
 62
0
100
AcDbPoint
 10
5499.519242845205
 20
655.3079281306058
 30
0.0
  0
POINT
  5
774
330
757
100
AcDbEntity
  8
Defpoints
 62
0
100
AcDbPoint
 10
5874.764070204012
 20
655.3079281306058
 30
0.0
  0
ENDBLK
  5
762
330
757
100
AcDbEntity
  8
0
100
AcDbBlockEnd
  0
BLOCK
  5
784
330
77A
100
AcDbEntity
  8
0
100
AcDbBlockBegin
  2
*D53
 70
1
 10
0.0
 20
0.0
 30
0.0
  3
*D53
  1

  0
LINE
  5
7D0
330
77A
100
AcDbEntity
  8
0
 62
0
370
-2
100
AcDbLine
 10
5052.459360855771
 20
115.0199660202456
 30
0.0
 11
5024.335782617439
 21
115.0199660202456
 31
0.0
  0
LINE
  5
7D1
330
77A
100
AcDbEntity
  8
0
 62
0
370
-2
100
AcDbLine
 10
5052.459360855771
 20
98.70684125909278
 30
0.0
 11
5024.335782617439
 21
98.70684125909278
 31
0.0
  0
LINE
  5
7D2
330
77A
100
AcDbEntity
  8
0
 62
0
370
-2
100
AcDbLine
 10
5025.58578261744
 20
112.5199660202456
 30
0.0
 11
5025.58578261744
 21
101.2068412590928
 31
0.0
  0
SOLID
  5
7D3
330
77A
100
AcDbEntity
  8
0
 62
0
100
AcDbTrace
 10
5026.002449284106
 20
112.5199660202456
 30
0.0
 11
5025.169115950773
 21
112.5199660202456
 31
0.0
 12
5025.58578261744
 22
115.0199660202456
 32
0.0
 13
5025.58578261744
 23
115.0199660202456
 33
0.0
  0
SOLID
  5
7D4
330
77A
100
AcDbEntity
  8
0
 62
0
100
AcDbTrace
 10
5025.169115950773
 20
101.2068412590928
 30
0.0
 11
5026.002449284106
 21
101.2068412590928
 31
0.0
 12
5025.58578261744
 22
98.70684125909278
 32
0.0
 13
5025.58578261744
 23
98.70684125909278
 33
0.0
  0
MTEXT
  5
7D5
330
77A
100
AcDbEntity
  8
0
 62
0
100
AcDbMText
 10
5023.710782617439
 20
106.8634036396692
 30
0.0
 40
2.5
 41
0.0
 46
0.0
 71
5
  1
40
 11
0.0
 21
1.0
 31
0.0
  0
POINT
  5
7D6
330
77A
100
AcDbEntity
  8
Defpoints
 62
0
100
AcDbPoint
 10
5053.084360855772
 20
115.0199660202456
 30
0.0
  0
POINT
  5
7D7
330
77A
100
AcDbEntity
  8
Defpoints
 62
0
100
AcDbPoint
 10
5053.084360855772
 20
98.70684125909278
 30
0.0
  0
POINT
  5
7D8
330
77A
100
AcDbEntity
  8
Defpoints
 62
0
100
AcDbPoint
 10
5025.58578261744
 20
98.70684125909278
 30
0.0
  0
ENDBLK
  5
785
330
77A
100
AcDbEntity
  8
0
100
AcDbBlockEnd
  0
BLOCK
  5
7E5
330
7DB
100
AcDbEntity
  8
0
100
AcDbBlockBegin
  2
*D54
 70
1
 10
0.0
 20
0.0
 30
0.0
  3
*D54
  1

  0
LINE
  5
804
330
7DB
100
AcDbEntity
  8
0
 62
0
370
-2
100
AcDbLine
 10
5500.144242845204
 20
105.0186606776374
 30
0.0
 11
5522.985556182642
 21
105.0186606776374
 31
0.0
  0
LINE
  5
805
330
7DB
100
AcDbEntity
  8
0
 62
0
370
-2
100
AcDbLine
 10
5500.144242845204
 20
116.2145628146663
 30
0.0
 11
5522.985556182642
 21
116.2145628146663
 31
0.0
  0
LINE
  5
806
330
7DB
100
AcDbEntity
  8
0
 62
0
370
-2
100
AcDbLine
 10
5521.735556182641
 20
107.5186606776374
 30
0.0
 11
5521.735556182641
 21
113.7145628146663
 31
0.0
  0
SOLID
  5
807
330
7DB
100
AcDbEntity
  8
0
 62
0
100
AcDbTrace
 10
5521.318889515974
 20
107.5186606776374
 30
0.0
 11
5522.152222849308
 21
107.5186606776374
 31
0.0
 12
5521.735556182641
 22
105.0186606776374
 32
0.0
 13
5521.735556182641
 23
105.0186606776374
 33
0.0
  0
SOLID
  5
808
330
7DB
100
AcDbEntity
  8
0
 62
0
100
AcDbTrace
 10
5522.152222849308
 20
113.7145628146663
 30
0.0
 11
5521.318889515974
 21
113.7145628146663
 31
0.0
 12
5521.735556182641
 22
116.2145628146663
 32
0.0
 13
5521.735556182641
 23
116.2145628146663
 33
0.0
  0
MTEXT
  5
809
330
7DB
100
AcDbEntity
  8
0
 62
0
100
AcDbMText
 10
5519.860556182642
 20
110.6166117461518
 30
0.0
 40
2.5
 41
0.0
 46
0.0
 71
5
  1
20
 11
0.0
 21
1.0
 31
0.0
  0
POINT
  5
80A
330
7DB
100
AcDbEntity
  8
Defpoints
 62
0
100
AcDbPoint
 10
5499.519242845205
 20
105.0186606776374
 30
0.0
  0
POINT
  5
80B
330
7DB
100
AcDbEntity
  8
Defpoints
 62
0
100
AcDbPoint
 10
5499.519242845205
 20
116.2145628146663
 30
0.0
  0
POINT
  5
80C
330
7DB
100
AcDbEntity
  8
Defpoints
 62
0
100
AcDbPoint
 10
5521.735556182641
 20
116.2145628146663
 30
0.0
  0
ENDBLK
  5
7E6
330
7DB
100
AcDbEntity
  8
0
100
AcDbBlockEnd
  0
BLOCK
  5
857
330
856
100
AcDbEntity
  8
0
100
AcDbBlockBegin
  2
*D56
 70
1
 10
0.0
 20
0.0
 30
0.0
  3
*D56
  1

  0
LINE
  5
858
330
856
100
AcDbEntity
  8
待检测
 62
0
370
-2
100
AcDbLine
 10
5052.459360855771
 20
398.1477869678061
 30
0.0
 11
4979.284008692541
 21
398.1477869678061
 31
0.0
  0
LINE
  5
859
330
856
100
AcDbEntity
  8
待检测
 62
0
370
-2
100
AcDbLine
 10
5052.459360855771
 20
360.9004233033243
 30
0.0
 11
4979.284008692541
 21
360.9004233033243
 31
0.0
  0
LINE
  5
85A
330
856
100
AcDbEntity
  8
待检测
 62
0
370
-2
100
AcDbLine
 10
4980.534008692542
 20
395.6477869678061
 30
0.0
 11
4980.534008692542
 21
363.4004233033242
 31
0.0
  0
SOLID
  5
85B
330
856
100
AcDbEntity
  8
待检测
 62
0
100
AcDbTrace
 10
4980.950675359209
 20
395.6477869678061
 30
0.0
 11
4980.117342025875
 21
395.6477869678061
 31
0.0
 12
4980.534008692542
 22
398.1477869678061
 32
0.0
 13
4980.534008692542
 23
398.1477869678061
 33
0.0
  0
SOLID
  5
85C
330
856
100
AcDbEntity
  8
待检测
 62
0
100
AcDbTrace
 10
4980.117342025875
 20
363.4004233033242
 30
0.0
 11
4980.950675359209
 21
363.4004233033242
 31
0.0
 12
4980.534008692542
 22
360.9004233033243
 32
0.0
 13
4980.534008692542
 23
360.9004233033243
 33
0.0
  0
MTEXT
  5
85D
330
856
100
AcDbEntity
  8
待检测
 62
0
100
AcDbMText
 10
4978.449511485838
 20
379.5241051355652
 30
0.0
 40
2.5
 41
0.0
 46
0.0
 71
5
  1
37,25
 11
0.0
 21
1.0
 31
0.0
  0
POINT
  5
85E
330
856
100
AcDbEntity
  8
Defpoints
 62
0
100
AcDbPoint
 10
5053.084360855772
 20
398.1477869678061
 30
0.0
  0
POINT
  5
85F
330
856
100
AcDbEntity
  8
Defpoints
 62
0
100
AcDbPoint
 10
5053.084360855772
 20
360.9004233033243
 30
0.0
  0
POINT
  5
860
330
856
100
AcDbEntity
  8
Defpoints
 62
0
100
AcDbPoint
 10
4980.534008692542
 20
360.9004233033243
 30
0.0
  0
ENDBLK
  5
861
330
856
100
AcDbEntity
  8
0
100
AcDbBlockEnd
  0
BLOCK
  5
866
330
865
100
AcDbEntity
  8
0
100
AcDbBlockBegin
  2
*D57
 70
1
 10
0.0
 20
0.0
 30
0.0
  3
*D57
  1

  0
LINE
  5
867
330
865
100
AcDbEntity
  8
待检测
 62
0
370
-2
100
AcDbLine
 10
5500.144242845204
 20
369.3835523409293
 30
0.0
 11
5876.014070204012
 21
369.3835523409293
 31
0.0
  0
LINE
  5
868
330
865
100
AcDbEntity
  8
待检测
 62
0
370
-2
100
AcDbLine
 10
5500.144242845204
 20
655.3079281306058
 30
0.0
 11
5876.014070204012
 21
655.3079281306058
 31
0.0
  0
LINE
  5
869
330
865
100
AcDbEntity
  8
待检测
 62
0
370
-2
100
AcDbLine
 10
5874.764070204012
 20
371.8835523409293
 30
0.0
 11
5874.764070204012
 21
652.8079281306059
 31
0.0
  0
SOLID
  5
86A
330
865
100
AcDbEntity
  8
待检测
 62
0
100
AcDbTrace
 10
5874.347403537345
 20
371.8835523409293
 30
0.0
 11
5875.180736870678
 21
371.8835523409293
 31
0.0
 12
5874.764070204012
 22
369.3835523409293
 32
0.0
 13
5874.764070204012
 23
369.3835523409293
 33
0.0
  0
SOLID
  5
86B
330
865
100
AcDbEntity
  8
待检测
 62
0
100
AcDbTrace
 10
5875.180736870678
 20
652.8079281306059
 30
0.0
 11
5874.347403537345
 21
652.8079281306059
 31
0.0
 12
5874.764070204012
 22
655.3079281306058
 32
0.0
 13
5874.764070204012
 23
655.3079281306058
 33
0.0
  0
MTEXT
  5
86C
330
865
100
AcDbEntity
  8
待检测
 62
0
100
AcDbMText
 10
5872.679572997308
 20
512.3457402357676
 30
0.0
 40
2.5
 41
0.0
 46
0.0
 71
5
  1
285,92
 11
0.0
 21
1.0
 31
0.0
  0
POINT
  5
86D
330
865
100
AcDbEntity
  8
Defpoints
 62
0
100
AcDbPoint
 10
5499.519242845205
 20
369.3835523409293
 30
0.0
  0
POINT
  5
86E
330
865
100
AcDbEntity
  8
Defpoints
 62
0
100
AcDbPoint
 10
5499.519242845205
 20
655.3079281306058
 30
0.0
  0
POINT
  5
86F
330
865
100
AcDbEntity
  8
Defpoints
 62
0
100
AcDbPoint
 10
5874.764070204012
 20
655.3079281306058
 30
0.0
  0
ENDBLK
  5
870
330
865
100
AcDbEntity
  8
0
100
AcDbBlockEnd
  0
BLOCK
  5
876
330
875
100
AcDbEntity
  8
0
100
AcDbBlockBegin
  2
*D58
 70
1
 10
0.0
 20
0.0
 30
0.0
  3
*D58
  1

  0
LINE
  5
877
330
875
100
AcDbEntity
  8
0
 62
0
370
-2
100
AcDbLine
 10
5052.459360855771
 20
115.0199660202456
 30
0.0
 11
5024.335782617439
 21
115.0199660202456
 31
0.0
  0
LINE
  5
878
330
875
100
AcDbEntity
  8
0
 62
0
370
-2
100
AcDbLine
 10
5052.459360855771
 20
98.70684125909278
 30
0.0
 11
5024.335782617439
 21
98.70684125909278
 31
0.0
  0
LINE
  5
879
330
875
100
AcDbEntity
  8
0
 62
0
370
-2
100
AcDbLine
 10
5025.58578261744
 20
112.5199660202456
 30
0.0
 11
5025.58578261744
 21
101.2068412590928
 31
0.0
  0
SOLID
  5
87A
330
875
100
AcDbEntity
  8
0
 62
0
100
AcDbTrace
 10
5026.002449284106
 20
112.5199660202456
 30
0.0
 11
5025.169115950773
 21
112.5199660202456
 31
0.0
 12
5025.58578261744
 22
115.0199660202456
 32
0.0
 13
5025.58578261744
 23
115.0199660202456
 33
0.0
  0
SOLID
  5
87B
330
875
100
AcDbEntity
  8
0
 62
0
100
AcDbTrace
 10
5025.169115950773
 20
101.2068412590928
 30
0.0
 11
5026.002449284106
 21
101.2068412590928
 31
0.0
 12
5025.58578261744
 22
98.70684125909278
 32
0.0
 13
5025.58578261744
 23
98.70684125909278
 33
0.0
  0
MTEXT
  5
87C
330
875
100
AcDbEntity
  8
0
 62
0
100
AcDbMText
 10
5023.710782617439
 20
106.8634036396692
 30
0.0
 40
2.5
 41
0.0
 46
0.0
 71
5
  1
40
 11
0.0
 21
1.0
 31
0.0
  0
POINT
  5
87D
330
875
100
AcDbEntity
  8
Defpoints
 62
0
100
AcDbPoint
 10
5053.084360855772
 20
115.0199660202456
 30
0.0
  0
POINT
  5
87E
330
875
100
AcDbEntity
  8
Defpoints
 62
0
100
AcDbPoint
 10
5053.084360855772
 20
98.70684125909278
 30
0.0
  0
POINT
  5
87F
330
875
100
AcDbEntity
  8
Defpoints
 62
0
100
AcDbPoint
 10
5025.58578261744
 20
98.70684125909278
 30
0.0
  0
ENDBLK
  5
880
330
875
100
AcDbEntity
  8
0
100
AcDbBlockEnd
  0
BLOCK
  5
886
330
885
100
AcDbEntity
  8
0
100
AcDbBlockBegin
  2
*D59
 70
1
 10
0.0
 20
0.0
 30
0.0
  3
*D59
  1

  0
LINE
  5
887
330
885
100
AcDbEntity
  8
0
 62
0
370
-2
100
AcDbLine
 10
5500.144242845204
 20
105.0186606776374
 30
0.0
 11
5522.985556182642
 21
105.0186606776374
 31
0.0
  0
LINE
  5
888
330
885
100
AcDbEntity
  8
0
 62
0
370
-2
100
AcDbLine
 10
5500.144242845204
 20
116.2145628146663
 30
0.0
 11
5522.985556182642
 21
116.2145628146663
 31
0.0
  0
LINE
  5
889
330
885
100
AcDbEntity
  8
0
 62
0
370
-2
100
AcDbLine
 10
5521.735556182641
 20
107.5186606776374
 30
0.0
 11
5521.735556182641
 21
113.7145628146663
 31
0.0
  0
SOLID
  5
88A
330
885
100
AcDbEntity
  8
0
 62
0
100
AcDbTrace
 10
5521.318889515974
 20
107.5186606776374
 30
0.0
 11
5522.152222849308
 21
107.5186606776374
 31
0.0
 12
5521.735556182641
 22
105.0186606776374
 32
0.0
 13
5521.735556182641
 23
105.0186606776374
 33
0.0
  0
SOLID
  5
88B
330
885
100
AcDbEntity
  8
0
 62
0
100
AcDbTrace
 10
5522.152222849308
 20
113.7145628146663
 30
0.0
 11
5521.318889515974
 21
113.7145628146663
 31
0.0
 12
5521.735556182641
 22
116.2145628146663
 32
0.0
 13
5521.735556182641
 23
116.2145628146663
 33
0.0
  0
MTEXT
  5
88C
330
885
100
AcDbEntity
  8
0
 62
0
100
AcDbMText
 10
5519.860556182642
 20
110.6166117461518
 30
0.0
 40
2.5
 41
0.0
 46
0.0
 71
5
  1
20
 11
0.0
 21
1.0
 31
0.0
  0
POINT
  5
88D
330
885
100
AcDbEntity
  8
Defpoints
 62
0
100
AcDbPoint
 10
5499.519242845205
 20
105.0186606776374
 30
0.0
  0
POINT
  5
88E
330
885
100
AcDbEntity
  8
Defpoints
 62
0
100
AcDbPoint
 10
5499.519242845205
 20
116.2145628146663
 30
0.0
  0
POINT
  5
88F
330
885
100
AcDbEntity
  8
Defpoints
 62
0
100
AcDbPoint
 10
5521.735556182641
 20
116.2145628146663
 30
0.0
  0
ENDBLK
  5
890
330
885
100
AcDbEntity
  8
0
100
AcDbBlockEnd
  0
BLOCK
  5
8B8
330
8AE
100
AcDbEntity
  8
0
100
AcDbBlockBegin
  2
*D60
 70
1
 10
0.0
 20
0.0
 30
0.0
  3
*D60
  1

  0
LINE
  5
8DE
330
8AE
100
AcDbEntity
  8
待检测
 62
0
370
-2
100
AcDbLine
 10
6317.601791455142
 20
-95.01789931839949
 30
0.0
 11
6244.426439291911
 21
-95.01789931839949
 31
0.0
  0
LINE
  5
8DF
330
8AE
100
AcDbEntity
  8
待检测
 62
0
370
-2
100
AcDbLine
 10
6317.601791455142
 20
-132.2652629828812
 30
0.0
 11
6244.426439291911
 21
-132.2652629828812
 31
0.0
  0
LINE
  5
8E0
330
8AE
100
AcDbEntity
  8
待检测
 62
0
370
-2
100
AcDbLine
 10
6245.676439291911
 20
-97.51789931839949
 30
0.0
 11
6245.676439291911
 21
-129.7652629828812
 31
0.0
  0
SOLID
  5
8E1
330
8AE
100
AcDbEntity
  8
待检测
 62
0
100
AcDbTrace
 10
6246.093105958578
 20
-97.51789931839949
 30
0.0
 11
6245.259772625244
 21
-97.51789931839949
 31
0.0
 12
6245.676439291911
 22
-95.01789931839949
 32
0.0
 13
6245.676439291911
 23
-95.01789931839949
 33
0.0
  0
SOLID
  5
8E2
330
8AE
100
AcDbEntity
  8
待检测
 62
0
100
AcDbTrace
 10
6245.259772625244
 20
-129.7652629828812
 30
0.0
 11
6246.093105958578
 21
-129.7652629828812
 31
0.0
 12
6245.676439291911
 22
-132.2652629828812
 32
0.0
 13
6245.676439291911
 23
-132.2652629828812
 33
0.0
  0
MTEXT
  5
8E3
330
8AE
100
AcDbEntity
  8
待检测
 62
0
100
AcDbMText
 10
6243.591942085207
 20
-113.6415811506404
 30
0.0
 40
2.5
 41
0.0
 46
0.0
 71
5
  1
37,25
 11
0.0
 21
1.0
 31
0.0
  0
POINT
  5
8E4
330
8AE
100
AcDbEntity
  8
Defpoints
 62
0
100
AcDbPoint
 10
6318.226791455141
 20
-95.01789931839949
 30
0.0
  0
POINT
  5
8E5
330
8AE
100
AcDbEntity
  8
Defpoints
 62
0
100
AcDbPoint
 10
6318.226791455141
 20
-132.2652629828812
 30
0.0
  0
POINT
  5
8E6
330
8AE
100
AcDbEntity
  8
Defpoints
 62
0
100
AcDbPoint
 10
6245.676439291911
 20
-132.2652629828812
 30
0.0
  0
ENDBLK
  5
8B9
330
8AE
100
AcDbEntity
  8
0
100
AcDbBlockEnd
  0
BLOCK
  5
8C4
330
8BA
100
AcDbEntity
  8
0
100
AcDbBlockBegin
  2
*D61
 70
1
 10
0.0
 20
0.0
 30
0.0
  3
*D61
  1

  0
LINE
  5
903
330
8BA
100
AcDbEntity
  8
待检测
 62
0
370
-2
100
AcDbLine
 10
6765.286673444574
 20
-123.7821339452762
 30
0.0
 11
7141.156500803382
 21
-123.7821339452762
 31
0.0
  0
LINE
  5
904
330
8BA
100
AcDbEntity
  8
待检测
 62
0
370
-2
100
AcDbLine
 10
6765.286673444574
 20
162.1422418444003
 30
0.0
 11
7141.156500803382
 21
162.1422418444003
 31
0.0
  0
LINE
  5
905
330
8BA
100
AcDbEntity
  8
待检测
 62
0
370
-2
100
AcDbLine
 10
7139.906500803381
 20
-121.2821339452762
 30
0.0
 11
7139.906500803381
 21
159.6422418444003
 31
0.0
  0
SOLID
  5
906
330
8BA
100
AcDbEntity
  8
待检测
 62
0
100
AcDbTrace
 10
7139.489834136714
 20
-121.2821339452762
 30
0.0
 11
7140.323167470048
 21
-121.2821339452762
 31
0.0
 12
7139.906500803381
 22
-123.7821339452762
 32
0.0
 13
7139.906500803381
 23
-123.7821339452762
 33
0.0
  0
SOLID
  5
907
330
8BA
100
AcDbEntity
  8
待检测
 62
0
100
AcDbTrace
 10
7140.323167470048
 20
159.6422418444003
 30
0.0
 11
7139.489834136714
 21
159.6422418444003
 31
0.0
 12
7139.906500803381
 22
162.1422418444003
 32
0.0
 13
7139.906500803381
 23
162.1422418444003
 33
0.0
  0
MTEXT
  5
908
330
8BA
100
AcDbEntity
  8
待检测
 62
0
100
AcDbMText
 10
7137.822003596678
 20
19.18005394956208
 30
0.0
 40
2.5
 41
0.0
 46
0.0
 71
5
  1
285,92
 11
0.0
 21
1.0
 31
0.0
  0
POINT
  5
909
330
8BA
100
AcDbEntity
  8
Defpoints
 62
0
100
AcDbPoint
 10
6764.661673444575
 20
-123.7821339452762
 30
0.0
  0
POINT
  5
90A
330
8BA
100
AcDbEntity
  8
Defpoints
 62
0
100
AcDbPoint
 10
6764.661673444575
 20
162.1422418444003
 30
0.0
  0
POINT
  5
90B
330
8BA
100
AcDbEntity
  8
Defpoints
 62
0
100
AcDbPoint
 10
7139.906500803381
 20
162.1422418444003
 30
0.0
  0
ENDBLK
  5
8C5
330
8BA
100
AcDbEntity
  8
0
100
AcDbBlockEnd
  0
BLOCK
  5
8D0
330
8C6
100
AcDbEntity
  8
0
100
AcDbBlockBegin
  2
*D62
 70
1
 10
0.0
 20
0.0
 30
0.0
  3
*D62
  1

  0
LINE
  5
8F0
330
8C6
100
AcDbEntity
  8
0
 62
0
370
-2
100
AcDbLine
 10
6317.601791455142
 20
-378.1457202659599
 30
0.0
 11
6289.47821321681
 21
-378.1457202659599
 31
0.0
  0
LINE
  5
8F1
330
8C6
100
AcDbEntity
  8
0
 62
0
370
-2
100
AcDbLine
 10
6317.601791455142
 20
-394.4588450271127
 30
0.0
 11
6289.47821321681
 21
-394.4588450271127
 31
0.0
  0
LINE
  5
8F2
330
8C6
100
AcDbEntity
  8
0
 62
0
370
-2
100
AcDbLine
 10
6290.728213216809
 20
-380.6457202659599
 30
0.0
 11
6290.728213216809
 21
-391.9588450271127
 31
0.0
  0
SOLID
  5
8F3
330
8C6
100
AcDbEntity
  8
0
 62
0
100
AcDbTrace
 10
6291.144879883476
 20
-380.6457202659599
 30
0.0
 11
6290.311546550142
 21
-380.6457202659599
 31
0.0
 12
6290.728213216809
 22
-378.1457202659599
 32
0.0
 13
6290.728213216809
 23
-378.1457202659599
 33
0.0
  0
SOLID
  5
8F4
330
8C6
100
AcDbEntity
  8
0
 62
0
100
AcDbTrace
 10
6290.311546550142
 20
-391.9588450271127
 30
0.0
 11
6291.144879883476
 21
-391.9588450271127
 31
0.0
 12
6290.728213216809
 22
-394.4588450271127
 32
0.0
 13
6290.728213216809
 23
-394.4588450271127
 33
0.0
  0
MTEXT
  5
8F5
330
8C6
100
AcDbEntity
  8
0
 62
0
100
AcDbMText
 10
6288.85321321681
 20
-386.3022826465363
 30
0.0
 40
2.5
 41
0.0
 46
0.0
 71
5
  1
40
 11
0.0
 21
1.0
 31
0.0
  0
POINT
  5
8F6
330
8C6
100
AcDbEntity
  8
Defpoints
 62
0
100
AcDbPoint
 10
6318.226791455141
 20
-378.1457202659599
 30
0.0
  0
POINT
  5
8F7
330
8C6
100
AcDbEntity
  8
Defpoints
 62
0
100
AcDbPoint
 10
6318.226791455141
 20
-394.4588450271127
 30
0.0
  0
POINT
  5
8F8
330
8C6
100
AcDbEntity
  8
Defpoints
 62
0
100
AcDbPoint
 10
6290.728213216809
 20
-394.4588450271127
 30
0.0
  0
ENDBLK
  5
8D1
330
8C6
100
AcDbEntity
  8
0
100
AcDbBlockEnd
  0
BLOCK
  5
8DC
330
8D2
100
AcDbEntity
  8
0
100
AcDbBlockBegin
  2
*D63
 70
1
 10
0.0
 20
0.0
 30
0.0
  3
*D63
  1

  0
LINE
  5
8F9
330
8D2
100
AcDbEntity
  8
0
 62
0
370
-2
100
AcDbLine
 10
6765.286673444574
 20
-388.1470256085681
 30
0.0
 11
6788.127986782011
 21
-388.1470256085681
 31
0.0
  0
LINE
  5
8FA
330
8D2
100
AcDbEntity
  8
0
 62
0
370
-2
100
AcDbLine
 10
6765.286673444574
 20
-376.9511234715392
 30
0.0
 11
6788.127986782011
 21
-376.9511234715392
 31
0.0
  0
LINE
  5
8FB
330
8D2
100
AcDbEntity
  8
0
 62
0
370
-2
100
AcDbLine
 10
6786.877986782011
 20
-385.6470256085681
 30
0.0
 11
6786.877986782011
 21
-379.4511234715392
 31
0.0
  0
SOLID
  5
8FC
330
8D2
100
AcDbEntity
  8
0
 62
0
100
AcDbTrace
 10
6786.461320115344
 20
-385.6470256085681
 30
0.0
 11
6787.294653448679
 21
-385.6470256085681
 31
0.0
 12
6786.877986782011
 22
-388.1470256085681
 32
0.0
 13
6786.877986782011
 23
-388.1470256085681
 33
0.0
  0
SOLID
  5
8FD
330
8D2
100
AcDbEntity
  8
0
 62
0
100
AcDbTrace
 10
6787.294653448679
 20
-379.4511234715392
 30
0.0
 11
6786.461320115344
 21
-379.4511234715392
 31
0.0
 12
6786.877986782011
 22
-376.9511234715392
 32
0.0
 13
6786.877986782011
 23
-376.9511234715392
 33
0.0
  0
MTEXT
  5
8FE
330
8D2
100
AcDbEntity
  8
0
 62
0
100
AcDbMText
 10
6785.002986782011
 20
-382.5490745400537
 30
0.0
 40
2.5
 41
0.0
 46
0.0
 71
5
  1
20
 11
0.0
 21
1.0
 31
0.0
  0
POINT
  5
8FF
330
8D2
100
AcDbEntity
  8
Defpoints
 62
0
100
AcDbPoint
 10
6764.661673444575
 20
-388.1470256085681
 30
0.0
  0
POINT
  5
900
330
8D2
100
AcDbEntity
  8
Defpoints
 62
0
100
AcDbPoint
 10
6764.661673444575
 20
-376.9511234715392
 30
0.0
  0
POINT
  5
901
330
8D2
100
AcDbEntity
  8
Defpoints
 62
0
100
AcDbPoint
 10
6786.877986782011
 20
-376.9511234715392
 30
0.0
  0
ENDBLK
  5
8DD
330
8D2
100
AcDbEntity
  8
0
100
AcDbBlockEnd
  0
ENDSEC
  0
SECTION
  2
ENTITIES
  0
TEXT
  5
2C8
330
1F
100
AcDbEntity
  8
100-TX1
  6
Continuous
 62
3
100
AcDbText
 10
519.8022333711642
 20
945.564546064339
 30
0.0
 40
150.0
  1
BK600
  7
JNRD_E1
 41
0.8
100
AcDbText
  0
LINE
  5
2C9
330
1F
100
AcDbEntity
  8
0
100
AcDbLine
 10
327.7771367836767
 20
885.4176754249719
 30
0.0
 11
1383.704931611766
 21
885.4176754249719
 31
0.0
  0
LINE
  5
2CA
330
1F
100
AcDbEntity
  8
0
100
AcDbLine
 10
611.7085801278126
 20
832.7394499323391
 30
0.0
 11
611.7085801278126
 21
314.3486548162655
 31
0.0
  0
LINE
  5
2CB
102
{ACAD_REACTORS
330
2D4
102
}
330
1F
100
AcDbEntity
  8
Free_Edge
100
AcDbLine
 10
611.7085801278126
 20
403.7513866818617
 30
0.0
 11
627.6431321024083
 21
403.7513866818617
 31
0.0
  0
LINE
  5
2CC
330
1F
100
AcDbEntity
  8
0
100
AcDbLine
 10
577.4653049895531
 20
686.8792076294221
 30
0.0
 11
1058.143462117247
 21
686.8792076294221
 31
0.0
  0
LINE
  5
2CD
102
{ACAD_REACTORS
330
2D7
330
2DA
330
2DF
102
}
330
1F
100
AcDbEntity
  8
0
100
AcDbLine
 10
1058.143462117247
 20
686.8792076294221
 30
0.0
 11
1058.143462117247
 21
393.7500813392517
 31
0.0
  0
LINE
  5
2CE
330
1F
100
AcDbEntity
  8
Free_Edge
100
AcDbLine
 10
1058.143462117247
 20
393.7500813392517
 30
0.0
 11
1042.188513190898
 21
393.7500813392517
 31
0.0
  0
ARC
  5
2CF
330
1F
100
AcDbEntity
  8
Free_Edge
100
AcDbCircle
 10
878.3723326945519
 20
377.9124660168291
 30
0.0
 40
252.0571003774929
100
AcDbArc
 50
113.4029042313437
 51
174.1161490668428
  0
DIMENSION
  5
2D1
330
1F
100
AcDbEntity
  8
0
100
AcDbDimension
280
0
  2
*D8
  3
ISO-25
 10
611.7085801278126
 20
589.2525975583557
 30
0.0
 11
656.6346759748149
 21
591.3370947650596
 31
0.0
 70
32
 71
5
 42
89.85219169400442
 73
0
 74
0
 75
0
100
AcDbAlignedDimension
 13
701.560771821817
 23
558.2670808423345
 33
0.0
 14
611.7085801278126
 24
558.2670808423345
 34
0.0
 50
0.0
100
AcDbRotatedDimension
  0
DIMENSION
  5
2D2
102
{ACAD_XDICTIONARY
360
2D3
102
}
102
{ACAD_REACTORS
330
2D4
102
}
330
1F
100
AcDbEntity
  8
0
100
AcDbDimension
280
0
  2
*D9
  3
ISO-25
 10
701.560771821817
 20
558.2670808423345
 30
0.0
 11
622.2785367289304
 21
412.264558660299
 31
0.0
 70
34
 71
5
 42
2.017001047307396
 73
0
 74
0
 75
0
100
AcDb2LineAngularDimension
 13
611.7085801278126
 23
403.7513866818617
 33
0.0
 14
627.6431321024083
 24
403.7513866818617
 34
0.0
 15
627.6431321024083
 25
403.7513866818617
 35
0.0
 16
625.8074498520654
 26
411.7304012703161
 36
0.0
  0
DIMENSION
  5
2D5
102
{ACAD_XDICTIONARY
360
2D6
102
}
102
{ACAD_REACTORS
330
2D7
102
}
330
1F
100
AcDbEntity
  8
0
100
AcDbDimension
280
0
  2
*D10
  3
ISO-25
 10
1058.143462117247
 20
393.7500813392517
 30
0.0
 11
1031.848219487113
 21
502.6472765927064
 31
0.0
 70
34
 71
5
 42
0.3374355402790181
 73
0
 74
0
 75
0
100
AcDb2LineAngularDimension
 13
1042.188513190898
 23
393.7500813392517
 33
0.0
 14
989.4883293103549
 24
543.9554754208684
 34
0.0
 15
1058.143462117247
 25
686.8792076294221
 35
0.0
 16
1025.973678301601
 26
499.6144358778765
 36
0.0
  0
DIMENSION
  5
2D8
102
{ACAD_XDICTIONARY
360
2D9
102
}
102
{ACAD_REACTORS
330
2DA
102
}
330
1F
100
AcDbEntity
  8
0
100
AcDbDimension
280
0
  2
*D11
  3
ISO-25
 10
1058.143462117247
 20
781.5292791996125
 30
0.0
 11
834.9260211225301
 21
783.6137764063164
 31
0.0
 70
33
 71
5
 42
446.4348819894349
 73
0
 74
0
 75
0
100
AcDbAlignedDimension
 13
611.7085801278126
 23
686.8792076294221
 33
0.0
 14
1058.143462117247
 24
686.8792076294221
 34
0.0
 50
0.0
  0
LINE
  5
2DB
330
1F
100
AcDbEntity
  8
Free_Edge
100
AcDbLine
 10
778.2566615152118
 20
609.233961418835
 30
0.0
 11
894.2664195902889
 21
609.233961418835
 31
0.0
  0
ARC
  5
2DC
330
1F
100
AcDbEntity
  8
Free_Edge
100
AcDbCircle
 10
748.988796616819
 20
354.197324751608
 30
0.0
 40
293.5119653086598
100
AcDbArc
 50
2.643099895923371
 51
60.33267595532358
  0
DIMENSION
  5
2DD
102
{ACAD_XDICTIONARY
360
2DE
102
}
102
{ACAD_REACTORS
330
2DF
102
}
330
1F
100
AcDbEntity
  8
0
100
AcDbDimension
280
0
  2
*D12
  3
ISO-25
 10
1104.777825710543
 20
582.6001856359853
 30
0.0
 11
1102.693328503839
 21
634.7396966327037
 31
0.0
 70
32
 71
5
 42
104.2790219934368
 73
0
 74
0
 75
0
100
AcDbAlignedDimension
 13
1058.143462117247
 23
686.8792076294221
 33
0.0
 14
1058.143462117247
 24
582.6001856359853
 34
0.0
 50
90.0
100
AcDbRotatedDimension
  0
DIMENSION
  5
2E0
330
1F
100
AcDbEntity
  8
0
100
AcDbDimension
280
0
  2
*D13
  3
ISO-25
 10
1058.143462117247
 20
367.7324634739252
 30
0.0
 11
1050.165987654073
 21
369.8169606806292
 31
0.0
 70
32
 71
5
 42
15.95494892634906
 73
0
 74
0
 75
0
100
AcDbAlignedDimension
 13
1042.188513190898
 23
393.7500813392517
 33
0.0
 14
1058.143462117247
 24
393.7500813392517
 34
0.0
 50
0.0
100
AcDbRotatedDimension
  0
TEXT
  5
2E1
330
1F
100
AcDbEntity
  8
0
100
AcDbText
 10
727.0324651084165
 20
495.1162384655872
 30
0.0
 40
72.40645912757256
  1
R600
 50
1080.0
100
AcDbText
  0
LINE
  5
2E2
330
1F
100
AcDbEntity
  8
0
100
AcDbLine
 10
483.4389422995936
 20
486.9184658129007
 30
0.0
 11
630.4535451217835
 21
620.5919288176492
 31
0.0
  0
LINE
  5
2E3
330
1F
100
AcDbEntity
  8
0
100
AcDbLine
 10
124.9432818497316
 20
486.9184658129007
 30
0.0
 11
483.4389422995936
 21
486.9184658129007
 31
0.0
  0
TEXT
  5
2E4
330
1F
100
AcDbEntity
  8
100-TX1
  6
Continuous
 62
2
100
AcDbText
 10
56.51378854132872
 20
288.7220638159015
 30
0.0
 40
150.0
  1
32~DH
  7
JNRD_E1
 41
0.8
100
AcDbText
  0
ARC
  5
2E5
330
1F
100
AcDbEntity
  8
0
100
AcDbCircle
 10
611.7085801278126
 20
686.8792076294221
 30
0.0
 40
32.88820615956126
100
AcDbArc
 50
270.0
 51
0.0
  0
TEXT
  5
2E6
330
1F
100
AcDbEntity
  8
100-TX1
  6
Continuous
 62
2
100
AcDbText
 10
247.8969718897315
 20
537.653778849677
 30
0.0
 40
150.0
  1
B
  7
JNRD_E1
 41
0.8
100
AcDbText
  0
TEXT
  5
61D
330
1F
100
AcDbEntity
  8
100-TX1
  6
Continuous
 62
2
100
AcDbText
 10
2914.365179682797
 20
587.7933373413143
 30
0.0
 40
150.0
  1
BK600
  7
JNRD_E1
 41
0.8
100
AcDbText
  0
LINE
  5
61E
330
1F
100
AcDbEntity
  8
0
100
AcDbLine
 10
2949.165179682797
 20
549.7256810286221
 30
0.0
 11
3307.66084013266
 21
549.7256810286221
 31
0.0
  0
LINE
  5
61F
330
1F
100
AcDbEntity
  8
0
100
AcDbLine
 10
3367.323251260844
 20
874.7863548664781
 30
0.0
 11
3367.323251260844
 21
356.3955597504055
 31
0.0
  0
LINE
  5
620
330
1F
100
AcDbEntity
  8
Free_Edge
100
AcDbLine
 10
3367.323251260844
 20
445.7982916160013
 30
0.0
 11
3383.25780323544
 21
445.7982916160013
 31
0.0
  0
LINE
  5
621
330
1F
100
AcDbEntity
  8
0
100
AcDbLine
 10
3333.079976122585
 20
728.9261125635607
 30
0.0
 11
3813.758133250278
 21
728.9261125635607
 31
0.0
  0
LINE
  5
622
330
1F
100
AcDbEntity
  8
0
100
AcDbLine
 10
3813.758133250278
 20
728.9261125635607
 30
0.0
 11
3813.758133250278
 21
435.7969862733916
 31
0.0
  0
LINE
  5
623
330
1F
100
AcDbEntity
  8
Free_Edge
100
AcDbLine
 10
3813.758133250278
 20
435.7969862733916
 30
0.0
 11
3797.80318432393
 21
435.7969862733916
 31
0.0
  0
ARC
  5
624
330
1F
100
AcDbEntity
  8
Free_Edge
100
AcDbCircle
 10
3633.987003827584
 20
419.9593709509685
 30
0.0
 40
252.0571003774929
100
AcDbArc
 50
113.4029042313467
 51
174.1161490668427
  0
ARC
  5
625
330
1F
100
AcDbEntity
  8
0
100
AcDbCircle
 10
3813.758133250278
 20
728.9261125635607
 30
0.0
 40
28.76423462687694
100
AcDbArc
 50
180.0
 51
270.0
  0
LINE
  5
626
330
1F
100
AcDbEntity
  8
Free_Edge
100
AcDbLine
 10
3533.871332648243
 20
651.2808663529735
 30
0.0
 11
3649.881090723322
 21
651.2808663529735
 31
0.0
  0
ARC
  5
627
330
1F
100
AcDbEntity
  8
Free_Edge
100
AcDbCircle
 10
3504.603467749851
 20
396.244229685748
 30
0.0
 40
293.5119653086598
100
AcDbArc
 50
2.643099895922283
 51
60.3326759553353
  0
LINE
  5
628
330
1F
100
AcDbEntity
  8
0
100
AcDbLine
 10
3307.66084013266
 20
549.7256810286221
 30
0.0
 11
3454.67544295485
 21
683.3991440333725
 31
0.0
  0
TEXT
  5
62A
330
1F
100
AcDbEntity
  8
100-TX1
  6
Continuous
 62
2
100
AcDbText
 10
2886.202224546993
 20
342.2740666442405
 30
0.0
 40
150.0
  1
10~E
  7
JNRD_E1
 41
0.8
100
AcDbText
  0
LINE
  5
6CE
330
1F
100
AcDbEntity
  8
0
100
AcDbLine
 10
1058.143462117247
 20
686.8792076294221
 30
0.0
 11
1058.143462117247
 21
667.046799063401
 31
0.0
  0
LINE
  5
6CF
330
1F
100
AcDbEntity
  8
0
100
AcDbLine
 10
1058.143462117247
 20
667.046799063401
 30
0.0
 11
1058.143462117247
 21
686.8792076294221
 31
0.0
  0
LINE
  5
6D0
330
1F
100
AcDbEntity
  8
0
100
AcDbLine
 10
1033.512427114304
 20
686.8792076294221
 30
0.0
 11
1058.143462117247
 21
661.9507910299651
 31
0.0
  0
LINE
  5
6D1
330
1F
100
AcDbEntity
  8
0
100
AcDbLine
 10
3384.670423497369
 20
728.9261125635607
 30
0.0
 11
3367.323251260844
 21
712.4300711627586
 31
0.0
  0
LINE
  5
734
102
{ACAD_REACTORS
330
744
102
}
330
1F
100
AcDbEntity
  8
0
100
AcDbLine
 10
5053.084360855772
 20
544.0080292707238
 30
0.0
 11
5053.084360855772
 21
25.61723415465122
 31
0.0
  0
LINE
  5
735
102
{ACAD_REACTORS
330
787
102
}
330
1F
100
AcDbEntity
  8
Free_Edge
100
AcDbLine
 10
5053.084360855772
 20
115.0199660202456
 30
0.0
 11
5069.018912830366
 21
115.0199660202456
 31
0.0
  0
LINE
  5
736
102
{ACAD_REACTORS
330
744
102
}
330
1F
100
AcDbEntity
  8
0
100
AcDbLine
 10
5018.841085717512
 20
398.1477869678061
 30
0.0
 11
5499.519242845205
 21
398.1477869678061
 31
0.0
  0
LINE
  5
737
330
1F
100
AcDbEntity
  8
0
100
AcDbLine
 10
5499.519242845205
 20
398.1477869678061
 30
0.0
 11
5499.519242845205
 21
105.0186606776374
 31
0.0
  0
LINE
  5
738
102
{ACAD_REACTORS
330
7E8
102
}
330
1F
100
AcDbEntity
  8
Free_Edge
100
AcDbLine
 10
5499.519242845205
 20
105.0186606776374
 30
0.0
 11
5483.564293918856
 21
105.0186606776374
 31
0.0
  0
ARC
  5
739
330
1F
100
AcDbEntity
  8
Free_Edge
100
AcDbCircle
 10
5319.748113422511
 20
89.18104535521388
 30
0.0
 40
252.0571003774929
100
AcDbArc
 50
113.4029042313472
 51
174.1161490668425
  0
ARC
  5
73A
330
1F
100
AcDbEntity
  8
0
100
AcDbCircle
 10
5470.755008218326
 20
398.1477869678061
 30
0.0
 40
28.76423462687672
100
AcDbArc
 50
180.0
 51
270.0
  0
LINE
  5
73B
330
1F
100
AcDbEntity
  8
Free_Edge
100
AcDbLine
 10
5219.632442243169
 20
320.5025407572189
 30
0.0
 11
5335.642200318249
 21
320.5025407572189
 31
0.0
  0
ARC
  5
73C
330
1F
100
AcDbEntity
  8
Free_Edge
100
AcDbCircle
 10
5190.364577344779
 20
65.46590408999462
 30
0.0
 40
293.5119653086598
100
AcDbArc
 50
2.643099895922486
 51
60.33267595528134
  0
ARC
  5
73D
330
1F
100
AcDbEntity
  8
0
100
AcDbCircle
 10
5070.960285160813
 20
398.1477869678042
 30
0.0
 40
37.24736366447996
100
AcDbArc
 50
270.0
 51
0.0
  0
LINE
  5
73E
102
{ACAD_REACTORS
330
744
102
}
330
1F
100
AcDbEntity
  8
待检测
100
AcDbLine
 10
5070.960285160811
 20
360.9004233033243
 30
0.0
 11
5053.084360855772
 21
360.9004233033243
 31
0.0
  0
LINE
  5
73F
102
{ACAD_REACTORS
330
747
102
}
330
1F
100
AcDbEntity
  8
待检测
100
AcDbLine
 10
5470.755008218326
 20
369.3835523409293
 30
0.0
 11
5499.519242845205
 21
369.3835523409293
 31
0.0
  0
TEXT
  5
740
330
1F
100
AcDbEntity
  8
100-TX1
  6
Continuous
 62
2
100
AcDbText
 10
4607.360688156897
 20
398.1477869678061
 30
0.0
 40
150.0
  1
35X50
  7
JNRD_E1
 41
0.8
100
AcDbText
  0
TEXT
  5
741
330
1F
100
AcDbEntity
  8
100-TX1
  6
Continuous
 62
2
100
AcDbText
 10
5419.19077359145
 20
398.1477869678061
 30
0.0
 40
150.0
  1
R35
  7
JNRD_E1
 41
0.8
100
AcDbText
  0
DIMENSION
  5
742
102
{ACAD_XDICTIONARY
360
743
102
}
102
{ACAD_REACTORS
330
744
102
}
330
1F
100
AcDbEntity
  8
待检测
100
AcDbDimension
280
0
  2
*D51
  3
ISO-25
 10
4980.534008692542
 20
360.9004233033243
 30
0.0
 11
4978.449511485838
 21
379.5241051355652
 31
0.0
 70
33
 71
5
 42
37.24736366448178
 73
0
 74
0
 75
0
100
AcDbAlignedDimension
 13
5053.084360855772
 23
398.1477869678061
 33
0.0
 14
5053.084360855772
 24
360.9004233033243
 34
0.0
 50
0.0
  0
DIMENSION
  5
745
102
{ACAD_XDICTIONARY
360
746
102
}
102
{ACAD_REACTORS
330
747
102
}
330
1F
100
AcDbEntity
  8
待检测
100
AcDbDimension
280
0
  2
*D52
  3
ISO-25
 10
5874.764070204012
 20
655.3079281306058
 30
0.0
 11
5872.679572997308
 21
512.3457402357676
 31
0.0
 70
33
 71
5
 42
285.9243757896765
 73
0
 74
0
 75
0
100
AcDbAlignedDimension
 13
5499.519242845205
 23
369.3835523409293
 33
0.0
 14
5499.519242845205
 24
655.3079281306058
 34
0.0
 50
0.0
  0
LINE
  5
778
330
1F
100
AcDbEntity
  8
0
100
AcDbLine
 10
5072.026439859691
 20
98.70684125909278
 30
0.0
 11
5027.469266986219
 21
98.70684125909278
 31
0.0
  0
DIMENSION
  5
779
102
{ACAD_XDICTIONARY
360
786
102
}
102
{ACAD_REACTORS
330
787
102
}
330
1F
100
AcDbEntity
  8
0
100
AcDbDimension
280
0
  2
*D53
  3
ISO-25
 10
5025.58578261744
 20
98.70684125909278
 30
0.0
 11
5023.710782617439
 21
106.8634036396692
 31
0.0
 70
32
 71
5
 42
16.31312476115286
 73
0
 74
0
 75
0
  1
40
100
AcDbAlignedDimension
 13
5053.084360855772
 23
115.0199660202456
 33
0.0
 14
5053.084360855772
 24
98.70684125909278
 34
0.0
 50
90.0
100
AcDbRotatedDimension
1001
ACAD
1000
DSTYLE
1002
{
1070
340
1005
11
1002
}
  0
LINE
  5
7D9
102
{ACAD_REACTORS
330
7E8
102
}
330
1F
100
AcDbEntity
  8
0
100
AcDbLine
 10
5553.167581008402
 20
116.2145628146663
 30
0.0
 11
5499.519242845205
 21
116.2145628146663
 31
0.0
  0
DIMENSION
  5
7DA
102
{ACAD_XDICTIONARY
360
7E7
102
}
102
{ACAD_REACTORS
330
7E8
102
}
330
1F
100
AcDbEntity
  8
0
100
AcDbDimension
280
0
  2
*D54
  3
ISO-25
 10
5521.735556182641
 20
116.2145628146663
 30
0.0
 11
5519.860556182642
 21
110.6166117461518
 31
0.0
 70
32
 71
5
 42
11.19590213702895
 73
0
 74
0
 75
0
  1
20
100
AcDbAlignedDimension
 13
5499.519242845205
 23
105.0186606776374
 33
0.0
 14
5499.519242845205
 24
116.2145628146663
 34
0.0
 50
90.0
100
AcDbRotatedDimension
1001
ACAD
1000
DSTYLE
1002
{
1070
340
1005
11
1002
}
  0
LINE
  5
892
102
{ACAD_REACTORS
330
8A2
102
}
330
1F
100
AcDbEntity
  8
0
100
AcDbLine
 10
6318.226791455141
 20
50.84234298451838
 30
0.0
 11
6318.226791455141
 21
-467.5484521315543
 31
0.0
  0
LINE
  5
893
102
{ACAD_REACTORS
330
8A9
102
}
330
1F
100
AcDbEntity
  8
Free_Edge
100
AcDbLine
 10
6318.226791455141
 20
-378.1457202659599
 30
0.0
 11
6334.161343429737
 21
-378.1457202659599
 31
0.0
  0
LINE
  5
894
102
{ACAD_REACTORS
330
8A2
102
}
330
1F
100
AcDbEntity
  8
0
100
AcDbLine
 10
6283.983516316882
 20
-95.01789931839949
 30
0.0
 11
6764.661673444575
 21
-95.01789931839949
 31
0.0
  0
LINE
  5
895
330
1F
100
AcDbEntity
  8
0
100
AcDbLine
 10
6764.661673444575
 20
-95.01789931839949
 30
0.0
 11
6764.661673444575
 21
-388.1470256085681
 31
0.0
  0
LINE
  5
896
102
{ACAD_REACTORS
330
8AD
102
}
330
1F
100
AcDbEntity
  8
Free_Edge
100
AcDbLine
 10
6764.661673444575
 20
-388.1470256085681
 30
0.0
 11
6748.706724518226
 21
-388.1470256085681
 31
0.0
  0
ARC
  5
897
330
1F
100
AcDbEntity
  8
Free_Edge
100
AcDbCircle
 10
6584.89054402188
 20
-403.9846409309916
 30
0.0
 40
252.0571003774929
100
AcDbArc
 50
113.402904231348
 51
174.1161490668427
  0
ARC
  5
898
330
1F
100
AcDbEntity
  8
0
100
AcDbCircle
 10
6764.661673444575
 20
-115.4281139376506
 30
0.0
 40
28.76423462687672
100
AcDbArc
 50
179.9999999999989
 51
270.0
  0
LINE
  5
899
330
1F
100
AcDbEntity
  8
Free_Edge
100
AcDbLine
 10
6484.774872842539
 20
-172.6631455289866
 30
0.0
 11
6600.784630917619
 21
-172.6631455289866
 31
0.0
  0
ARC
  5
89A
330
1F
100
AcDbEntity
  8
Free_Edge
100
AcDbCircle
 10
6455.507007944149
 20
-427.6997821962108
 30
0.0
 40
293.5119653086598
100
AcDbArc
 50
2.643099895919029
 51
60.33267595527551
  0
ARC
  5
89B
330
1F
100
AcDbEntity
  8
0
100
AcDbCircle
 10
6318.22679145514
 20
-122.00160170717
 30
0.0
 40
37.24736366447965
100
AcDbArc
 50
270.0000000000014
 51
5.089e-13
  0
TEXT
  5
89E
330
1F
100
AcDbEntity
  8
100-TX1
  6
Continuous
 62
2
100
AcDbText
 10
5872.503118756267
 20
-95.01789931839949
 30
0.0
 40
150.0
  1
35X50
  7
JNRD_E1
 41
0.8
100
AcDbText
  0
TEXT
  5
89F
330
1F
100
AcDbEntity
  8
100-TX1
  6
Continuous
 62
2
100
AcDbText
 10
6684.33320419082
 20
-95.01789931839949
 30
0.0
 40
150.0
  1
R35
  7
JNRD_E1
 41
0.8
100
AcDbText
  0
DIMENSION
  5
8A0
102
{ACAD_XDICTIONARY
360
8A1
102
}
102
{ACAD_REACTORS
330
8A2
102
}
330
1F
100
AcDbEntity
  8
待检测
100
AcDbDimension
280
0
  2
*D60
  3
ISO-25
 10
6245.676439291911
 20
-132.2652629828812
 30
0.0
 11
6243.591942085207
 21
-113.6415811506404
 31
0.0
 70
33
 71
5
 42
37.24736366448178
 73
0
 74
0
 75
0
100
AcDbAlignedDimension
 13
6318.226791455141
 23
-95.01789931839949
 33
0.0
 14
6318.226791455141
 24
-132.2652629828812
 34
0.0
 50
0.0
  0
DIMENSION
  5
8A3
330
1F
100
AcDbEntity
  8
待检测
100
AcDbDimension
280
0
  2
*D61
  3
ISO-25
 10
7139.906500803381
 20
162.1422418444003
 30
0.0
 11
7137.822003596678
 21
19.18005394956208
 31
0.0
 70
33
 71
5
 42
285.9243757896765
 73
0
 74
0
 75
0
100
AcDbAlignedDimension
 13
6764.661673444575
 23
-123.7821339452762
 33
0.0
 14
6764.661673444575
 24
162.1422418444003
 34
0.0
 50
0.0
  0
LINE
  5
8A6
330
1F
100
AcDbEntity
  8
0
100
AcDbLine
 10
6337.168870459062
 20
-394.4588450271127
 30
0.0
 11
6292.61169758559
 21
-394.4588450271127
 31
0.0
  0
DIMENSION
  5
8A7
102
{ACAD_XDICTIONARY
360
8A8
102
}
102
{ACAD_REACTORS
330
8A9
102
}
330
1F
100
AcDbEntity
  8
0
100
AcDbDimension
280
0
  2
*D62
  3
ISO-25
 10
6290.728213216809
 20
-394.4588450271127
 30
0.0
 11
6288.85321321681
 21
-386.3022826465363
 31
0.0
 70
32
 71
5
 42
16.31312476115283
 73
0
 74
0
 75
0
  1
40
100
AcDbAlignedDimension
 13
6318.226791455141
 23
-378.1457202659599
 33
0.0
 14
6318.226791455141
 24
-394.4588450271127
 34
0.0
 50
90.0
100
AcDbRotatedDimension
1001
ACAD
1000
DSTYLE
1002
{
1070
340
1005
11
1002
}
  0
LINE
  5
8AA
102
{ACAD_REACTORS
330
8AD
102
}
330
1F
100
AcDbEntity
  8
0
100
AcDbLine
 10
6818.310011607771
 20
-376.9511234715392
 30
0.0
 11
6764.661673444575
 21
-376.9511234715392
 31
0.0
  0
DIMENSION
  5
8AB
102
{ACAD_XDICTIONARY
360
8AC
102
}
102
{ACAD_REACTORS
330
8AD
102
}
330
1F
100
AcDbEntity
  8
0
100
AcDbDimension
280
0
  2
*D63
  3
ISO-25
 10
6786.877986782011
 20
-376.9511234715392
 30
0.0
 11
6785.002986782011
 21
-382.5490745400537
 31
0.0
 70
32
 71
5
 42
11.19590213702895
 73
0
 74
0
 75
0
  1
20
100
AcDbAlignedDimension
 13
6764.661673444575
 23
-388.1470256085681
 33
0.0
 14
6764.661673444575
 24
-376.9511234715392
 34
0.0
 50
90.0
100
AcDbRotatedDimension
1001
ACAD
1000
DSTYLE
1002
{
1070
340
1005
11
1002
}
  0
LINE
  5
902
330
1F
100
AcDbEntity
  8
0
100
AcDbLine
 10
6355.47415511962
 20
-122.0016017071697
 30
0.0
 11
6355.47415511962
 21
-95.01789931839949
 31
0.0
  0
LINE
  5
90C
330
1F
100
AcDbEntity
  8
0
100
AcDbLine
 10
6735.897438817698
 20
-115.42811393765
 30
0.0
 11
6735.897438817698
 21
-95.01789931839949
 31
0.0
  0
LWPOLYLINE
  5
911
330
1F
100
AcDbEntity
  8
Braket
100
AcDbPolyline
 90
4
 70
1
 10
5033.084360855772
 20
85.0186606776374
 10
5519.519242845205
 20
85.0186606776374
 10
5519.519242845205
 20
418.1477869678061
 10
5033.084360855772
 20
418.1477869678061
  0
TEXT
  5
912
330
1F
100
AcDbEntity
  8
Braket
100
AcDbText
 10
5276.301801850488
 20
418.1477869678061
 30
0.0
 40
50.0
  1
DPK(VU-VU)
100
AcDbText
  0
TEXT
  5
913
330
1F
100
AcDbEntity
  8
Braket
100
AcDbText
 10
5276.301801850488
 20
85.0186606776374
 30
0.0
 40
50.0
  1
poly_id 0
100
AcDbText
  0
LWPOLYLINE
  5
914
330
1F
100
AcDbEntity
  8
Braket
100
AcDbPolyline
 90
4
 70
1
 10
591.7085801278126
 20
373.7500813392517
 10
1078.143462117247
 20
373.7500813392517
 10
1078.143462117247
 20
706.8792076294221
 10
591.7085801278126
 20
706.8792076294221
  0
TEXT
  5
915
330
1F
100
AcDbEntity
  8
Braket
100
AcDbText
 10
834.9260211225298
 20
706.8792076294221
 30
0.0
 40
50.0
  1
DPK(R-KS)
100
AcDbText
  0
TEXT
  5
916
330
1F
100
AcDbEntity
  8
Braket
100
AcDbText
 10
834.9260211225298
 20
373.7500813392517
 30
0.0
 40
50.0
  1
poly_id 1
100
AcDbText
  0
LWPOLYLINE
  5
917
330
1F
100
AcDbEntity
  8
Braket
100
AcDbPolyline
 90
4
 70
1
 10
3347.323251260844
 20
415.7969862733916
 10
3833.758133250278
 20
415.7969862733916
 10
3833.758133250278
 20
748.9261125635607
 10
3347.323251260844
 20
748.9261125635607
  0
TEXT
  5
918
330
1F
100
AcDbEntity
  8
Braket
100
AcDbText
 10
3590.540692255561
 20
748.9261125635607
 30
0.0
 40
50.0
  1
DPK(R-KS)
100
AcDbText
  0
TEXT
  5
919
330
1F
100
AcDbEntity
  8
Braket
100
AcDbText
 10
3590.540692255561
 20
415.7969862733916
 30
0.0
 40
50.0
  1
poly_id 2
100
AcDbText
  0
LWPOLYLINE
  5
91A
330
1F
100
AcDbEntity
  8
Braket
100
AcDbPolyline
 90
4
 70
1
 10
6298.226791455141
 20
-408.1470256085681
 10
6784.661673444575
 20
-408.1470256085681
 10
6784.661673444575
 20
-75.01789931839949
 10
6298.226791455141
 20
-75.01789931839949
  0
TEXT
  5
91B
330
1F
100
AcDbEntity
  8
Braket
100
AcDbText
 10
6541.444232449858
 20
-75.01789931839949
 30
0.0
 40
50.0
  1
DPK(VU)
100
AcDbText
  0
TEXT
  5
91C
330
1F
100
AcDbEntity
  8
Braket
100
AcDbText
 10
6541.444232449858
 20
-408.1470256085681
 30
0.0
 40
50.0
  1
poly_id 3
100
AcDbText
  0
ENDSEC
  0
SECTION
  2
OBJECTS
  0
DICTIONARY
  5
C
330
0
100
AcDbDictionary
280
1
281
1
  3
ACAD_CIP_PREVIOUS_PRODUCT_INFO
350
164
  3
ACAD_COLOR
350
6C
  3
ACAD_DETAILVIEWSTYLE
350
1D7
  3
ACAD_GROUP
350
D
  3
ACAD_LAYOUT
350
1A
  3
ACAD_MATERIAL
350
6B
  3
ACAD_MLEADERSTYLE
350
DE
  3
ACAD_MLINESTYLE
350
17
  3
ACAD_PLOTSETTINGS
350
19
  3
ACAD_PLOTSTYLENAME
350
E
  3
ACAD_SCALELIST
350
B7
  3
ACAD_SECTIONVIEWSTYLE
350
1D5
  3
ACAD_TABLESTYLE
350
92
  3
ACAD_VISUALSTYLE
350
145
  3
ACDB_RECOMPOSE_DATA
350
90F
  3
AcDbVariableDictionary
350
59
  3
EZDXF_META
350
91F
  0
DICTIONARY
  5
FA
330
2
100
AcDbDictionary
280
1
281
1
  3
ACAD_LAYERSTATES
360
FB
  0
DICTIONARY
  5
22F
330
22E
100
AcDbDictionary
280
1
281
1
  3
ACAD_XREC_ROUNDTRIP
360
230
  3
ADSK_XREC_LAYER_RECONCILED
360
232
  0
DICTIONARY
  5
2D3
330
2D2
100
AcDbDictionary
280
1
281
1
  3
ACAD_DIMASSOC
360
2D4
  0
DICTIONARY
  5
2D6
330
2D5
100
AcDbDictionary
280
1
281
1
  3
ACAD_DIMASSOC
360
2D7
  0
DICTIONARY
  5
2D9
330
2D8
100
AcDbDictionary
280
1
281
1
  3
ACAD_DIMASSOC
360
2DA
  0
DICTIONARY
  5
2DE
330
2DD
100
AcDbDictionary
280
1
281
1
  3
ACAD_DIMASSOC
360
2DF
  0
DICTIONARY
  5
743
330
742
100
AcDbDictionary
280
1
281
1
  3
ACAD_DIMASSOC
360
744
  0
DICTIONARY
  5
746
330
745
100
AcDbDictionary
280
1
281
1
  3
ACAD_DIMASSOC
360
747
  0
DICTIONARY
  5
786
330
779
100
AcDbDictionary
280
1
281
1
  3
ACAD_DIMASSOC
360
787
  0
DICTIONARY
  5
7E7
330
7DA
100
AcDbDictionary
280
1
281
1
  3
ACAD_DIMASSOC
360
7E8
  0
DICTIONARY
  5
8A1
330
8A0
100
AcDbDictionary
280
1
281
1
  3
ACAD_DIMASSOC
360
8A2
  0
DICTIONARY
  5
8A8
330
8A7
100
AcDbDictionary
280
1
281
1
  3
ACAD_DIMASSOC
360
8A9
  0
DICTIONARY
  5
8AC
330
8AB
100
AcDbDictionary
280
1
281
1
  3
ACAD_DIMASSOC
360
8AD
  0
XRECORD
  5
164
102
{ACAD_REACTORS
330
C
102
}
330
C
100
AcDbXrecord
280
1
300
ACD
300
2013
300
ACD_F_S
  0
DICTIONARY
  5
6C
102
{ACAD_REACTORS
330
C
102
}
330
C
100
AcDbDictionary
280
1
281
1
  0
DICTIONARY
  5
1D7
102
{ACAD_REACTORS
330
C
102
}
330
C
100
AcDbDictionary
280
1
281
1
  3
Metric50
350
1D8
  0
DICTIONARY
  5
D
102
{ACAD_REACTORS
330
C
102
}
330
C
100
AcDbDictionary
280
1
281
1
  0
DICTIONARY
  5
1A
102
{ACAD_REACTORS
330
C
102
}
330
C
100
AcDbDictionary
280
1
281
1
  3
Model
350
22
  3
布局1
350
1C8
  3
布局2
350
1CD
  0
DICTIONARY
  5
6B
102
{ACAD_REACTORS
330
C
102
}
330
C
100
AcDbDictionary
280
1
281
1
  3
ByBlock
350
135
  3
ByLayer
350
12D
  3
Global
350
13D
  0
DICTIONARY
  5
DE
102
{ACAD_REACTORS
330
C
102
}
330
C
100
AcDbDictionary
280
1
281
1
  3
Annotative
350
228
  3
Standard
350
E1
  0
DICTIONARY
  5
17
102
{ACAD_REACTORS
330
C
102
}
330
C
100
AcDbDictionary
280
1
281
1
  3
Standard
350
18
  0
DICTIONARY
  5
19
102
{ACAD_REACTORS
330
C
102
}
330
C
100
AcDbDictionary
280
1
281
1
  0
ACDBDICTIONARYWDFLT
  5
E
102
{ACAD_REACTORS
330
C
102
}
330
C
100
AcDbDictionary
280
1
281
1
  3
Normal
350
F
100
AcDbDictionaryWithDefault
340
F
  0
DICTIONARY
  5
B7
102
{ACAD_REACTORS
330
C
102
}
330
C
100
AcDbDictionary
280
1
281
1
  3
A0
350
B8
  3
A1
350
204
  3
A2
350
205
  3
A3
350
206
  3
A4
350
207
  3
A5
350
208
  3
A6
350
209
  3
A7
350
20A
  3
A8
350
20B
  3
A9
350
20C
  3
B0
350
20D
  3
B1
350
20E
  3
B2
350
20F
  3
B3
350
210
  3
B4
350
211
  3
B5
350
212
  3
B6
350
213
  0
DICTIONARY
  5
1D5
102
{ACAD_REACTORS
330
C
102
}
330
C
100
AcDbDictionary
280
1
281
1
  3
Metric50
350
1D6
  0
DICTIONARY
  5
92
102
{ACAD_REACTORS
330
C
102
}
330
C
100
AcDbDictionary
280
1
281
1
  3
Standard
350
93
  0
DICTIONARY
  5
145
102
{ACAD_REACTORS
330
C
102
}
330
C
100
AcDbDictionary
280
1
281
1
  3
2dWireframe
350
14B
  3
Basic
350
14A
  3
Brighten
350
151
  3
ColorChange
350
155
  3
Conceptual
350
14E
  3
Dim
350
150
  3
EdgeColorOff
350
15D
  3
Facepattern
350
154
  3
Flat
350
146
  3
FlatWithEdges
350
147
  3
Gouraud
350
148
  3
GouraudWithEdges
350
149
  3
Hidden
350
14D
  3
JitterOff
350
15B
  3
Linepattern
350
153
  3
OverhangOff
350
15C
  3
Realistic
350
14F
  3
Shaded
350
15A
  3
Shaded with edges
350
159
  3
Shades of Gray
350
156
  3
Sketchy
350
157
  3
Thicken
350
152
  3
Wireframe
350
14C
  3
X-Ray
350
158
  0
XRECORD
  5
90F
102
{ACAD_REACTORS
330
C
102
}
330
C
100
AcDbXrecord
280
1
 90
1
330
93
  0
DICTIONARY
  5
59
102
{ACAD_REACTORS
330
C
102
}
330
C
100
AcDbDictionary
280
1
281
1
  3
CANNOSCALE
350
DD
  3
CMLEADERSTYLE
350
E9
  3
CTABLESTYLE
350
98
  3
CVIEWDETAILSTYLE
350
1EE
  3
CVIEWSECTIONSTYLE
350
1EF
  3
DIMASSOC
350
43
  3
HIDETEXT
350
5E
  3
PROJECTNAME
350
B6
  3
XCLIPFRAME
350
E2
  0
DICTIONARY
  5
FB
102
{ACAD_REACTORS
330
FA
102
}
330
FA
100
AcDbDictionary
280
1
281
1
  0
XRECORD
  5
230
102
{ACAD_REACTORS
330
22F
102
}
330
22F
100
AcDbXrecord
280
1
102
MATERIAL
340
13D
102
MATERIAL
340
13D
102
MATERIAL
340
13D
102
MATERIAL
340
13D
102
MATERIAL
340
13D
102
MATERIAL
340
13D
102
MATERIAL
340
13D
102
MATERIAL
340
13D
102
MATERIAL
340
13D
102
MATERIAL
340
13D
102
MATERIAL
340
13D
102
MATERIAL
340
13D
102
MATERIAL
340
13D
102
MATERIAL
340
13D
102
MATERIAL
340
13D
102
MATERIAL
340
13D
102
MATERIAL
340
13D
102
MATERIAL
340
13D
102
MATERIAL
340
13D
102
MATERIAL
340
13D
102
MATERIAL
340
13D
102
MATERIAL
340
13D
102
MATERIAL
340
13D
102
MATERIAL
340
13D
102
MATERIAL
340
13D
102
MATERIAL
340
13D
102
MATERIAL
340
13D
102
MATERIAL
340
13D
102
MATERIAL
340
13D
102
MATERIAL
340
13D
102
MATERIAL
340
13D
102
MATERIAL
340
13D
102
MATERIAL
340
13D
102
MATERIAL
340
13D
102
MATERIAL
340
13D
102
MATERIAL
340
13D
102
MATERIAL
340
13D
102
MATERIAL
340
13D
102
MATERIAL
340
13D
102
MATERIAL
340
13D
102
MATERIAL
340
13D
102
MATERIAL
340
13D
102
MATERIAL
340
13D
102
MATERIAL
340
13D
102
MATERIAL
340
13D
102
MATERIAL
340
13D
102
MATERIAL
340
13D
102
MATERIAL
340
13D
102
MATERIAL
340
13D
102
MATERIAL
340
13D
102
MATERIAL
340
13D
102
MATERIAL
340
13D
102
MATERIAL
340
13D
102
MATERIAL
340
13D
102
MATERIAL
340
13D
102
MATERIAL
340
13D
102
MATERIAL
340
13D
102
MATERIAL
340
13D
102
MATERIAL
340
13D
102
MATERIAL
340
13D
102
MATERIAL
340
13D
102
MATERIAL
340
13D
102
MATERIAL
340
13D
102
MATERIAL
340
13D
102
MATERIAL
340
13D
102
MATERIAL
340
13D
102
MATERIAL
340
13D
102
MATERIAL
340
13D
102
MATERIAL
340
13D
102
MATERIAL
340
13D
102
MATERIAL
340
13D
102
MATERIAL
340
13D
102
MATERIAL
340
13D
102
MATERIAL
340
13D
102
MATERIAL
340
13D
102
MATERIAL
340
13D
102
MATERIAL
340
13D
102
MATERIAL
340
13D
102
MATERIAL
340
13D
102
MATERIAL
340
13D
102
MATERIAL
340
13D
102
MATERIAL
340
13D
102
MATERIAL
340
13D
102
MATERIAL
340
13D
102
MATERIAL
340
13D
102
MATERIAL
340
13D
102
MATERIAL
340
13D
102
MATERIAL
340
13D
102
MATERIAL
340
13D
102
MATERIAL
340
13D
102
MATERIAL
340
13D
102
MATERIAL
340
13D
102
MATERIAL
340
13D
102
MATERIAL
340
13D
102
MATERIAL
340
13D
102
MATERIAL
340
13D
102
MATERIAL
340
13D
102
MATERIAL
340
13D
102
MATERIAL
340
13D
102
MATERIAL
340
13D
102
MATERIAL
340
13D
102
MATERIAL
340
13D
102
MATERIAL
340
13D
102
MATERIAL
340
13D
102
MATERIAL
340
13D
102
MATERIAL
340
13D
102
MATERIAL
340
13D
102
MATERIAL
340
13D
102
MATERIAL
340
13D
102
MATERIAL
340
13D
102
MATERIAL
340
13D
102
MATERIAL
340
13D
102
MATERIAL
340
13D
102
MATERIAL
340
13D
102
MATERIAL
340
13D
102
MATERIAL
340
13D
102
MATERIAL
340
13D
102
MATERIAL
340
13D
102
MATERIAL
340
13D
102
MATERIAL
340
13D
102
MATERIAL
340
13D
102
MATERIAL
340
13D
102
MATERIAL
340
13D
102
MATERIAL
340
13D
102
MATERIAL
340
13D
102
MATERIAL
340
13D
102
MATERIAL
340
13D
102
MATERIAL
340
13D
102
MATERIAL
340
13D
102
MATERIAL
340
13D
102
MATERIAL
340
13D
102
MATERIAL
340
13D
102
MATERIAL
340
13D
102
MATERIAL
340
13D
102
MATERIAL
340
13D
102
MATERIAL
340
13D
102
MATERIAL
340
13D
102
MATERIAL
340
13D
102
MATERIAL
340
13D
102
MATERIAL
340
13D
102
MATERIAL
340
13D
102
MATERIAL
340
13D
102
MATERIAL
340
13D
102
MATERIAL
340
13D
102
MATERIAL
340
13D
102
MATERIAL
340
13D
102
MATERIAL
340
13D
102
MATERIAL
340
13D
102
MATERIAL
340
13D
102
MATERIAL
340
13D
102
MATERIAL
340
13D
102
MATERIAL
340
13D
102
MATERIAL
340
13D
102
MATERIAL
340
13D
102
MATERIAL
340
13D
102
MATERIAL
340
13D
102
MATERIAL
340
13D
102
MATERIAL
340
13D
102
MATERIAL
340
13D
102
MATERIAL
340
13D
102
MATERIAL
340
13D
102
MATERIAL
340
13D
102
MATERIAL
340
13D
102
MATERIAL
340
13D
102
MATERIAL
340
13D
102
MATERIAL
340
13D
102
MATERIAL
340
13D
102
MATERIAL
340
13D
102
MATERIAL
340
13D
102
MATERIAL
340
13D
102
MATERIAL
340
13D
102
MATERIAL
340
13D
102
MATERIAL
340
13D
102
MATERIAL
340
13D
102
MATERIAL
340
13D
102
MATERIAL
340
13D
102
MATERIAL
340
13D
102
MATERIAL
340
13D
102
MATERIAL
340
13D
102
MATERIAL
340
13D
102
MATERIAL
340
13D
102
MATERIAL
340
13D
102
MATERIAL
340
13D
102
MATERIAL
340
13D
102
MATERIAL
340
13D
102
MATERIAL
340
13D
102
MATERIAL
340
13D
102
MATERIAL
340
13D
102
MATERIAL
340
13D
102
MATERIAL
340
13D
102
MATERIAL
340
13D
102
MATERIAL
340
13D
102
MATERIAL
340
13D
102
MATERIAL
340
13D
102
MATERIAL
340
13D
  0
XRECORD
  5
232
102
{ACAD_REACTORS
330
22F
102
}
330
22F
100
AcDbXrecord
280
1
290
1
  0
DIMASSOC
  5
2D4
102
{ACAD_REACTORS
330
2D3
102
}
330
2D3
100
AcDbDimAssoc
330
2D2
 90
3
 70
0
 71
0
  1
AcDbOsnapPointRef
 72
13
331
2CB
 73
2
 91
0
 40
0.0
 10
0.0
 20
0.0
 30
1.999999999999998e+50
 75
0
  1
AcDbOsnapPointRef
 72
1
331
2CB
 73
2
 91
0
 40
1.0
 10
0.0
 20
0.0
 30
1.999999999999998e+50
 75
0
  0
DIMASSOC
  5
2D7
102
{ACAD_REACTORS
330
2D6
102
}
330
2D6
100
AcDbDimAssoc
330
2D5
 90
12
 70
0
 71
0
  1
AcDbOsnapPointRef
 72
13
331
2CD
 73
2
 91
0
 40
0.0
 10
0.0
 20
0.0
 30
1.999999999999998e+50
 75
0
  1
AcDbOsnapPointRef
 72
1
331
2CD
 73
2
 91
0
 40
1.0
 10
0.0
 20
0.0
 30
1.999999999999998e+50
 75
0
  0
DIMASSOC
  5
2DA
102
{ACAD_REACTORS
330
2D9
102
}
330
2D9
100
AcDbDimAssoc
330
2D8
 90
2
 70
0
 71
0
  1
AcDbOsnapPointRef
 72
13
331
2CD
 73
2
 91
0
 40
0.0
 10
0.0
 20
0.0
 30
1.999999999999998e+50
 75
0
  0
DIMASSOC
  5
2DF
102
{ACAD_REACTORS
330
2DE
102
}
330
2DE
100
AcDbDimAssoc
330
2DD
 90
1
 70
0
 71
0
  1
AcDbOsnapPointRef
 72
13
331
2CD
 73
2
 91
0
 40
0.0
 10
0.0
 20
0.0
 30
1.999999999999998e+50
 75
0
  0
DIMASSOC
  5
744
102
{ACAD_REACTORS
330
743
102
}
330
743
100
AcDbDimAssoc
330
742
 90
3
 70
0
 71
0
  1
AcDbOsnapPointRef
 72
6
331
736
 73
2
 91
0
 40
0.0712395074136088
 10
0.0
 20
0.0
 30
0.0
332
734
 74
2
 92
0
 75
0
  1
AcDbOsnapPointRef
 72
1
331
73E
 73
2
 91
0
 40
1.0
 10
0.0
 20
0.0
 30
2e+50
 75
0
  0
DIMASSOC
  5
747
102
{ACAD_REACTORS
330
746
102
}
330
746
100
AcDbDimAssoc
330
745
 90
1
 70
0
 71
0
  1
AcDbOsnapPointRef
 72
1
331
73F
 73
2
 91
0
 40
1.0
 10
0.0
 20
0.0
 30
2e+50
 75
0
  0
DIMASSOC
  5
787
102
{ACAD_REACTORS
330
786
102
}
330
786
100
AcDbDimAssoc
330
779
 90
1
 70
0
 71
0
  1
AcDbOsnapPointRef
 72
13
331
735
 73
2
 91
0
 40
0.0
 10
0.0
 20
0.0
 30
2e+50
 75
0
  0
DIMASSOC
  5
7E8
102
{ACAD_REACTORS
330
7E7
102
}
330
7E7
100
AcDbDimAssoc
330
7DA
 90
3
 70
0
 71
0
  1
AcDbOsnapPointRef
 72
13
331
738
 73
2
 91
0
 40
0.0
 10
0.0
 20
0.0
 30
2e+50
 75
0
  1
AcDbOsnapPointRef
 72
1
331
7D9
 73
2
 91
0
 40
1.0
 10
0.0
 20
0.0
 30
2e+50
 75
0
  0
DIMASSOC
  5
8A2
102
{ACAD_REACTORS
330
8A1
102
}
330
8A1
100
AcDbDimAssoc
330
8A0
 90
1
 70
0
 71
0
  1
AcDbOsnapPointRef
 72
6
331
894
 73
2
 91
0
 40
0.0712395074136088
 10
0.0
 20
0.0
 30
0.0
332
892
 74
2
 92
0
 75
0
  0
DIMASSOC
  5
8A9
102
{ACAD_REACTORS
330
8A8
102
}
330
8A8
100
AcDbDimAssoc
330
8A7
 90
1
 70
0
 71
0
  1
AcDbOsnapPointRef
 72
13
331
893
 73
2
 91
0
 40
0.0
 10
0.0
 20
0.0
 30
2e+50
 75
0
  0
DIMASSOC
  5
8AD
102
{ACAD_REACTORS
330
8AC
102
}
330
8AC
100
AcDbDimAssoc
330
8AB
 90
3
 70
0
 71
0
  1
AcDbOsnapPointRef
 72
13
331
896
 73
2
 91
0
 40
0.0
 10
0.0
 20
0.0
 30
2e+50
 75
0
  1
AcDbOsnapPointRef
 72
1
331
8AA
 73
2
 91
0
 40
1.0
 10
0.0
 20
0.0
 30
2e+50
 75
0
  0
ACDBDETAILVIEWSTYLE
  5
1D8
102
{ACAD_REACTORS
330
1D7
102
}
330
1D7
100
AcDbModelDocViewStyle
 70
0
  3
Metric50
290
1
300
Metric50
 90
0
100
AcDbDetailViewStyle
 70
0
 71
0
 90
3
 71
1
340
11
 62
256
 40
5.0
340
0
 62
256
 40
5.0
300

 40
0.0
280
1
 71
2
340
16
 90
25
 62
256
 71
3
340
11
 62
256
 40
5.0
 90
0
 40
15.0
 90
1
300
%<\AcVar ViewDetailId>% (%<\AcVar ViewScale \f "%sn">%)
 71
4
340
16
 90
25
 62
256
340
16
 90
25
 62
256
280
0
  0
LAYOUT
  5
22
102
{ACAD_REACTORS
330
1A
102
}
330
1A
100
AcDbPlotSettings
  1

  2
none_device
  4
none_user_media
  6

 40
6.349999904632568
 41
6.349999904632568
 42
6.350006103515625
 43
6.350006103515625
 44
215.8999938964844
 45
279.3999938964844
 46
0.0
 47
81.57875845973331
 48
0.0
 49
0.0
140
0.0
141
0.0
142
1.0
143
3.58370404617982
 70
11445
 72
1
 73
0
 74
0
  7

 75
0
 76
0
 77
2
 78
300
147
0.2790408993359779
148
154.1043093895605
149
1.549288692994196
100
AcDbLayout
  1
Model
 70
1
 71
0
 10
0.0
 20
0.0
 11
420.0
 21
297.0
 12
0.0
 22
0.0
 32
0.0
 14
1e+20
 24
1e+20
 34
1e+20
 15
-1e+20
 25
-1e+20
 35
-1e+20
146
0.0
 13
0.0
 23
0.0
 33
0.0
 16
1.0
 26
0.0
 36
0.0
 17
0.0
 27
1.0
 37
0.0
 76
0
330
1F
331
1BA
1001
ACAD_PSEXT
1000
无
1000
无
1000
不可用
1000
在选择新的绘图仪配置名称之前，不能打印该布局。
1070
0
  0
LAYOUT
  5
1C8
102
{ACAD_REACTORS
330
1A
102
}
330
1A
100
AcDbPlotSettings
  1

  2
Microsoft XPS Document Writer#:1
  4

  6

 40
0.0
 41
0.0
 42
0.0
 43
0.0
 44
0.0
 45
0.0
 46
0.0
 47
0.0
 48
0.0
 49
0.0
140
0.0
141
0.0
142
1.0
143
1.0
 70
688
 72
0
 73
0
 74
5
  7

 75
16
 76
0
 77
2
 78
300
147
1.0
148
0.0
149
0.0
100
AcDbLayout
  1
布局1
 70
1
 71
1
 10
0.0
 20
0.0
 11
12.0
 21
9.0
 12
0.0
 22
0.0
 32
0.0
 14
0.0
 24
0.0
 34
0.0
 15
0.0
 25
0.0
 35
0.0
146
0.0
 13
0.0
 23
0.0
 33
0.0
 16
1.0
 26
0.0
 36
0.0
 17
0.0
 27
1.0
 37
0.0
 76
0
330
1C7
  0
LAYOUT
  5
1CD
102
{ACAD_REACTORS
330
1A
102
}
330
1A
100
AcDbPlotSettings
  1

  2
Microsoft XPS Document Writer#:1
  4

  6

 40
0.0
 41
0.0
 42
0.0
 43
0.0
 44
0.0
 45
0.0
 46
0.0
 47
0.0
 48
0.0
 49
0.0
140
0.0
141
0.0
142
1.0
143
1.0
 70
688
 72
0
 73
0
 74
5
  7

 75
16
 76
0
 77
2
 78
300
147
1.0
148
0.0
149
0.0
100
AcDbLayout
  1
布局2
 70
1
 71
2
 10
0.0
 20
0.0
 11
12.0
 21
9.0
 12
0.0
 22
0.0
 32
0.0
 14
0.0
 24
0.0
 34
0.0
 15
0.0
 25
0.0
 35
0.0
146
0.0
 13
0.0
 23
0.0
 33
0.0
 16
1.0
 26
0.0
 36
0.0
 17
0.0
 27
1.0
 37
0.0
 76
0
330
1CC
  0
MATERIAL
  5
135
102
{ACAD_REACTORS
330
6B
102
}
330
6B
100
AcDbMaterial
  1
ByBlock
  2

 70
0
 40
1.0
 71
0
 41
1.0
 91
-1023410177
 42
1.0
 72
0
  3

 73
2
 74
1
 75
1
 43
0.0008202099737533
 43
0.0
 43
0.0
 43
0.0
 43
0.0
 43
0.0008202099737533
 43
0.0
 43
0.0
 43
0.0
 43
0.0
 43
1.0
 43
0.0
 43
0.0
 43
0.0
 43
0.0
 43
1.0
 44
0.5
 73
0
 45
1.0
 46
1.0
 77
0
  4

 78
2
 79
1
170
1
 47
0.0008202099737533
 47
0.0
 47
0.0
 47
0.0
 47
0.0
 47
0.0008202099737533
 47
0.0
 47
0.0
 47
0.0
 47
0.0
 47
1.0
 47
0.0
 47
0.0
 47
0.0
 47
0.0
 47
1.0
 48
1.0
171
0
  6

172
2
173
1
174
1
 49
0.0008202099737533
 49
0.0
 49
0.0
 49
0.0
 49
0.0
 49
0.0008202099737533
 49
0.0
 49
0.0
 49
0.0
 49
0.0
 49
1.0
 49
0.0
 49
0.0
 49
0.0
 49
0.0
 49
1.0
140
1.0
141
1.0
175
0
  7

176
2
177
1
178
1
142
0.0008202099737533
142
0.0
142
0.0
142
0.0
142
0.0
142
0.0008202099737533
142
0.0
142
0.0
142
0.0
142
0.0
142
1.0
142
0.0
142
0.0
142
0.0
142
0.0
142
1.0
143
1.0
179
0
  8

270
2
271
1
272
1
144
0.0008202099737533
144
0.0
144
0.0
144
0.0
144
0.0
144
0.0008202099737533
144
0.0
144
0.0
144
0.0
144
0.0
144
1.0
144
0.0
144
0.0
144
0.0
144
0.0
144
1.0
145
1.0
146
1.0
273
1
  9

274
2
275
1
276
1
147
0.0008202099737533
147
0.0
147
0.0
147
0.0
147
0.0
147
0.0008202099737533
147
0.0
147
0.0
147
0.0
147
0.0
147
1.0
147
0.0
147
0.0
147
0.0
147
0.0
147
1.0
 42
1.0
 72
1
  3

 73
1
 74
1
 75
1
 94
127
  0
MATERIAL
  5
12D
102
{ACAD_REACTORS
330
6B
102
}
330
6B
100
AcDbMaterial
  1
ByLayer
  2

 70
0
 40
1.0
 71
0
 41
1.0
 91
-1023410177
 42
1.0
 72
0
  3

 73
2
 74
1
 75
1
 43
0.0008202099737533
 43
0.0
 43
0.0
 43
0.0
 43
0.0
 43
0.0008202099737533
 43
0.0
 43
0.0
 43
0.0
 43
0.0
 43
1.0
 43
0.0
 43
0.0
 43
0.0
 43
0.0
 43
1.0
 44
0.5
 73
0
 45
1.0
 46
1.0
 77
0
  4

 78
2
 79
1
170
1
 47
0.0008202099737533
 47
0.0
 47
0.0
 47
0.0
 47
0.0
 47
0.0008202099737533
 47
0.0
 47
0.0
 47
0.0
 47
0.0
 47
1.0
 47
0.0
 47
0.0
 47
0.0
 47
0.0
 47
1.0
 48
1.0
171
0
  6

172
2
173
1
174
1
 49
0.0008202099737533
 49
0.0
 49
0.0
 49
0.0
 49
0.0
 49
0.0008202099737533
 49
0.0
 49
0.0
 49
0.0
 49
0.0
 49
1.0
 49
0.0
 49
0.0
 49
0.0
 49
0.0
 49
1.0
140
1.0
141
1.0
175
0
  7

176
2
177
1
178
1
142
0.0008202099737533
142
0.0
142
0.0
142
0.0
142
0.0
142
0.0008202099737533
142
0.0
142
0.0
142
0.0
142
0.0
142
1.0
142
0.0
142
0.0
142
0.0
142
0.0
142
1.0
143
1.0
179
0
  8

270
2
271
1
272
1
144
0.0008202099737533
144
0.0
144
0.0
144
0.0
144
0.0
144
0.0008202099737533
144
0.0
144
0.0
144
0.0
144
0.0
144
1.0
144
0.0
144
0.0
144
0.0
144
0.0
144
1.0
145
1.0
146
1.0
273
1
  9

274
2
275
1
276
1
147
0.0008202099737533
147
0.0
147
0.0
147
0.0
147
0.0
147
0.0008202099737533
147
0.0
147
0.0
147
0.0
147
0.0
147
1.0
147
0.0
147
0.0
147
0.0
147
0.0
147
1.0
 42
1.0
 72
1
  3

 73
1
 74
1
 75
1
 94
127
  0
MATERIAL
  5
13D
102
{ACAD_REACTORS
330
6B
102
}
330
6B
100
AcDbMaterial
  1
Global
  2

 70
0
 40
1.0
 71
0
 41
1.0
 91
-1023410177
 42
1.0
 72
0
  3

 73
2
 74
1
 75
1
 43
0.0008202099737533
 43
0.0
 43
0.0
 43
0.0
 43
0.0
 43
0.0008202099737533
 43
0.0
 43
0.0
 43
0.0
 43
0.0
 43
1.0
 43
0.0
 43
0.0
 43
0.0
 43
0.0
 43
1.0
 44
0.5
 73
0
 45
1.0
 46
1.0
 77
0
  4

 78
2
 79
1
170
1
 47
0.0008202099737533
 47
0.0
 47
0.0
 47
0.0
 47
0.0
 47
0.0008202099737533
 47
0.0
 47
0.0
 47
0.0
 47
0.0
 47
1.0
 47
0.0
 47
0.0
 47
0.0
 47
0.0
 47
1.0
 48
1.0
171
0
  6

172
2
173
1
174
1
 49
0.0008202099737533
 49
0.0
 49
0.0
 49
0.0
 49
0.0
 49
0.0008202099737533
 49
0.0
 49
0.0
 49
0.0
 49
0.0
 49
1.0
 49
0.0
 49
0.0
 49
0.0
 49
0.0
 49
1.0
140
1.0
141
1.0
175
0
  7

176
2
177
1
178
1
142
0.0008202099737533
142
0.0
142
0.0
142
0.0
142
0.0
142
0.0008202099737533
142
0.0
142
0.0
142
0.0
142
0.0
142
1.0
142
0.0
142
0.0
142
0.0
142
0.0
142
1.0
143
1.0
179
0
  8

270
2
271
1
272
1
144
0.0008202099737533
144
0.0
144
0.0
144
0.0
144
0.0
144
0.0008202099737533
144
0.0
144
0.0
144
0.0
144
0.0
144
1.0
144
0.0
144
0.0
144
0.0
144
0.0
144
1.0
145
1.0
146
1.0
273
1
  9

274
2
275
1
276
1
147
0.0008202099737533
147
0.0
147
0.0
147
0.0
147
0.0
147
0.0008202099737533
147
0.0
147
0.0
147
0.0
147
0.0
147
1.0
147
0.0
147
0.0
147
0.0
147
0.0
147
1.0
 42
1.0
 72
1
  3

 73
1
 74
1
 75
1
 94
127
  0
MLEADERSTYLE
  5
228
102
{ACAD_REACTORS
330
DE
102
}
330
DE
100
AcDbMLeaderStyle
179
2
170
2
171
1
172
0
 90
2
 40
0.0
 41
0.0
173
1
 91
-1056964608
340
14
 92
-2
290
1
 42
2.0
291
1
 43
8.0
  3
Standard
 44
4.0
300

342
11
174
1
175
1
176
0
178
1
 93
-1056964608
 45
4.0
292
0
297
0
 46
0.18
293
1
 94
-1056964608
 47
1.0
 49
1.0
140
1.0
294
1
141
0.0
177
0
142
1.0
295
1
296
1
143
3.75
271
0
272
9
273
9
298
0
  0
MLEADERSTYLE
  5
E1
102
{ACAD_REACTORS
330
DE
102
}
330
DE
100
AcDbMLeaderStyle
179
2
170
2
171
1
172
0
 90
2
 40
0.0
 41
0.0
173
1
 91
-1056964608
340
14
 92
-2
290
1
 42
2.0
291
1
 43
8.0
  3
Standard
 44
4.0
300

342
11
174
1
175
1
176
0
178
1
 93
-1056964608
 45
4.0
292
0
297
0
 46
0.18
293
1
 94
-1056964608
 47
1.0
 49
1.0
140
1.0
294
1
141
0.0
177
0
142
1.0
295
0
296
0
143
3.75
271
0
272
9
273
9
298
0
  0
MLINESTYLE
  5
18
102
{ACAD_REACTORS
330
17
102
}
330
17
100
AcDbMlineStyle
  2
STANDARD
 70
0
  3

 62
256
 51
90.0
 52
90.0
 71
2
 49
0.5
 62
256
  6
BYLAYER
 49
-0.5
 62
256
  6
BYLAYER
  0
ACDBPLACEHOLDER
  5
F
102
{ACAD_REACTORS
330
E
102
}
330
E
  0
SCALE
  5
B8
102
{ACAD_REACTORS
330
B7
102
}
330
B7
100
AcDbScale
 70
0
300
1:1
140
1.0
141
1.0
290
1
  0
SCALE
  5
204
102
{ACAD_REACTORS
330
B7
102
}
330
B7
100
AcDbScale
 70
0
300
1:2
140
1.0
141
2.0
290
0
  0
SCALE
  5
205
102
{ACAD_REACTORS
330
B7
102
}
330
B7
100
AcDbScale
 70
0
300
1:4
140
1.0
141
4.0
290
0
  0
SCALE
  5
206
102
{ACAD_REACTORS
330
B7
102
}
330
B7
100
AcDbScale
 70
0
300
1:5
140
1.0
141
5.0
290
0
  0
SCALE
  5
207
102
{ACAD_REACTORS
330
B7
102
}
330
B7
100
AcDbScale
 70
0
300
1:8
140
1.0
141
8.0
290
0
  0
SCALE
  5
208
102
{ACAD_REACTORS
330
B7
102
}
330
B7
100
AcDbScale
 70
0
300
1:10
140
1.0
141
10.0
290
0
  0
SCALE
  5
209
102
{ACAD_REACTORS
330
B7
102
}
330
B7
100
AcDbScale
 70
0
300
1:16
140
1.0
141
16.0
290
0
  0
SCALE
  5
20A
102
{ACAD_REACTORS
330
B7
102
}
330
B7
100
AcDbScale
 70
0
300
1:20
140
1.0
141
20.0
290
0
  0
SCALE
  5
20B
102
{ACAD_REACTORS
330
B7
102
}
330
B7
100
AcDbScale
 70
0
300
1:30
140
1.0
141
30.0
290
0
  0
SCALE
  5
20C
102
{ACAD_REACTORS
330
B7
102
}
330
B7
100
AcDbScale
 70
0
300
1:40
140
1.0
141
40.0
290
0
  0
SCALE
  5
20D
102
{ACAD_REACTORS
330
B7
102
}
330
B7
100
AcDbScale
 70
0
300
1:50
140
1.0
141
50.0
290
0
  0
SCALE
  5
20E
102
{ACAD_REACTORS
330
B7
102
}
330
B7
100
AcDbScale
 70
0
300
1:100
140
1.0
141
100.0
290
0
  0
SCALE
  5
20F
102
{ACAD_REACTORS
330
B7
102
}
330
B7
100
AcDbScale
 70
0
300
2:1
140
2.0
141
1.0
290
0
  0
SCALE
  5
210
102
{ACAD_REACTORS
330
B7
102
}
330
B7
100
AcDbScale
 70
0
300
4:1
140
4.0
141
1.0
290
0
  0
SCALE
  5
211
102
{ACAD_REACTORS
330
B7
102
}
330
B7
100
AcDbScale
 70
0
300
8:1
140
8.0
141
1.0
290
0
  0
SCALE
  5
212
102
{ACAD_REACTORS
330
B7
102
}
330
B7
100
AcDbScale
 70
0
300
10:1
140
10.0
141
1.0
290
0
  0
SCALE
  5
213
102
{ACAD_REACTORS
330
B7
102
}
330
B7
100
AcDbScale
 70
0
300
100:1
140
100.0
141
1.0
290
0
  0
ACDBSECTIONVIEWSTYLE
  5
1D6
102
{ACAD_REACTORS
330
1D5
102
}
330
1D5
100
AcDbModelDocViewStyle
 70
0
  3
Metric50
290
1
300
Metric50
 90
0
100
AcDbSectionViewStyle
 70
0
 71
0
 90
102
 71
1
340
11
 62
256
 40
5.0
340
0
340
0
 62
256
 40
5.0
300
I, O, Q, S, X, Z
 40
10.0
 90
0
 40
2.5
 90
0
 71
2
340
16
 90
25
 62
256
340
16
 90
50
 62
256
 40
5.0
 40
2.5
 40
5.0
 71
3
340
11
 62
256
 40
5.0
 90
0
 40
15.0
 90
1
300
%<\AcVar ViewSectionStartId>%-%<\AcVar ViewSectionEndId>% (%<\AcVar ViewScale \f "%sn">%)
 71
4
 62
256
 62
257
300
ANSI31
 40
1.0
 90
0
290
0
290
0
 90
6
 40
0.0
 40
1.570796326794896
 40
0.2617993877991494
 40
1.308996938995747
 40
-0.2617993877991494
 40
1.832595714594046
  0
TABLESTYLE
  5
93
102
{ACAD_XDICTIONARY
360
90D
102
}
102
{ACAD_REACTORS
330
92
102
}
330
92
100
AcDbTableStyle
280
0
  3
Standard
 70
0
 71
0
 40
1.5
 41
1.5
280
0
281
0
  7
Standard
140
4.5
170
2
 62
0
 63
7
283
0
 90
512
 91
0
  1

274
-2
284
1
 64
0
275
-2
285
1
 65
0
276
-2
286
1
 66
0
277
-2
287
1
 67
0
278
-2
288
1
 68
0
279
-2
289
1
 69
0
  7
Standard
140
6.0
170
5
 62
0
 63
7
283
0
 90
512
 91
0
  1

274
-2
284
1
 64
0
275
-2
285
1
 65
0
276
-2
286
1
 66
0
277
-2
287
1
 67
0
278
-2
288
1
 68
0
279
-2
289
1
 69
0
  7
Standard
140
4.5
170
5
 62
0
 63
7
283
0
 90
512
 91
0
  1

274
-2
284
1
 64
0
275
-2
285
1
 65
0
276
-2
286
1
 66
0
277
-2
287
1
 67
0
278
-2
288
1
 68
0
279
-2
289
1
 69
0
1001
ACAD
1000
AcRTDxfName
1000
TABLESTYLE
  0
VISUALSTYLE
  5
14B
102
{ACAD_REACTORS
330
145
102
}
330
145
100
AcDbVisualStyle
  2
2dWireframe
 70
4
177
3
291
0
 70
58
 90
0
176
1
 90
2
176
1
 90
0
176
1
 90
0
176
1
 40
0.6
176
1
 40
30.0
176
1
 62
7
420
16777215
176
1
 90
1
176
1
 90
4
176
1
 62
7
176
1
 62
257
176
1
 90
1
176
1
 90
1
176
1
 40
1.0
176
1
 90
0
176
1
 62
257
176
1
 40
1.0
176
1
 90
1
176
1
 90
6
176
1
 90
2
176
1
 62
7
176
1
 90
5
176
1
 90
0
176
1
 90
0
176
1
290
0
176
1
 90
1
176
1
 40
0.0
176
1
 90
0
176
1
290
1
176
1
290
1
176
1
290
0
176
1
290
0
176
1
290
0
176
1
290
0
176
1
290
0
176
1
290
0
176
1
290
0
176
1
 90
50
176
1
 40
0.0
176
1
 40
1.0
176
1
 90
0
176
1
 62
18
420
0
176
1
 90
50
176
1
 90
3
176
1
 62
5
420
255
176
1
290
0
176
1
 90
50
176
1
 90
50
176
1
 90
50
176
1
290
0
176
1
 90
50
176
1
 62
256
176
0
 40
1.0
176
0
 90
0
176
1
  1
strokes_ogs.tif
176
1
290
0
176
1
 40
1.0
176
1
 40
1.0
176
1
  0
VISUALSTYLE
  5
14A
102
{ACAD_REACTORS
330
145
102
}
330
145
100
AcDbVisualStyle
  2
Basic
 70
7
177
3
291
1
 70
58
 90
1
176
1
 90
0
176
1
 90
1
176
1
 90
0
176
1
 40
0.6
176
1
 40
30.0
176
1
 62
7
420
16777215
176
1
 90
0
176
1
 90
4
176
1
 62
7
176
1
 62
257
176
1
 90
1
176
1
 90
1
176
1
 40
1.0
176
1
 90
8
176
1
 62
7
176
1
 40
1.0
176
1
 90
1
176
1
 90
6
176
1
 90
2
176
1
 62
7
176
1
 90
5
176
1
 90
0
176
1
 90
0
176
1
290
0
176
1
 90
1
176
1
 40
0.0
176
1
 90
0
176
1
290
0
176
1
290
1
176
1
290
1
176
1
290
0
176
1
290
0
176
1
290
0
176
1
290
0
176
1
290
0
176
1
290
0
176
1
 90
50
176
1
 40
0.0
176
1
 40
1.0
176
1
 90
0
176
1
 62
18
420
0
176
1
 90
50
176
1
 90
3
176
1
 62
5
420
255
176
1
290
0
176
1
 90
50
176
1
 90
50
176
1
 90
50
176
1
290
0
176
1
 90
50
176
1
 62
256
176
0
 40
1.0
176
0
 90
0
176
1
  1
strokes_ogs.tif
176
1
290
0
176
1
 40
1.0
176
1
 40
1.0
176
1
  0
VISUALSTYLE
  5
151
102
{ACAD_REACTORS
330
145
102
}
330
145
100
AcDbVisualStyle
  2
Brighten
 70
12
177
3
291
1
 70
58
 90
2
176
1
 90
2
176
1
 90
0
176
1
 90
0
176
1
 40
0.6
176
1
 40
30.0
176
1
 62
7
420
16777215
176
1
 90
1
176
1
 90
4
176
1
 62
7
176
1
 62
257
176
1
 90
1
176
1
 90
1
176
1
 40
1.0
176
1
 90
8
176
1
 62
7
176
1
 40
1.0
176
1
 90
1
176
1
 90
6
176
1
 90
2
176
1
 62
7
176
1
 90
5
176
1
 90
0
176
1
 90
0
176
1
290
0
176
1
 90
1
176
1
 40
50.0
176
1
 90
0
176
1
290
0
176
1
290
1
176
1
290
1
176
1
290
0
176
1
290
0
176
1
290
0
176
1
290
0
176
1
290
0
176
1
290
0
176
1
 90
50
176
1
 40
0.0
176
1
 40
1.0
176
1
 90
0
176
1
 62
18
420
0
176
1
 90
50
176
1
 90
3
176
1
 62
5
420
255
176
1
290
0
176
1
 90
50
176
1
 90
50
176
1
 90
50
176
1
290
0
176
1
 90
50
176
1
 62
256
176
0
 40
1.0
176
0
 90
0
176
1
  1
strokes_ogs.tif
176
1
290
0
176
1
 40
1.0
176
1
 40
1.0
176
1
  0
VISUALSTYLE
  5
155
102
{ACAD_REACTORS
330
145
102
}
330
145
100
AcDbVisualStyle
  2
ColorChange
 70
16
177
3
291
1
 70
58
 90
2
176
1
 90
2
176
1
 90
3
176
1
 90
0
176
1
 40
0.6
176
1
 40
30.0
176
1
 62
8
420
8421504
176
1
 90
1
176
1
 90
4
176
1
 62
7
176
1
 62
257
176
1
 90
1
176
1
 90
1
176
1
 40
1.0
176
1
 90
8
176
1
 62
8
420
8421504
176
1
 40
1.0
176
1
 90
1
176
1
 90
6
176
1
 90
2
176
1
 62
7
176
1
 90
5
176
1
 90
0
176
1
 90
0
176
1
290
0
176
1
 90
1
176
1
 40
0.0
176
1
 90
0
176
1
290
0
176
1
290
1
176
1
290
1
176
1
290
0
176
1
290
0
176
1
290
0
176
1
290
0
176
1
290
0
176
1
290
0
176
1
 90
50
176
1
 40
0.0
176
1
 40
1.0
176
1
 90
0
176
1
 62
18
420
0
176
1
 90
50
176
1
 90
3
176
1
 62
5
420
255
176
1
290
0
176
1
 90
50
176
1
 90
50
176
1
 90
50
176
1
290
0
176
1
 90
50
176
1
 62
256
176
0
 40
1.0
176
0
 90
0
176
1
  1
strokes_ogs.tif
176
1
290
0
176
1
 40
1.0
176
1
 40
1.0
176
1
  0
VISUALSTYLE
  5
14E
102
{ACAD_REACTORS
330
145
102
}
330
145
100
AcDbVisualStyle
  2
Conceptual
 70
9
177
3
291
0
 70
58
 90
3
176
1
 90
2
176
1
 90
0
176
1
 90
0
176
1
 40
0.6
176
1
 40
30.0
176
1
 62
7
420
16777215
176
1
 90
2
176
1
 90
2
176
1
 62
7
176
1
 62
257
176
1
 90
1
176
1
 90
1
176
1
 40
179.0
176
1
 90
8
176
1
 62
7
176
1
 40
1.0
176
1
 90
1
176
1
 90
6
176
1
 90
2
176
1
 62
7
176
1
 90
3
176
1
 90
0
176
1
 90
0
176
1
290
0
176
1
 90
1
176
1
 40
0.0
176
1
 90
0
176
1
290
0
176
1
290
1
176
1
290
1
176
1
290
0
176
1
290
0
176
1
290
0
176
1
290
0
176
1
290
0
176
1
290
0
176
1
 90
50
176
1
 40
0.0
176
1
 40
1.0
176
1
 90
0
176
1
 62
18
420
0
176
1
 90
50
176
1
 90
3
176
1
 62
5
420
255
176
1
290
0
176
1
 90
50
176
1
 90
50
176
1
 90
50
176
1
290
0
176
1
 90
50
176
1
 62
256
176
0
 40
1.0
176
0
 90
0
176
1
  1
strokes_ogs.tif
176
1
290
0
176
1
 40
1.0
176
1
 40
1.0
176
1
  0
VISUALSTYLE
  5
150
102
{ACAD_REACTORS
330
145
102
}
330
145
100
AcDbVisualStyle
  2
Dim
 70
11
177
3
291
1
 70
58
 90
2
176
1
 90
2
176
1
 90
0
176
1
 90
0
176
1
 40
0.6
176
1
 40
30.0
176
1
 62
7
420
16777215
176
1
 90
1
176
1
 90
4
176
1
 62
7
176
1
 62
257
176
1
 90
1
176
1
 90
1
176
1
 40
1.0
176
1
 90
8
176
1
 62
7
176
1
 40
1.0
176
1
 90
1
176
1
 90
6
176
1
 90
2
176
1
 62
7
176
1
 90
5
176
1
 90
0
176
1
 90
0
176
1
290
0
176
1
 90
1
176
1
 40
-50.0
176
1
 90
0
176
1
290
0
176
1
290
1
176
1
290
1
176
1
290
0
176
1
290
0
176
1
290
0
176
1
290
0
176
1
290
0
176
1
290
0
176
1
 90
50
176
1
 40
0.0
176
1
 40
1.0
176
1
 90
0
176
1
 62
18
420
0
176
1
 90
50
176
1
 90
3
176
1
 62
5
420
255
176
1
290
0
176
1
 90
50
176
1
 90
50
176
1
 90
50
176
1
290
0
176
1
 90
50
176
1
 62
256
176
0
 40
1.0
176
0
 90
0
176
1
  1
strokes_ogs.tif
176
1
290
0
176
1
 40
1.0
176
1
 40
1.0
176
1
  0
VISUALSTYLE
  5
15D
102
{ACAD_REACTORS
330
145
102
}
330
145
100
AcDbVisualStyle
  2
EdgeColorOff
 70
22
177
3
291
1
 70
58
 90
2
176
0
 90
2
176
0
 90
0
176
0
 90
0
176
0
 40
0.6
176
0
 40
30.0
176
0
 62
7
420
16777215
176
0
 90
1
176
0
 90
4
176
0
 62
7
176
0
 62
257
176
0
 90
1
176
0
 90
1
176
0
 40
1.0
176
0
 90
8
176
2
 62
7
176
0
 40
1.0
176
0
 90
1
176
0
 90
6
176
0
 90
2
176
0
 62
7
176
0
 90
5
176
0
 90
0
176
0
 90
0
176
0
290
0
176
0
 90
1
176
0
 40
0.0
176
0
 90
0
176
0
290
0
176
1
290
1
176
1
290
1
176
1
290
0
176
1
290
0
176
1
290
0
176
1
290
0
176
1
290
0
176
1
290
0
176
1
 90
50
176
1
 40
0.0
176
1
 40
1.0
176
1
 90
0
176
1
 62
18
420
0
176
1
 90
50
176
1
 90
3
176
1
 62
5
420
255
176
1
290
0
176
1
 90
50
176
1
 90
50
176
1
 90
50
176
1
290
0
176
1
 90
50
176
1
 62
256
176
0
 40
1.0
176
0
 90
0
176
1
  1
strokes_ogs.tif
176
1
290
0
176
1
 40
1.0
176
1
 40
1.0
176
1
  0
VISUALSTYLE
  5
154
102
{ACAD_REACTORS
330
145
102
}
330
145
100
AcDbVisualStyle
  2
Facepattern
 70
15
177
3
291
1
 70
58
 90
2
176
1
 90
2
176
1
 90
0
176
1
 90
0
176
1
 40
0.6
176
1
 40
30.0
176
1
 62
7
420
16777215
176
1
 90
1
176
1
 90
4
176
1
 62
7
176
1
 62
257
176
1
 90
1
176
1
 90
1
176
1
 40
1.0
176
1
 90
8
176
1
 62
7
176
1
 40
1.0
176
1
 90
1
176
1
 90
6
176
1
 90
2
176
1
 62
7
176
1
 90
5
176
1
 90
0
176
1
 90
0
176
1
290
0
176
1
 90
1
176
1
 40
0.0
176
1
 90
0
176
1
290
0
176
1
290
1
176
1
290
1
176
1
290
0
176
1
290
0
176
1
290
0
176
1
290
0
176
1
290
0
176
1
290
0
176
1
 90
50
176
1
 40
0.0
176
1
 40
1.0
176
1
 90
0
176
1
 62
18
420
0
176
1
 90
50
176
1
 90
3
176
1
 62
5
420
255
176
1
290
0
176
1
 90
50
176
1
 90
50
176
1
 90
50
176
1
290
0
176
1
 90
50
176
1
 62
256
176
0
 40
1.0
176
0
 90
0
176
1
  1
strokes_ogs.tif
176
1
290
0
176
1
 40
1.0
176
1
 40
1.0
176
1
  0
VISUALSTYLE
  5
146
102
{ACAD_REACTORS
330
145
102
}
330
145
100
AcDbVisualStyle
  2
Flat
 70
0
177
3
291
1
 70
58
 90
2
176
1
 90
1
176
1
 90
1
176
1
 90
2
176
1
 40
0.6
176
1
 40
30.0
176
1
 62
7
420
16777215
176
1
 90
0
176
1
 90
0
176
1
 62
7
176
1
 62
257
176
1
 90
1
176
1
 90
1
176
1
 40
1.0
176
1
 90
8
176
1
 62
7
176
1
 40
1.0
176
1
 90
1
176
1
 90
6
176
1
 90
2
176
1
 62
7
176
1
 90
5
176
1
 90
0
176
1
 90
0
176
1
290
0
176
1
 90
13
176
1
 40
0.0
176
1
 90
0
176
1
290
0
176
1
290
1
176
1
290
1
176
1
290
0
176
1
290
0
176
1
290
0
176
1
290
0
176
1
290
0
176
1
290
0
176
1
 90
50
176
1
 40
0.0
176
1
 40
1.0
176
1
 90
0
176
1
 62
18
420
0
176
1
 90
50
176
1
 90
3
176
1
 62
5
420
255
176
1
290
0
176
1
 90
50
176
1
 90
50
176
1
 90
50
176
1
290
0
176
1
 90
50
176
1
 62
256
176
0
 40
1.0
176
0
 90
0
176
1
  1
strokes_ogs.tif
176
1
290
0
176
1
 40
1.0
176
1
 40
1.0
176
1
  0
VISUALSTYLE
  5
147
102
{ACAD_REACTORS
330
145
102
}
330
145
100
AcDbVisualStyle
  2
FlatWithEdges
 70
1
177
3
291
1
 70
58
 90
2
176
1
 90
1
176
1
 90
1
176
1
 90
2
176
1
 40
0.6
176
1
 40
30.0
176
1
 62
7
420
16777215
176
1
 90
1
176
1
 90
0
176
1
 62
7
176
1
 62
257
176
1
 90
1
176
1
 90
1
176
1
 40
1.0
176
1
 90
0
176
1
 62
257
176
1
 40
1.0
176
1
 90
1
176
1
 90
6
176
1
 90
2
176
1
 62
7
176
1
 90
5
176
1
 90
0
176
1
 90
0
176
1
290
0
176
1
 90
13
176
1
 40
0.0
176
1
 90
0
176
1
290
0
176
1
290
1
176
1
290
1
176
1
290
0
176
1
290
0
176
1
290
0
176
1
290
0
176
1
290
0
176
1
290
0
176
1
 90
50
176
1
 40
0.0
176
1
 40
1.0
176
1
 90
0
176
1
 62
18
420
0
176
1
 90
50
176
1
 90
3
176
1
 62
5
420
255
176
1
290
0
176
1
 90
50
176
1
 90
50
176
1
 90
50
176
1
290
0
176
1
 90
50
176
1
 62
256
176
0
 40
1.0
176
0
 90
0
176
1
  1
strokes_ogs.tif
176
1
290
0
176
1
 40
1.0
176
1
 40
1.0
176
1
  0
VISUALSTYLE
  5
148
102
{ACAD_REACTORS
330
145
102
}
330
145
100
AcDbVisualStyle
  2
Gouraud
 70
2
177
3
291
1
 70
58
 90
2
176
1
 90
2
176
1
 90
1
176
1
 90
2
176
1
 40
0.6
176
1
 40
30.0
176
1
 62
7
420
16777215
176
1
 90
0
176
1
 90
0
176
1
 62
7
176
1
 62
257
176
1
 90
1
176
1
 90
1
176
1
 40
1.0
176
1
 90
0
176
1
 62
7
176
1
 40
1.0
176
1
 90
1
176
1
 90
6
176
1
 90
2
176
1
 62
7
176
1
 90
5
176
1
 90
0
176
1
 90
0
176
1
290
0
176
1
 90
13
176
1
 40
0.0
176
1
 90
0
176
1
290
0
176
1
290
1
176
1
290
1
176
1
290
0
176
1
290
0
176
1
290
0
176
1
290
0
176
1
290
0
176
1
290
0
176
1
 90
50
176
1
 40
0.0
176
1
 40
1.0
176
1
 90
0
176
1
 62
18
420
0
176
1
 90
50
176
1
 90
3
176
1
 62
5
420
255
176
1
290
0
176
1
 90
50
176
1
 90
50
176
1
 90
50
176
1
290
0
176
1
 90
50
176
1
 62
256
176
0
 40
1.0
176
0
 90
0
176
1
  1
strokes_ogs.tif
176
1
290
0
176
1
 40
1.0
176
1
 40
1.0
176
1
  0
VISUALSTYLE
  5
149
102
{ACAD_REACTORS
330
145
102
}
330
145
100
AcDbVisualStyle
  2
GouraudWithEdges
 70
3
177
3
291
1
 70
58
 90
2
176
1
 90
2
176
1
 90
1
176
1
 90
2
176
1
 40
0.6
176
1
 40
30.0
176
1
 62
7
420
16777215
176
1
 90
1
176
1
 90
0
176
1
 62
7
176
1
 62
257
176
1
 90
1
176
1
 90
1
176
1
 40
1.0
176
1
 90
0
176
1
 62
257
176
1
 40
1.0
176
1
 90
1
176
1
 90
6
176
1
 90
2
176
1
 62
7
176
1
 90
5
176
1
 90
0
176
1
 90
0
176
1
290
0
176
1
 90
13
176
1
 40
0.0
176
1
 90
0
176
1
290
0
176
1
290
1
176
1
290
1
176
1
290
0
176
1
290
0
176
1
290
0
176
1
290
0
176
1
290
0
176
1
290
0
176
1
 90
50
176
1
 40
0.0
176
1
 40
1.0
176
1
 90
0
176
1
 62
18
420
0
176
1
 90
50
176
1
 90
3
176
1
 62
5
420
255
176
1
290
0
176
1
 90
50
176
1
 90
50
176
1
 90
50
176
1
290
0
176
1
 90
50
176
1
 62
256
176
0
 40
1.0
176
0
 90
0
176
1
  1
strokes_ogs.tif
176
1
290
0
176
1
 40
1.0
176
1
 40
1.0
176
1
  0
VISUALSTYLE
  5
14D
102
{ACAD_REACTORS
330
145
102
}
330
145
100
AcDbVisualStyle
  2
Hidden
 70
6
177
3
291
0
 70
58
 90
1
176
1
 90
2
176
1
 90
2
176
1
 90
0
176
1
 40
0.6
176
1
 40
30.0
176
1
 62
7
420
16777215
176
1
 90
2
176
1
 90
2
176
1
 62
7
176
1
 62
257
176
1
 90
2
176
1
 90
1
176
1
 40
40.0
176
1
 90
0
176
1
 62
257
176
1
 40
1.0
176
1
 90
1
176
1
 90
6
176
1
 90
2
176
1
 62
7
176
1
 90
3
176
1
 90
0
176
1
 90
0
176
1
290
0
176
1
 90
1
176
1
 40
0.0
176
1
 90
0
176
1
290
0
176
1
290
1
176
1
290
1
176
1
290
0
176
1
290
0
176
1
290
0
176
1
290
0
176
1
290
0
176
1
290
0
176
1
 90
50
176
1
 40
0.0
176
1
 40
1.0
176
1
 90
0
176
1
 62
18
420
0
176
1
 90
50
176
1
 90
3
176
1
 62
5
420
255
176
1
290
0
176
1
 90
50
176
1
 90
50
176
1
 90
50
176
1
290
0
176
1
 90
50
176
1
 62
256
176
0
 40
1.0
176
0
 90
0
176
1
  1
strokes_ogs.tif
176
1
290
0
176
1
 40
1.0
176
1
 40
1.0
176
1
  0
VISUALSTYLE
  5
15B
102
{ACAD_REACTORS
330
145
102
}
330
145
100
AcDbVisualStyle
  2
JitterOff
 70
20
177
3
291
1
 70
58
 90
2
176
0
 90
2
176
0
 90
0
176
0
 90
0
176
0
 40
0.6
176
0
 40
30.0
176
0
 62
7
420
16777215
176
0
 90
1
176
0
 90
4
176
0
 62
7
176
0
 62
257
176
0
 90
1
176
0
 90
1
176
0
 40
1.0
176
0
 90
10
176
2
 62
7
176
0
 40
1.0
176
0
 90
1
176
0
 90
6
176
0
 90
2
176
0
 62
7
176
0
 90
5
176
0
 90
0
176
0
 90
0
176
0
290
0
176
0
 90
1
176
0
 40
0.0
176
0
 90
0
176
0
290
0
176
1
290
1
176
1
290
1
176
1
290
0
176
1
290
0
176
1
290
0
176
1
290
0
176
1
290
0
176
1
290
0
176
1
 90
50
176
1
 40
0.0
176
1
 40
1.0
176
1
 90
0
176
1
 62
18
420
0
176
1
 90
50
176
1
 90
3
176
1
 62
5
420
255
176
1
290
0
176
1
 90
50
176
1
 90
50
176
1
 90
50
176
1
290
0
176
1
 90
50
176
1
 62
256
176
0
 40
1.0
176
0
 90
0
176
1
  1
strokes_ogs.tif
176
1
290
0
176
1
 40
1.0
176
1
 40
1.0
176
1
  0
VISUALSTYLE
  5
153
102
{ACAD_REACTORS
330
145
102
}
330
145
100
AcDbVisualStyle
  2
Linepattern
 70
14
177
3
291
1
 70
58
 90
2
176
1
 90
2
176
1
 90
0
176
1
 90
0
176
1
 40
0.6
176
1
 40
30.0
176
1
 62
7
420
16777215
176
1
 90
1
176
1
 90
4
176
1
 62
7
176
1
 62
257
176
1
 90
7
176
1
 90
7
176
1
 40
1.0
176
1
 90
8
176
1
 62
7
176
1
 40
1.0
176
1
 90
1
176
1
 90
6
176
1
 90
2
176
1
 62
7
176
1
 90
5
176
1
 90
0
176
1
 90
0
176
1
290
0
176
1
 90
1
176
1
 40
0.0
176
1
 90
0
176
1
290
0
176
1
290
1
176
1
290
1
176
1
290
0
176
1
290
0
176
1
290
0
176
1
290
0
176
1
290
0
176
1
290
0
176
1
 90
50
176
1
 40
0.0
176
1
 40
1.0
176
1
 90
0
176
1
 62
18
420
0
176
1
 90
50
176
1
 90
3
176
1
 62
5
420
255
176
1
290
0
176
1
 90
50
176
1
 90
50
176
1
 90
50
176
1
290
0
176
1
 90
50
176
1
 62
256
176
0
 40
1.0
176
0
 90
0
176
1
  1
strokes_ogs.tif
176
1
290
0
176
1
 40
1.0
176
1
 40
1.0
176
1
  0
VISUALSTYLE
  5
15C
102
{ACAD_REACTORS
330
145
102
}
330
145
100
AcDbVisualStyle
  2
OverhangOff
 70
21
177
3
291
1
 70
58
 90
2
176
0
 90
2
176
0
 90
0
176
0
 90
0
176
0
 40
0.6
176
0
 40
30.0
176
0
 62
7
420
16777215
176
0
 90
1
176
0
 90
4
176
0
 62
7
176
0
 62
257
176
0
 90
1
176
0
 90
1
176
0
 40
1.0
176
0
 90
9
176
2
 62
7
176
0
 40
1.0
176
0
 90
1
176
0
 90
6
176
0
 90
2
176
0
 62
7
176
0
 90
5
176
0
 90
0
176
0
 90
0
176
0
290
0
176
0
 90
1
176
0
 40
0.0
176
0
 90
0
176
0
290
0
176
1
290
1
176
1
290
1
176
1
290
0
176
1
290
0
176
1
290
0
176
1
290
0
176
1
290
0
176
1
290
0
176
1
 90
50
176
1
 40
0.0
176
1
 40
1.0
176
1
 90
0
176
1
 62
18
420
0
176
1
 90
50
176
1
 90
3
176
1
 62
5
420
255
176
1
290
0
176
1
 90
50
176
1
 90
50
176
1
 90
50
176
1
290
0
176
1
 90
50
176
1
 62
256
176
0
 40
1.0
176
0
 90
0
176
1
  1
strokes_ogs.tif
176
1
290
0
176
1
 40
1.0
176
1
 40
1.0
176
1
  0
VISUALSTYLE
  5
14F
102
{ACAD_REACTORS
330
145
102
}
330
145
100
AcDbVisualStyle
  2
Realistic
 70
8
177
3
291
0
 70
58
 90
2
176
1
 90
3
176
1
 90
0
176
1
 90
2
176
1
 40
0.6
176
1
 40
30.0
176
1
 62
7
420
16777215
176
1
 90
0
176
1
 90
0
176
1
 62
7
176
1
 62
257
176
1
 90
1
176
1
 90
1
176
1
 40
1.0
176
1
 90
8
176
1
 62
257
176
1
 40
1.0
176
1
 90
1
176
1
 90
6
176
1
 90
2
176
1
 62
7
176
1
 90
3
176
1
 90
0
176
1
 90
0
176
1
290
0
176
1
 90
13
176
1
 40
0.0
176
1
 90
0
176
1
290
0
176
1
290
1
176
1
290
1
176
1
290
0
176
1
290
0
176
1
290
0
176
1
290
0
176
1
290
0
176
1
290
0
176
1
 90
50
176
1
 40
0.0
176
1
 40
1.0
176
1
 90
0
176
1
 62
18
420
0
176
1
 90
50
176
1
 90
3
176
1
 62
5
420
255
176
1
290
0
176
1
 90
50
176
1
 90
50
176
1
 90
50
176
1
290
0
176
1
 90
50
176
1
 62
256
176
0
 40
1.0
176
0
 90
0
176
1
  1
strokes_ogs.tif
176
1
290
0
176
1
 40
1.0
176
1
 40
1.0
176
1
  0
VISUALSTYLE
  5
15A
102
{ACAD_REACTORS
330
145
102
}
330
145
100
AcDbVisualStyle
  2
Shaded
 70
27
177
3
291
0
 70
58
 90
2
176
1
 90
2
176
1
 90
1
176
1
 90
2
176
1
 40
0.6
176
1
 40
30.0
176
1
 62
7
420
16777215
176
1
 90
0
176
1
 90
4
176
1
 62
7
176
1
 62
257
176
1
 90
1
176
1
 90
1
176
1
 40
1.0
176
1
 90
8
176
1
 62
257
176
1
 40
1.0
176
1
 90
1
176
1
 90
6
176
1
 90
2
176
1
 62
8
420
7895160
176
1
 90
3
176
1
 90
0
176
1
 90
0
176
1
290
0
176
1
 90
5
176
1
 40
0.0
176
1
 90
0
176
1
290
0
176
1
290
1
176
1
290
1
176
1
290
0
176
1
290
0
176
1
290
0
176
1
290
0
176
1
290
0
176
1
290
0
176
1
 90
50
176
1
 40
0.0
176
1
 40
1.0
176
1
 90
0
176
1
 62
18
420
0
176
1
 90
50
176
1
 90
3
176
1
 62
5
420
255
176
1
290
0
176
1
 90
50
176
1
 90
50
176
1
 90
50
176
1
290
0
176
1
 90
50
176
1
 62
256
176
0
 40
1.0
176
0
 90
0
176
1
  1
strokes_ogs.tif
176
1
290
0
176
1
 40
1.0
176
1
 40
1.0
176
1
  0
VISUALSTYLE
  5
159
102
{ACAD_REACTORS
330
145
102
}
330
145
100
AcDbVisualStyle
  2
Shaded with edges
 70
26
177
3
291
0
 70
58
 90
2
176
1
 90
2
176
1
 90
1
176
1
 90
2
176
1
 40
0.6
176
1
 40
30.0
176
1
 62
7
420
16777215
176
1
 90
1
176
1
 90
10
176
1
 62
7
176
1
 62
257
176
1
 90
2
176
1
 90
1
176
1
 40
1.0
176
1
 90
8
176
1
 62
257
176
1
 40
1.0
176
1
 90
1
176
1
 90
6
176
1
 90
2
176
1
 62
7
176
1
 90
3
176
1
 90
0
176
1
 90
0
176
1
290
0
176
1
 90
5
176
1
 40
0.0
176
1
 90
0
176
1
290
0
176
1
290
1
176
1
290
1
176
1
290
0
176
1
290
0
176
1
290
0
176
1
290
0
176
1
290
0
176
1
290
0
176
1
 90
50
176
1
 40
0.0
176
1
 40
1.0
176
1
 90
0
176
1
 62
18
420
0
176
1
 90
50
176
1
 90
3
176
1
 62
5
420
255
176
1
290
0
176
1
 90
50
176
1
 90
50
176
1
 90
50
176
1
290
0
176
1
 90
50
176
1
 62
256
176
0
 40
1.0
176
0
 90
0
176
1
  1
strokes_ogs.tif
176
1
290
0
176
1
 40
1.0
176
1
 40
1.0
176
1
  0
VISUALSTYLE
  5
156
102
{ACAD_REACTORS
330
145
102
}
330
145
100
AcDbVisualStyle
  2
Shades of Gray
 70
23
177
3
291
0
 70
58
 90
2
176
1
 90
2
176
1
 90
3
176
1
 90
0
176
1
 40
0.6
176
1
 40
30.0
176
1
 62
7
420
16777215
176
1
 90
2
176
1
 90
2
176
1
 62
7
176
1
 62
7
176
1
 90
1
176
1
 90
1
176
1
 40
40.0
176
1
 90
8
176
1
 62
7
176
1
 40
1.0
176
1
 90
1
176
1
 90
6
176
1
 90
2
176
1
 62
7
176
1
 90
3
176
1
 90
0
176
1
 90
0
176
1
290
0
176
1
 90
1
176
1
 40
0.0
176
1
 90
0
176
1
290
0
176
1
290
1
176
1
290
1
176
1
290
0
176
1
290
0
176
1
290
0
176
1
290
0
176
1
290
0
176
1
290
0
176
1
 90
50
176
1
 40
0.0
176
1
 40
1.0
176
1
 90
0
176
1
 62
18
420
0
176
1
 90
50
176
1
 90
3
176
1
 62
5
420
255
176
1
290
0
176
1
 90
50
176
1
 90
50
176
1
 90
50
176
1
290
0
176
1
 90
50
176
1
 62
256
176
0
 40
1.0
176
0
 90
0
176
1
  1
strokes_ogs.tif
176
1
290
0
176
1
 40
1.0
176
1
 40
1.0
176
1
  0
VISUALSTYLE
  5
157
102
{ACAD_REACTORS
330
145
102
}
330
145
100
AcDbVisualStyle
  2
Sketchy
 70
24
177
3
291
0
 70
58
 90
1
176
1
 90
2
176
1
 90
2
176
1
 90
0
176
1
 40
0.6
176
1
 40
30.0
176
1
 62
7
420
16777215
176
1
 90
2
176
1
 90
2
176
1
 62
7
176
1
 62
7
176
1
 90
1
176
1
 90
1
176
1
 40
40.0
176
1
 90
11
176
1
 62
7
176
1
 40
1.0
176
1
 90
1
176
1
 90
6
176
1
 90
2
176
1
 62
7
176
1
 90
6
176
1
 90
0
176
1
 90
0
176
1
290
0
176
1
 90
1
176
1
 40
0.0
176
1
 90
0
176
1
290
0
176
1
290
1
176
1
290
1
176
1
290
0
176
1
290
0
176
1
290
0
176
1
290
0
176
1
290
0
176
1
290
0
176
1
 90
50
176
1
 40
0.0
176
1
 40
1.0
176
1
 90
0
176
1
 62
18
420
0
176
1
 90
50
176
1
 90
3
176
1
 62
5
420
255
176
1
290
0
176
1
 90
50
176
1
 90
50
176
1
 90
50
176
1
290
0
176
1
 90
50
176
1
 62
256
176
0
 40
1.0
176
0
 90
0
176
1
  1
strokes_ogs.tif
176
1
290
0
176
1
 40
1.0
176
1
 40
1.0
176
1
  0
VISUALSTYLE
  5
152
102
{ACAD_REACTORS
330
145
102
}
330
145
100
AcDbVisualStyle
  2
Thicken
 70
13
177
3
291
1
 70
58
 90
2
176
1
 90
2
176
1
 90
0
176
1
 90
0
176
1
 40
0.6
176
1
 40
30.0
176
1
 62
7
420
16777215
176
1
 90
1
176
1
 90
4
176
1
 62
7
176
1
 62
257
176
1
 90
1
176
1
 90
1
176
1
 40
1.0
176
1
 90
12
176
1
 62
7
176
1
 40
1.0
176
1
 90
1
176
1
 90
6
176
1
 90
2
176
1
 62
7
176
1
 90
5
176
1
 90
0
176
1
 90
0
176
1
290
0
176
1
 90
1
176
1
 40
0.0
176
1
 90
0
176
1
290
0
176
1
290
1
176
1
290
1
176
1
290
0
176
1
290
0
176
1
290
0
176
1
290
0
176
1
290
0
176
1
290
0
176
1
 90
50
176
1
 40
0.0
176
1
 40
1.0
176
1
 90
0
176
1
 62
18
420
0
176
1
 90
50
176
1
 90
3
176
1
 62
5
420
255
176
1
290
0
176
1
 90
50
176
1
 90
50
176
1
 90
50
176
1
290
0
176
1
 90
50
176
1
 62
256
176
0
 40
1.0
176
0
 90
0
176
1
  1
strokes_ogs.tif
176
1
290
0
176
1
 40
1.0
176
1
 40
1.0
176
1
  0
VISUALSTYLE
  5
14C
102
{ACAD_REACTORS
330
145
102
}
330
145
100
AcDbVisualStyle
  2
Wireframe
 70
5
177
3
291
0
 70
58
 90
0
176
1
 90
2
176
1
 90
0
176
1
 90
0
176
1
 40
0.6
176
1
 40
30.0
176
1
 62
7
420
16777215
176
1
 90
1
176
1
 90
4
176
1
 62
7
176
1
 62
257
176
1
 90
1
176
1
 90
1
176
1
 40
1.0
176
1
 90
0
176
1
 62
257
176
1
 40
1.0
176
1
 90
1
176
1
 90
6
176
1
 90
2
176
1
 62
7
176
1
 90
3
176
1
 90
0
176
1
 90
0
176
1
290
0
176
1
 90
1
176
1
 40
0.0
176
1
 90
0
176
1
290
0
176
1
290
1
176
1
290
1
176
1
290
0
176
1
290
0
176
1
290
0
176
1
290
0
176
1
290
0
176
1
290
0
176
1
 90
50
176
1
 40
0.0
176
1
 40
1.0
176
1
 90
0
176
1
 62
18
420
0
176
1
 90
50
176
1
 90
3
176
1
 62
5
420
255
176
1
290
0
176
1
 90
50
176
1
 90
50
176
1
 90
50
176
1
290
0
176
1
 90
50
176
1
 62
256
176
0
 40
1.0
176
0
 90
0
176
1
  1
strokes_ogs.tif
176
1
290
0
176
1
 40
1.0
176
1
 40
1.0
176
1
  0
VISUALSTYLE
  5
158
102
{ACAD_REACTORS
330
145
102
}
330
145
100
AcDbVisualStyle
  2
X-Ray
 70
25
177
3
291
0
 70
58
 90
2
176
1
 90
2
176
1
 90
1
176
1
 90
1
176
1
 40
0.5
176
1
 40
30.0
176
1
 62
7
420
16777215
176
1
 90
1
176
1
 90
0
176
1
 62
7
176
1
 62
257
176
1
 90
1
176
1
 90
1
176
1
 40
1.0
176
1
 90
8
176
1
 62
7
176
1
 40
1.0
176
1
 90
1
176
1
 90
6
176
1
 90
2
176
1
 62
7
176
1
 90
3
176
1
 90
0
176
1
 90
0
176
1
290
0
176
1
 90
13
176
1
 40
0.0
176
1
 90
0
176
1
290
0
176
1
290
1
176
1
290
1
176
1
290
0
176
1
290
0
176
1
290
0
176
1
290
0
176
1
290
0
176
1
290
0
176
1
 90
50
176
1
 40
0.0
176
1
 40
1.0
176
1
 90
0
176
1
 62
18
420
0
176
1
 90
50
176
1
 90
3
176
1
 62
5
420
255
176
1
290
0
176
1
 90
50
176
1
 90
50
176
1
 90
50
176
1
290
0
176
1
 90
50
176
1
 62
256
176
0
 40
1.0
176
0
 90
0
176
1
  1
strokes_ogs.tif
176
1
290
0
176
1
 40
1.0
176
1
 40
1.0
176
1
  0
DICTIONARYVAR
  5
DD
102
{ACAD_REACTORS
330
59
102
}
330
59
100
DictionaryVariables
280
0
  1
1:1
  0
DICTIONARYVAR
  5
E9
102
{ACAD_REACTORS
330
59
102
}
330
59
100
DictionaryVariables
280
0
  1
STANDARD
  0
DICTIONARYVAR
  5
98
102
{ACAD_REACTORS
330
59
102
}
330
59
100
DictionaryVariables
280
0
  1
STANDARD
  0
DICTIONARYVAR
  5
1EE
102
{ACAD_REACTORS
330
59
102
}
330
59
100
DictionaryVariables
280
0
  1
Metric50
  0
DICTIONARYVAR
  5
1EF
102
{ACAD_REACTORS
330
59
102
}
330
59
100
DictionaryVariables
280
0
  1
Metric50
  0
DICTIONARYVAR
  5
43
102
{ACAD_REACTORS
330
59
102
}
330
59
100
DictionaryVariables
280
0
  1
2
  0
DICTIONARYVAR
  5
5E
102
{ACAD_REACTORS
330
59
102
}
330
59
100
DictionaryVariables
280
0
  1
1
  0
DICTIONARYVAR
  5
B6
102
{ACAD_REACTORS
330
59
102
}
330
59
100
DictionaryVariables
280
0
  1

  0
DICTIONARYVAR
  5
E2
102
{ACAD_REACTORS
330
59
102
}
330
59
100
DictionaryVariables
280
0
  1
2
  0
DICTIONARY
  5
90D
330
93
100
AcDbDictionary
280
1
281
1
  3
ACAD_ROUNDTRIP_2008_TABLESTYLE_CELLSTYLEMAP
360
910
  0
CELLSTYLEMAP
  5
910
102
{ACAD_REACTORS
330
90D
102
}
330
90D
100
AcDbCellStyleMap
 90
3
300
CELLSTYLE
  1
TABLEFORMAT_BEGIN
 90
5
170
1
 91
0
 92
32768
 62
257
 93
1
300
CONTENTFORMAT
  1
CONTENTFORMAT_BEGIN
 90
0
 91
0
 92
512
 93
0
300

 40
0.0
140
1.0
 94
5
 62
0
340
11
144
6.0
309
CONTENTFORMAT_END
171
1
301
MARGIN
  1
CELLMARGIN_BEGIN
 40
1.5
 40
1.5
 40
0.06
 40
0.06
 40
0.18
 40
0.18
309
CELLMARGIN_END
 94
6
 95
1
302
GRIDFORMAT
  1
GRIDFORMAT_BEGIN
 90
0
 91
1
 62
0
 92
-2
340
0
 93
0
 40
0.045
309
GRIDFORMAT_END
 95
2
302
GRIDFORMAT
  1
GRIDFORMAT_BEGIN
 90
0
 91
1
 62
0
 92
-2
340
0
 93
0
 40
0.045
309
GRIDFORMAT_END
 95
4
302
GRIDFORMAT
  1
GRIDFORMAT_BEGIN
 90
0
 91
1
 62
0
 92
-2
340
0
 93
0
 40
0.045
309
GRIDFORMAT_END
 95
8
302
GRIDFORMAT
  1
GRIDFORMAT_BEGIN
 90
0
 91
1
 62
0
 92
-2
340
0
 93
0
 40
0.045
309
GRIDFORMAT_END
 95
16
302
GRIDFORMAT
  1
GRIDFORMAT_BEGIN
 90
0
 91
1
 62
0
 92
-2
340
0
 93
0
 40
0.045
309
GRIDFORMAT_END
 95
32
302
GRIDFORMAT
  1
GRIDFORMAT_BEGIN
 90
0
 91
1
 62
0
 92
-2
340
0
 93
0
 40
0.045
309
GRIDFORMAT_END
309
TABLEFORMAT_END
  1
CELLSTYLE_BEGIN
 90
1
 91
1
300
_TITLE
309
CELLSTYLE_END
300
CELLSTYLE
  1
TABLEFORMAT_BEGIN
 90
5
170
1
 91
0
 92
0
 62
257
 93
1
300
CONTENTFORMAT
  1
CONTENTFORMAT_BEGIN
 90
0
 91
0
 92
512
 93
0
300

 40
0.0
140
1.0
 94
5
 62
0
340
11
144
4.5
309
CONTENTFORMAT_END
171
1
301
MARGIN
  1
CELLMARGIN_BEGIN
 40
1.5
 40
1.5
 40
0.06
 40
0.06
 40
0.18
 40
0.18
309
CELLMARGIN_END
 94
6
 95
1
302
GRIDFORMAT
  1
GRIDFORMAT_BEGIN
 90
0
 91
1
 62
0
 92
-2
340
0
 93
0
 40
0.045
309
GRIDFORMAT_END
 95
2
302
GRIDFORMAT
  1
GRIDFORMAT_BEGIN
 90
0
 91
1
 62
0
 92
-2
340
0
 93
0
 40
0.045
309
GRIDFORMAT_END
 95
4
302
GRIDFORMAT
  1
GRIDFORMAT_BEGIN
 90
0
 91
1
 62
0
 92
-2
340
0
 93
0
 40
0.045
309
GRIDFORMAT_END
 95
8
302
GRIDFORMAT
  1
GRIDFORMAT_BEGIN
 90
0
 91
1
 62
0
 92
-2
340
0
 93
0
 40
0.045
309
GRIDFORMAT_END
 95
16
302
GRIDFORMAT
  1
GRIDFORMAT_BEGIN
 90
0
 91
1
 62
0
 92
-2
340
0
 93
0
 40
0.045
309
GRIDFORMAT_END
 95
32
302
GRIDFORMAT
  1
GRIDFORMAT_BEGIN
 90
0
 91
1
 62
0
 92
-2
340
0
 93
0
 40
0.045
309
GRIDFORMAT_END
309
TABLEFORMAT_END
  1
CELLSTYLE_BEGIN
 90
2
 91
1
300
_HEADER
309
CELLSTYLE_END
300
CELLSTYLE
  1
TABLEFORMAT_BEGIN
 90
5
170
1
 91
0
 92
0
 62
257
 93
1
300
CONTENTFORMAT
  1
CONTENTFORMAT_BEGIN
 90
0
 91
0
 92
512
 93
0
300

 40
0.0
140
1.0
 94
2
 62
0
340
11
144
4.5
309
CONTENTFORMAT_END
171
1
301
MARGIN
  1
CELLMARGIN_BEGIN
 40
1.5
 40
1.5
 40
0.06
 40
0.06
 40
0.18
 40
0.18
309
CELLMARGIN_END
 94
6
 95
1
302
GRIDFORMAT
  1
GRIDFORMAT_BEGIN
 90
0
 91
1
 62
0
 92
-2
340
0
 93
0
 40
0.045
309
GRIDFORMAT_END
 95
2
302
GRIDFORMAT
  1
GRIDFORMAT_BEGIN
 90
0
 91
1
 62
0
 92
-2
340
0
 93
0
 40
0.045
309
GRIDFORMAT_END
 95
4
302
GRIDFORMAT
  1
GRIDFORMAT_BEGIN
 90
0
 91
1
 62
0
 92
-2
340
0
 93
0
 40
0.045
309
GRIDFORMAT_END
 95
8
302
GRIDFORMAT
  1
GRIDFORMAT_BEGIN
 90
0
 91
1
 62
0
 92
-2
340
0
 93
0
 40
0.045
309
GRIDFORMAT_END
 95
16
302
GRIDFORMAT
  1
GRIDFORMAT_BEGIN
 90
0
 91
1
 62
0
 92
-2
340
0
 93
0
 40
0.045
309
GRIDFORMAT_END
 95
32
302
GRIDFORMAT
  1
GRIDFORMAT_BEGIN
 90
0
 91
1
 62
0
 92
-2
340
0
 93
0
 40
0.045
309
GRIDFORMAT_END
309
TABLEFORMAT_END
  1
CELLSTYLE_BEGIN
 90
3
 91
2
300
_DATA
309
CELLSTYLE_END
  0
DICTIONARY
  5
91F
330
C
100
AcDbDictionary
280
1
281
1
  3
WRITTEN_BY_EZDXF
350
920
  0
DICTIONARYVAR
  5
920
330
91F
100
DictionaryVariables
280
0
  1
1.3.5 @ 2025-04-28T06:51:22.463789+00:00
  0
ENDSEC
  0
EOF
